<?xml version="1.0" encoding="UTF-8" standalone="no"?>
<!DOCTYPE svg PUBLIC "-//W3C//DTD SVG 1.1//EN"
 "http://www.w3.org/Graphics/SVG/1.1/DTD/svg11.dtd">
<!-- Generated by graphviz version 7.0.6 (20230107.1202)
 -->
<!-- Title: snakemake_dag Pages: 1 -->
<svg width="3851pt" height="332pt"
 viewBox="0.00 0.00 3851.00 332.00" xmlns="http://www.w3.org/2000/svg" xmlns:xlink="http://www.w3.org/1999/xlink">
<g id="graph0" class="graph" transform="scale(1 1) rotate(0) translate(4 328)">
<title>snakemake_dag</title>
<polygon fill="white" stroke="none" points="-4,4 -4,-328 3847,-328 3847,4 -4,4"/>
<!-- 0 -->
<g id="node1" class="node">
<title>0</title>
<path fill="none" stroke="#d8ac56" stroke-width="2" d="M1966.5,-36C1966.5,-36 1876.5,-36 1876.5,-36 1870.5,-36 1864.5,-30 1864.5,-24 1864.5,-24 1864.5,-12 1864.5,-12 1864.5,-6 1870.5,0 1876.5,0 1876.5,0 1966.5,0 1966.5,0 1972.5,0 1978.5,-6 1978.5,-12 1978.5,-12 1978.5,-24 1978.5,-24 1978.5,-30 1972.5,-36 1966.5,-36"/>
<text text-anchor="middle" x="1921.5" y="-15.5" font-family="sans" font-size="10.00">tsv2bed_conversion</text>
</g>
<!-- 1 -->
<g id="node2" class="node">
<title>1</title>
<path fill="none" stroke="#d85656" stroke-width="2" d="M1949,-108C1949,-108 1894,-108 1894,-108 1888,-108 1882,-102 1882,-96 1882,-96 1882,-84 1882,-84 1882,-78 1888,-72 1894,-72 1894,-72 1949,-72 1949,-72 1955,-72 1961,-78 1961,-84 1961,-84 1961,-96 1961,-96 1961,-102 1955,-108 1949,-108"/>
<text text-anchor="middle" x="1921.5" y="-87.5" font-family="sans" font-size="10.00">convergence</text>
</g>
<!-- 1&#45;&gt;0 -->
<g id="edge1" class="edge">
<title>1&#45;&gt;0</title>
<path fill="none" stroke="grey" stroke-width="2" d="M1921.5,-71.34C1921.5,-64.75 1921.5,-57.08 1921.5,-49.67"/>
<polygon fill="grey" stroke="grey" stroke-width="2" points="1925,-49.93 1921.5,-39.93 1918,-49.93 1925,-49.93"/>
</g>
<!-- 2 -->
<g id="node3" class="node">
<title>2</title>
<path fill="none" stroke="#59d856" stroke-width="2" d="M80.5,-180C80.5,-180 20.5,-180 20.5,-180 14.5,-180 8.5,-174 8.5,-168 8.5,-168 8.5,-156 8.5,-156 8.5,-150 14.5,-144 20.5,-144 20.5,-144 80.5,-144 80.5,-144 86.5,-144 92.5,-150 92.5,-156 92.5,-156 92.5,-168 92.5,-168 92.5,-174 86.5,-180 80.5,-180"/>
<text text-anchor="middle" x="50.5" y="-159.5" font-family="sans" font-size="10.00">filter_mapped</text>
</g>
<!-- 2&#45;&gt;1 -->
<g id="edge2" class="edge">
<title>2&#45;&gt;1</title>
<path fill="none" stroke="grey" stroke-width="2" d="M93.3,-155.93C127.85,-152.04 177.74,-146.85 221.5,-144 869.51,-101.74 1658.75,-92.97 1868.33,-91.34"/>
<polygon fill="grey" stroke="grey" stroke-width="2" points="1868.29,-94.84 1878.27,-91.27 1868.24,-87.84 1868.29,-94.84"/>
</g>
<!-- 3 -->
<g id="node4" class="node">
<title>3</title>
<path fill="none" stroke="#afd856" stroke-width="2" d="M87,-252C87,-252 12,-252 12,-252 6,-252 0,-246 0,-240 0,-240 0,-228 0,-228 0,-222 6,-216 12,-216 12,-216 87,-216 87,-216 93,-216 99,-222 99,-228 99,-228 99,-240 99,-240 99,-246 93,-252 87,-252"/>
<text text-anchor="middle" x="49.5" y="-237" font-family="sans" font-size="10.00">Crossmap_CADD</text>
<text text-anchor="middle" x="49.5" y="-226" font-family="sans" font-size="10.00">sample: chr1</text>
</g>
<!-- 3&#45;&gt;2 -->
<g id="edge35" class="edge">
<title>3&#45;&gt;2</title>
<path fill="none" stroke="grey" stroke-width="2" d="M49.75,-215.34C49.85,-208.75 49.96,-201.08 50.06,-193.67"/>
<polygon fill="grey" stroke="grey" stroke-width="2" points="53.56,-193.98 50.2,-183.93 46.56,-193.88 53.56,-193.98"/>
</g>
<!-- 4 -->
<g id="node5" class="node">
<title>4</title>
<path fill="none" stroke="#56d8a9" stroke-width="2" stroke-dasharray="5,2" d="M79,-324C79,-324 20,-324 20,-324 14,-324 8,-318 8,-312 8,-312 8,-300 8,-300 8,-294 14,-288 20,-288 20,-288 79,-288 79,-288 85,-288 91,-294 91,-300 91,-300 91,-312 91,-312 91,-318 85,-324 79,-324"/>
<text text-anchor="middle" x="49.5" y="-309" font-family="sans" font-size="10.00">split_chCADD</text>
<text text-anchor="middle" x="49.5" y="-298" font-family="sans" font-size="10.00">sample: 1</text>
</g>
<!-- 4&#45;&gt;3 -->
<g id="edge36" class="edge">
<title>4&#45;&gt;3</title>
<path fill="none" stroke="grey" stroke-width="2" d="M49.5,-287.34C49.5,-280.75 49.5,-273.08 49.5,-265.67"/>
<polygon fill="grey" stroke="grey" stroke-width="2" points="53,-265.93 49.5,-255.93 46,-265.93 53,-265.93"/>
</g>
<!-- 5 -->
<g id="node6" class="node">
<title>5</title>
<path fill="none" stroke="#59d856" stroke-width="2" d="M302.5,-180C302.5,-180 242.5,-180 242.5,-180 236.5,-180 230.5,-174 230.5,-168 230.5,-168 230.5,-156 230.5,-156 230.5,-150 236.5,-144 242.5,-144 242.5,-144 302.5,-144 302.5,-144 308.5,-144 314.5,-150 314.5,-156 314.5,-156 314.5,-168 314.5,-168 314.5,-174 308.5,-180 302.5,-180"/>
<text text-anchor="middle" x="272.5" y="-159.5" font-family="sans" font-size="10.00">filter_mapped</text>
</g>
<!-- 5&#45;&gt;1 -->
<g id="edge3" class="edge">
<title>5&#45;&gt;1</title>
<path fill="none" stroke="grey" stroke-width="2" d="M315.31,-153.24C335.87,-149.82 360.89,-146.11 383.5,-144 963.71,-89.76 1671.69,-89.47 1868.54,-90.58"/>
<polygon fill="grey" stroke="grey" stroke-width="2" points="1868.24,-94.07 1878.26,-90.63 1868.28,-87.07 1868.24,-94.07"/>
</g>
<!-- 6 -->
<g id="node7" class="node">
<title>6</title>
<path fill="none" stroke="#afd856" stroke-width="2" d="M204,-252C204,-252 129,-252 129,-252 123,-252 117,-246 117,-240 117,-240 117,-228 117,-228 117,-222 123,-216 129,-216 129,-216 204,-216 204,-216 210,-216 216,-222 216,-228 216,-228 216,-240 216,-240 216,-246 210,-252 204,-252"/>
<text text-anchor="middle" x="166.5" y="-237" font-family="sans" font-size="10.00">Crossmap_CADD</text>
<text text-anchor="middle" x="166.5" y="-226" font-family="sans" font-size="10.00">sample: chr2</text>
</g>
<!-- 6&#45;&gt;5 -->
<g id="edge37" class="edge">
<title>6&#45;&gt;5</title>
<path fill="none" stroke="grey" stroke-width="2" d="M193.52,-215.15C206.11,-206.84 221.29,-196.82 234.96,-187.79"/>
<polygon fill="grey" stroke="grey" stroke-width="2" points="236.58,-190.91 243,-182.48 232.73,-185.07 236.58,-190.91"/>
</g>
<!-- 7 -->
<g id="node8" class="node">
<title>7</title>
<path fill="none" stroke="#56d8a9" stroke-width="2" stroke-dasharray="5,2" d="M196,-324C196,-324 137,-324 137,-324 131,-324 125,-318 125,-312 125,-312 125,-300 125,-300 125,-294 131,-288 137,-288 137,-288 196,-288 196,-288 202,-288 208,-294 208,-300 208,-300 208,-312 208,-312 208,-318 202,-324 196,-324"/>
<text text-anchor="middle" x="166.5" y="-309" font-family="sans" font-size="10.00">split_chCADD</text>
<text text-anchor="middle" x="166.5" y="-298" font-family="sans" font-size="10.00">sample: 2</text>
</g>
<!-- 7&#45;&gt;6 -->
<g id="edge38" class="edge">
<title>7&#45;&gt;6</title>
<path fill="none" stroke="grey" stroke-width="2" d="M166.5,-287.34C166.5,-280.75 166.5,-273.08 166.5,-265.67"/>
<polygon fill="grey" stroke="grey" stroke-width="2" points="170,-265.93 166.5,-255.93 163,-265.93 170,-265.93"/>
</g>
<!-- 8 -->
<g id="node9" class="node">
<title>8</title>
<path fill="none" stroke="#59d856" stroke-width="2" d="M464.5,-180C464.5,-180 404.5,-180 404.5,-180 398.5,-180 392.5,-174 392.5,-168 392.5,-168 392.5,-156 392.5,-156 392.5,-150 398.5,-144 404.5,-144 404.5,-144 464.5,-144 464.5,-144 470.5,-144 476.5,-150 476.5,-156 476.5,-156 476.5,-168 476.5,-168 476.5,-174 470.5,-180 464.5,-180"/>
<text text-anchor="middle" x="434.5" y="-159.5" font-family="sans" font-size="10.00">filter_mapped</text>
</g>
<!-- 8&#45;&gt;1 -->
<g id="edge4" class="edge">
<title>8&#45;&gt;1</title>
<path fill="none" stroke="grey" stroke-width="2" d="M477.15,-150.64C489.46,-148.03 502.95,-145.54 515.5,-144 784.72,-110.92 1645,-95.35 1868.19,-91.8"/>
<polygon fill="grey" stroke="grey" stroke-width="2" points="1868.09,-95.3 1878.04,-91.65 1867.98,-88.3 1868.09,-95.3"/>
</g>
<!-- 9 -->
<g id="node10" class="node">
<title>9</title>
<path fill="none" stroke="#afd856" stroke-width="2" d="M321,-252C321,-252 246,-252 246,-252 240,-252 234,-246 234,-240 234,-240 234,-228 234,-228 234,-222 240,-216 246,-216 246,-216 321,-216 321,-216 327,-216 333,-222 333,-228 333,-228 333,-240 333,-240 333,-246 327,-252 321,-252"/>
<text text-anchor="middle" x="283.5" y="-237" font-family="sans" font-size="10.00">Crossmap_CADD</text>
<text text-anchor="middle" x="283.5" y="-226" font-family="sans" font-size="10.00">sample: chr3</text>
</g>
<!-- 9&#45;&gt;8 -->
<g id="edge39" class="edge">
<title>9&#45;&gt;8</title>
<path fill="none" stroke="grey" stroke-width="2" d="M321.99,-215.15C340.91,-206.38 363.95,-195.71 384.24,-186.3"/>
<polygon fill="grey" stroke="grey" stroke-width="2" points="385.47,-189.59 393.07,-182.21 382.52,-183.24 385.47,-189.59"/>
</g>
<!-- 10 -->
<g id="node11" class="node">
<title>10</title>
<path fill="none" stroke="#56d8a9" stroke-width="2" stroke-dasharray="5,2" d="M313,-324C313,-324 254,-324 254,-324 248,-324 242,-318 242,-312 242,-312 242,-300 242,-300 242,-294 248,-288 254,-288 254,-288 313,-288 313,-288 319,-288 325,-294 325,-300 325,-300 325,-312 325,-312 325,-318 319,-324 313,-324"/>
<text text-anchor="middle" x="283.5" y="-309" font-family="sans" font-size="10.00">split_chCADD</text>
<text text-anchor="middle" x="283.5" y="-298" font-family="sans" font-size="10.00">sample: 3</text>
</g>
<!-- 10&#45;&gt;9 -->
<g id="edge40" class="edge">
<title>10&#45;&gt;9</title>
<path fill="none" stroke="grey" stroke-width="2" d="M283.5,-287.34C283.5,-280.75 283.5,-273.08 283.5,-265.67"/>
<polygon fill="grey" stroke="grey" stroke-width="2" points="287,-265.93 283.5,-255.93 280,-265.93 287,-265.93"/>
</g>
<!-- 11 -->
<g id="node12" class="node">
<title>11</title>
<path fill="none" stroke="#59d856" stroke-width="2" d="M596.5,-180C596.5,-180 536.5,-180 536.5,-180 530.5,-180 524.5,-174 524.5,-168 524.5,-168 524.5,-156 524.5,-156 524.5,-150 530.5,-144 536.5,-144 536.5,-144 596.5,-144 596.5,-144 602.5,-144 608.5,-150 608.5,-156 608.5,-156 608.5,-168 608.5,-168 608.5,-174 602.5,-180 596.5,-180"/>
<text text-anchor="middle" x="566.5" y="-159.5" font-family="sans" font-size="10.00">filter_mapped</text>
</g>
<!-- 11&#45;&gt;1 -->
<g id="edge5" class="edge">
<title>11&#45;&gt;1</title>
<path fill="none" stroke="grey" stroke-width="2" d="M609.19,-148.61C616.89,-146.77 624.89,-145.12 632.5,-144 876.94,-107.91 1657.55,-94.66 1868.52,-91.69"/>
<polygon fill="grey" stroke="grey" stroke-width="2" points="1868.32,-95.19 1878.27,-91.55 1868.22,-88.19 1868.32,-95.19"/>
</g>
<!-- 12 -->
<g id="node13" class="node">
<title>12</title>
<path fill="none" stroke="#afd856" stroke-width="2" d="M438,-252C438,-252 363,-252 363,-252 357,-252 351,-246 351,-240 351,-240 351,-228 351,-228 351,-222 357,-216 363,-216 363,-216 438,-216 438,-216 444,-216 450,-222 450,-228 450,-228 450,-240 450,-240 450,-246 444,-252 438,-252"/>
<text text-anchor="middle" x="400.5" y="-237" font-family="sans" font-size="10.00">Crossmap_CADD</text>
<text text-anchor="middle" x="400.5" y="-226" font-family="sans" font-size="10.00">sample: chr4</text>
</g>
<!-- 12&#45;&gt;11 -->
<g id="edge41" class="edge">
<title>12&#45;&gt;11</title>
<path fill="none" stroke="grey" stroke-width="2" d="M442.82,-215.15C463.91,-206.26 489.65,-195.41 512.18,-185.91"/>
<polygon fill="grey" stroke="grey" stroke-width="2" points="513.33,-189.22 521.18,-182.11 510.61,-182.77 513.33,-189.22"/>
</g>
<!-- 13 -->
<g id="node14" class="node">
<title>13</title>
<path fill="none" stroke="#56d8a9" stroke-width="2" stroke-dasharray="5,2" d="M430,-324C430,-324 371,-324 371,-324 365,-324 359,-318 359,-312 359,-312 359,-300 359,-300 359,-294 365,-288 371,-288 371,-288 430,-288 430,-288 436,-288 442,-294 442,-300 442,-300 442,-312 442,-312 442,-318 436,-324 430,-324"/>
<text text-anchor="middle" x="400.5" y="-309" font-family="sans" font-size="10.00">split_chCADD</text>
<text text-anchor="middle" x="400.5" y="-298" font-family="sans" font-size="10.00">sample: 4</text>
</g>
<!-- 13&#45;&gt;12 -->
<g id="edge42" class="edge">
<title>13&#45;&gt;12</title>
<path fill="none" stroke="grey" stroke-width="2" d="M400.5,-287.34C400.5,-280.75 400.5,-273.08 400.5,-265.67"/>
<polygon fill="grey" stroke="grey" stroke-width="2" points="404,-265.93 400.5,-255.93 397,-265.93 404,-265.93"/>
</g>
<!-- 14 -->
<g id="node15" class="node">
<title>14</title>
<path fill="none" stroke="#59d856" stroke-width="2" d="M713.5,-180C713.5,-180 653.5,-180 653.5,-180 647.5,-180 641.5,-174 641.5,-168 641.5,-168 641.5,-156 641.5,-156 641.5,-150 647.5,-144 653.5,-144 653.5,-144 713.5,-144 713.5,-144 719.5,-144 725.5,-150 725.5,-156 725.5,-156 725.5,-168 725.5,-168 725.5,-174 719.5,-180 713.5,-180"/>
<text text-anchor="middle" x="683.5" y="-159.5" font-family="sans" font-size="10.00">filter_mapped</text>
</g>
<!-- 14&#45;&gt;1 -->
<g id="edge6" class="edge">
<title>14&#45;&gt;1</title>
<path fill="none" stroke="grey" stroke-width="2" d="M726.31,-147.21C731.39,-145.94 736.53,-144.83 741.5,-144 962.84,-107.14 1668.09,-94.57 1868.14,-91.7"/>
<polygon fill="grey" stroke="grey" stroke-width="2" points="1868.14,-95.2 1878.09,-91.56 1868.04,-88.2 1868.14,-95.2"/>
</g>
<!-- 15 -->
<g id="node16" class="node">
<title>15</title>
<path fill="none" stroke="#afd856" stroke-width="2" d="M555,-252C555,-252 480,-252 480,-252 474,-252 468,-246 468,-240 468,-240 468,-228 468,-228 468,-222 474,-216 480,-216 480,-216 555,-216 555,-216 561,-216 567,-222 567,-228 567,-228 567,-240 567,-240 567,-246 561,-252 555,-252"/>
<text text-anchor="middle" x="517.5" y="-237" font-family="sans" font-size="10.00">Crossmap_CADD</text>
<text text-anchor="middle" x="517.5" y="-226" font-family="sans" font-size="10.00">sample: chr5</text>
</g>
<!-- 15&#45;&gt;14 -->
<g id="edge43" class="edge">
<title>15&#45;&gt;14</title>
<path fill="none" stroke="grey" stroke-width="2" d="M559.82,-215.15C580.91,-206.26 606.65,-195.41 629.18,-185.91"/>
<polygon fill="grey" stroke="grey" stroke-width="2" points="630.33,-189.22 638.18,-182.11 627.61,-182.77 630.33,-189.22"/>
</g>
<!-- 16 -->
<g id="node17" class="node">
<title>16</title>
<path fill="none" stroke="#56d8a9" stroke-width="2" stroke-dasharray="5,2" d="M547,-324C547,-324 488,-324 488,-324 482,-324 476,-318 476,-312 476,-312 476,-300 476,-300 476,-294 482,-288 488,-288 488,-288 547,-288 547,-288 553,-288 559,-294 559,-300 559,-300 559,-312 559,-312 559,-318 553,-324 547,-324"/>
<text text-anchor="middle" x="517.5" y="-309" font-family="sans" font-size="10.00">split_chCADD</text>
<text text-anchor="middle" x="517.5" y="-298" font-family="sans" font-size="10.00">sample: 5</text>
</g>
<!-- 16&#45;&gt;15 -->
<g id="edge44" class="edge">
<title>16&#45;&gt;15</title>
<path fill="none" stroke="grey" stroke-width="2" d="M517.5,-287.34C517.5,-280.75 517.5,-273.08 517.5,-265.67"/>
<polygon fill="grey" stroke="grey" stroke-width="2" points="521,-265.93 517.5,-255.93 514,-265.93 521,-265.93"/>
</g>
<!-- 17 -->
<g id="node18" class="node">
<title>17</title>
<path fill="none" stroke="#59d856" stroke-width="2" d="M822.5,-180C822.5,-180 762.5,-180 762.5,-180 756.5,-180 750.5,-174 750.5,-168 750.5,-168 750.5,-156 750.5,-156 750.5,-150 756.5,-144 762.5,-144 762.5,-144 822.5,-144 822.5,-144 828.5,-144 834.5,-150 834.5,-156 834.5,-156 834.5,-168 834.5,-168 834.5,-174 828.5,-180 822.5,-180"/>
<text text-anchor="middle" x="792.5" y="-159.5" font-family="sans" font-size="10.00">filter_mapped</text>
</g>
<!-- 17&#45;&gt;1 -->
<g id="edge7" class="edge">
<title>17&#45;&gt;1</title>
<path fill="none" stroke="grey" stroke-width="2" d="M835.48,-146.6C839.51,-145.59 843.56,-144.69 847.5,-144 1047.01,-108.82 1680.21,-95.2 1868.31,-91.86"/>
<polygon fill="grey" stroke="grey" stroke-width="2" points="1868.11,-95.37 1878.05,-91.69 1867.99,-88.37 1868.11,-95.37"/>
</g>
<!-- 18 -->
<g id="node19" class="node">
<title>18</title>
<path fill="none" stroke="#afd856" stroke-width="2" d="M672,-252C672,-252 597,-252 597,-252 591,-252 585,-246 585,-240 585,-240 585,-228 585,-228 585,-222 591,-216 597,-216 597,-216 672,-216 672,-216 678,-216 684,-222 684,-228 684,-228 684,-240 684,-240 684,-246 678,-252 672,-252"/>
<text text-anchor="middle" x="634.5" y="-237" font-family="sans" font-size="10.00">Crossmap_CADD</text>
<text text-anchor="middle" x="634.5" y="-226" font-family="sans" font-size="10.00">sample: chr6</text>
</g>
<!-- 18&#45;&gt;17 -->
<g id="edge45" class="edge">
<title>18&#45;&gt;17</title>
<path fill="none" stroke="grey" stroke-width="2" d="M674.78,-215.15C694.67,-206.34 718.9,-195.61 740.2,-186.17"/>
<polygon fill="grey" stroke="grey" stroke-width="2" points="741.53,-189.41 749.25,-182.16 738.69,-183.01 741.53,-189.41"/>
</g>
<!-- 19 -->
<g id="node20" class="node">
<title>19</title>
<path fill="none" stroke="#56d8a9" stroke-width="2" stroke-dasharray="5,2" d="M664,-324C664,-324 605,-324 605,-324 599,-324 593,-318 593,-312 593,-312 593,-300 593,-300 593,-294 599,-288 605,-288 605,-288 664,-288 664,-288 670,-288 676,-294 676,-300 676,-300 676,-312 676,-312 676,-318 670,-324 664,-324"/>
<text text-anchor="middle" x="634.5" y="-309" font-family="sans" font-size="10.00">split_chCADD</text>
<text text-anchor="middle" x="634.5" y="-298" font-family="sans" font-size="10.00">sample: 6</text>
</g>
<!-- 19&#45;&gt;18 -->
<g id="edge46" class="edge">
<title>19&#45;&gt;18</title>
<path fill="none" stroke="grey" stroke-width="2" d="M634.5,-287.34C634.5,-280.75 634.5,-273.08 634.5,-265.67"/>
<polygon fill="grey" stroke="grey" stroke-width="2" points="638,-265.93 634.5,-255.93 631,-265.93 638,-265.93"/>
</g>
<!-- 20 -->
<g id="node21" class="node">
<title>20</title>
<path fill="none" stroke="#59d856" stroke-width="2" d="M928.5,-180C928.5,-180 868.5,-180 868.5,-180 862.5,-180 856.5,-174 856.5,-168 856.5,-168 856.5,-156 856.5,-156 856.5,-150 862.5,-144 868.5,-144 868.5,-144 928.5,-144 928.5,-144 934.5,-144 940.5,-150 940.5,-156 940.5,-156 940.5,-168 940.5,-168 940.5,-174 934.5,-180 928.5,-180"/>
<text text-anchor="middle" x="898.5" y="-159.5" font-family="sans" font-size="10.00">filter_mapped</text>
</g>
<!-- 20&#45;&gt;1 -->
<g id="edge8" class="edge">
<title>20&#45;&gt;1</title>
<path fill="none" stroke="grey" stroke-width="2" d="M941.36,-146.24C944.77,-145.38 948.17,-144.61 951.5,-144 1129.71,-111.11 1692.27,-96.09 1868.31,-92.12"/>
<polygon fill="grey" stroke="grey" stroke-width="2" points="1868.32,-95.62 1878.24,-91.9 1868.16,-88.62 1868.32,-95.62"/>
</g>
<!-- 21 -->
<g id="node22" class="node">
<title>21</title>
<path fill="none" stroke="#afd856" stroke-width="2" d="M789,-252C789,-252 714,-252 714,-252 708,-252 702,-246 702,-240 702,-240 702,-228 702,-228 702,-222 708,-216 714,-216 714,-216 789,-216 789,-216 795,-216 801,-222 801,-228 801,-228 801,-240 801,-240 801,-246 795,-252 789,-252"/>
<text text-anchor="middle" x="751.5" y="-237" font-family="sans" font-size="10.00">Crossmap_CADD</text>
<text text-anchor="middle" x="751.5" y="-226" font-family="sans" font-size="10.00">sample: chr7</text>
</g>
<!-- 21&#45;&gt;20 -->
<g id="edge47" class="edge">
<title>21&#45;&gt;20</title>
<path fill="none" stroke="grey" stroke-width="2" d="M788.97,-215.15C807.31,-206.43 829.61,-195.81 849.29,-186.43"/>
<polygon fill="grey" stroke="grey" stroke-width="2" points="850.58,-189.69 858.11,-182.24 847.57,-183.37 850.58,-189.69"/>
</g>
<!-- 22 -->
<g id="node23" class="node">
<title>22</title>
<path fill="none" stroke="#56d8a9" stroke-width="2" stroke-dasharray="5,2" d="M781,-324C781,-324 722,-324 722,-324 716,-324 710,-318 710,-312 710,-312 710,-300 710,-300 710,-294 716,-288 722,-288 722,-288 781,-288 781,-288 787,-288 793,-294 793,-300 793,-300 793,-312 793,-312 793,-318 787,-324 781,-324"/>
<text text-anchor="middle" x="751.5" y="-309" font-family="sans" font-size="10.00">split_chCADD</text>
<text text-anchor="middle" x="751.5" y="-298" font-family="sans" font-size="10.00">sample: 7</text>
</g>
<!-- 22&#45;&gt;21 -->
<g id="edge48" class="edge">
<title>22&#45;&gt;21</title>
<path fill="none" stroke="grey" stroke-width="2" d="M751.5,-287.34C751.5,-280.75 751.5,-273.08 751.5,-265.67"/>
<polygon fill="grey" stroke="grey" stroke-width="2" points="755,-265.93 751.5,-255.93 748,-265.93 755,-265.93"/>
</g>
<!-- 23 -->
<g id="node24" class="node">
<title>23</title>
<path fill="none" stroke="#59d856" stroke-width="2" d="M1032.5,-180C1032.5,-180 972.5,-180 972.5,-180 966.5,-180 960.5,-174 960.5,-168 960.5,-168 960.5,-156 960.5,-156 960.5,-150 966.5,-144 972.5,-144 972.5,-144 1032.5,-144 1032.5,-144 1038.5,-144 1044.5,-150 1044.5,-156 1044.5,-156 1044.5,-168 1044.5,-168 1044.5,-174 1038.5,-180 1032.5,-180"/>
<text text-anchor="middle" x="1002.5" y="-159.5" font-family="sans" font-size="10.00">filter_mapped</text>
</g>
<!-- 23&#45;&gt;1 -->
<g id="edge9" class="edge">
<title>23&#45;&gt;1</title>
<path fill="none" stroke="grey" stroke-width="2" d="M1045.41,-146.04C1048.46,-145.26 1051.51,-144.57 1054.5,-144 1211.73,-114 1704.37,-97.31 1868.04,-92.48"/>
<polygon fill="grey" stroke="grey" stroke-width="2" points="1868.13,-95.98 1878.02,-92.19 1867.92,-88.99 1868.13,-95.98"/>
</g>
<!-- 24 -->
<g id="node25" class="node">
<title>24</title>
<path fill="none" stroke="#afd856" stroke-width="2" d="M906,-252C906,-252 831,-252 831,-252 825,-252 819,-246 819,-240 819,-240 819,-228 819,-228 819,-222 825,-216 831,-216 831,-216 906,-216 906,-216 912,-216 918,-222 918,-228 918,-228 918,-240 918,-240 918,-246 912,-252 906,-252"/>
<text text-anchor="middle" x="868.5" y="-237" font-family="sans" font-size="10.00">Crossmap_CADD</text>
<text text-anchor="middle" x="868.5" y="-226" font-family="sans" font-size="10.00">sample: chr8</text>
</g>
<!-- 24&#45;&gt;23 -->
<g id="edge49" class="edge">
<title>24&#45;&gt;23</title>
<path fill="none" stroke="grey" stroke-width="2" d="M902.66,-215.15C919.2,-206.52 939.28,-196.02 957.09,-186.72"/>
<polygon fill="grey" stroke="grey" stroke-width="2" points="958.48,-189.95 965.72,-182.21 955.23,-183.74 958.48,-189.95"/>
</g>
<!-- 25 -->
<g id="node26" class="node">
<title>25</title>
<path fill="none" stroke="#56d8a9" stroke-width="2" stroke-dasharray="5,2" d="M898,-324C898,-324 839,-324 839,-324 833,-324 827,-318 827,-312 827,-312 827,-300 827,-300 827,-294 833,-288 839,-288 839,-288 898,-288 898,-288 904,-288 910,-294 910,-300 910,-300 910,-312 910,-312 910,-318 904,-324 898,-324"/>
<text text-anchor="middle" x="868.5" y="-309" font-family="sans" font-size="10.00">split_chCADD</text>
<text text-anchor="middle" x="868.5" y="-298" font-family="sans" font-size="10.00">sample: 8</text>
</g>
<!-- 25&#45;&gt;24 -->
<g id="edge50" class="edge">
<title>25&#45;&gt;24</title>
<path fill="none" stroke="grey" stroke-width="2" d="M868.5,-287.34C868.5,-280.75 868.5,-273.08 868.5,-265.67"/>
<polygon fill="grey" stroke="grey" stroke-width="2" points="872,-265.93 868.5,-255.93 865,-265.93 872,-265.93"/>
</g>
<!-- 26 -->
<g id="node27" class="node">
<title>26</title>
<path fill="none" stroke="#59d856" stroke-width="2" d="M1135.5,-180C1135.5,-180 1075.5,-180 1075.5,-180 1069.5,-180 1063.5,-174 1063.5,-168 1063.5,-168 1063.5,-156 1063.5,-156 1063.5,-150 1069.5,-144 1075.5,-144 1075.5,-144 1135.5,-144 1135.5,-144 1141.5,-144 1147.5,-150 1147.5,-156 1147.5,-156 1147.5,-168 1147.5,-168 1147.5,-174 1141.5,-180 1135.5,-180"/>
<text text-anchor="middle" x="1105.5" y="-159.5" font-family="sans" font-size="10.00">filter_mapped</text>
</g>
<!-- 26&#45;&gt;1 -->
<g id="edge10" class="edge">
<title>26&#45;&gt;1</title>
<path fill="none" stroke="grey" stroke-width="2" d="M1148.42,-145.84C1151.14,-145.15 1153.84,-144.53 1156.5,-144 1293.25,-116.92 1718.24,-98.68 1868.34,-92.94"/>
<polygon fill="grey" stroke="grey" stroke-width="2" points="1868.28,-96.44 1878.14,-92.56 1868.01,-89.45 1868.28,-96.44"/>
</g>
<!-- 27 -->
<g id="node28" class="node">
<title>27</title>
<path fill="none" stroke="#afd856" stroke-width="2" d="M1023,-252C1023,-252 948,-252 948,-252 942,-252 936,-246 936,-240 936,-240 936,-228 936,-228 936,-222 942,-216 948,-216 948,-216 1023,-216 1023,-216 1029,-216 1035,-222 1035,-228 1035,-228 1035,-240 1035,-240 1035,-246 1029,-252 1023,-252"/>
<text text-anchor="middle" x="985.5" y="-237" font-family="sans" font-size="10.00">Crossmap_CADD</text>
<text text-anchor="middle" x="985.5" y="-226" font-family="sans" font-size="10.00">sample: chr9</text>
</g>
<!-- 27&#45;&gt;26 -->
<g id="edge51" class="edge">
<title>27&#45;&gt;26</title>
<path fill="none" stroke="grey" stroke-width="2" d="M1016.09,-215.15C1030.62,-206.68 1048.2,-196.42 1063.92,-187.25"/>
<polygon fill="grey" stroke="grey" stroke-width="2" points="1065.48,-190.4 1072.35,-182.34 1061.95,-184.35 1065.48,-190.4"/>
</g>
<!-- 28 -->
<g id="node29" class="node">
<title>28</title>
<path fill="none" stroke="#56d8a9" stroke-width="2" stroke-dasharray="5,2" d="M1015,-324C1015,-324 956,-324 956,-324 950,-324 944,-318 944,-312 944,-312 944,-300 944,-300 944,-294 950,-288 956,-288 956,-288 1015,-288 1015,-288 1021,-288 1027,-294 1027,-300 1027,-300 1027,-312 1027,-312 1027,-318 1021,-324 1015,-324"/>
<text text-anchor="middle" x="985.5" y="-309" font-family="sans" font-size="10.00">split_chCADD</text>
<text text-anchor="middle" x="985.5" y="-298" font-family="sans" font-size="10.00">sample: 9</text>
</g>
<!-- 28&#45;&gt;27 -->
<g id="edge52" class="edge">
<title>28&#45;&gt;27</title>
<path fill="none" stroke="grey" stroke-width="2" d="M985.5,-287.34C985.5,-280.75 985.5,-273.08 985.5,-265.67"/>
<polygon fill="grey" stroke="grey" stroke-width="2" points="989,-265.93 985.5,-255.93 982,-265.93 989,-265.93"/>
</g>
<!-- 29 -->
<g id="node30" class="node">
<title>29</title>
<path fill="none" stroke="#59d856" stroke-width="2" d="M1237.5,-180C1237.5,-180 1177.5,-180 1177.5,-180 1171.5,-180 1165.5,-174 1165.5,-168 1165.5,-168 1165.5,-156 1165.5,-156 1165.5,-150 1171.5,-144 1177.5,-144 1177.5,-144 1237.5,-144 1237.5,-144 1243.5,-144 1249.5,-150 1249.5,-156 1249.5,-156 1249.5,-168 1249.5,-168 1249.5,-174 1243.5,-180 1237.5,-180"/>
<text text-anchor="middle" x="1207.5" y="-159.5" font-family="sans" font-size="10.00">filter_mapped</text>
</g>
<!-- 29&#45;&gt;1 -->
<g id="edge11" class="edge">
<title>29&#45;&gt;1</title>
<path fill="none" stroke="grey" stroke-width="2" d="M1250.43,-145.88C1253.14,-145.18 1255.85,-144.54 1258.5,-144 1481.9,-98.54 1755.06,-91.67 1868.35,-90.91"/>
<polygon fill="grey" stroke="grey" stroke-width="2" points="1868.04,-94.42 1878.02,-90.87 1868,-87.42 1868.04,-94.42"/>
</g>
<!-- 30 -->
<g id="node31" class="node">
<title>30</title>
<path fill="none" stroke="#afd856" stroke-width="2" d="M1140,-252C1140,-252 1065,-252 1065,-252 1059,-252 1053,-246 1053,-240 1053,-240 1053,-228 1053,-228 1053,-222 1059,-216 1065,-216 1065,-216 1140,-216 1140,-216 1146,-216 1152,-222 1152,-228 1152,-228 1152,-240 1152,-240 1152,-246 1146,-252 1140,-252"/>
<text text-anchor="middle" x="1102.5" y="-237" font-family="sans" font-size="10.00">Crossmap_CADD</text>
<text text-anchor="middle" x="1102.5" y="-226" font-family="sans" font-size="10.00">sample: chr10</text>
</g>
<!-- 30&#45;&gt;29 -->
<g id="edge53" class="edge">
<title>30&#45;&gt;29</title>
<path fill="none" stroke="grey" stroke-width="2" d="M1129.27,-215.15C1141.73,-206.84 1156.77,-196.82 1170.32,-187.79"/>
<polygon fill="grey" stroke="grey" stroke-width="2" points="1171.88,-190.95 1178.26,-182.49 1168,-185.13 1171.88,-190.95"/>
</g>
<!-- 31 -->
<g id="node32" class="node">
<title>31</title>
<path fill="none" stroke="#56d8a9" stroke-width="2" stroke-dasharray="5,2" d="M1132,-324C1132,-324 1073,-324 1073,-324 1067,-324 1061,-318 1061,-312 1061,-312 1061,-300 1061,-300 1061,-294 1067,-288 1073,-288 1073,-288 1132,-288 1132,-288 1138,-288 1144,-294 1144,-300 1144,-300 1144,-312 1144,-312 1144,-318 1138,-324 1132,-324"/>
<text text-anchor="middle" x="1102.5" y="-309" font-family="sans" font-size="10.00">split_chCADD</text>
<text text-anchor="middle" x="1102.5" y="-298" font-family="sans" font-size="10.00">sample: 10</text>
</g>
<!-- 31&#45;&gt;30 -->
<g id="edge54" class="edge">
<title>31&#45;&gt;30</title>
<path fill="none" stroke="grey" stroke-width="2" d="M1102.5,-287.34C1102.5,-280.75 1102.5,-273.08 1102.5,-265.67"/>
<polygon fill="grey" stroke="grey" stroke-width="2" points="1106,-265.93 1102.5,-255.93 1099,-265.93 1106,-265.93"/>
</g>
<!-- 32 -->
<g id="node33" class="node">
<title>32</title>
<path fill="none" stroke="#59d856" stroke-width="2" d="M1339.5,-180C1339.5,-180 1279.5,-180 1279.5,-180 1273.5,-180 1267.5,-174 1267.5,-168 1267.5,-168 1267.5,-156 1267.5,-156 1267.5,-150 1273.5,-144 1279.5,-144 1279.5,-144 1339.5,-144 1339.5,-144 1345.5,-144 1351.5,-150 1351.5,-156 1351.5,-156 1351.5,-168 1351.5,-168 1351.5,-174 1345.5,-180 1339.5,-180"/>
<text text-anchor="middle" x="1309.5" y="-159.5" font-family="sans" font-size="10.00">filter_mapped</text>
</g>
<!-- 32&#45;&gt;1 -->
<g id="edge12" class="edge">
<title>32&#45;&gt;1</title>
<path fill="none" stroke="grey" stroke-width="2" d="M1352.44,-145.92C1355.15,-145.21 1357.85,-144.56 1360.5,-144 1544.4,-105.19 1768.24,-94.78 1868.5,-92"/>
<polygon fill="grey" stroke="grey" stroke-width="2" points="1868.31,-95.51 1878.21,-91.75 1868.13,-88.51 1868.31,-95.51"/>
</g>
<!-- 33 -->
<g id="node34" class="node">
<title>33</title>
<path fill="none" stroke="#afd856" stroke-width="2" d="M1257,-252C1257,-252 1182,-252 1182,-252 1176,-252 1170,-246 1170,-240 1170,-240 1170,-228 1170,-228 1170,-222 1176,-216 1182,-216 1182,-216 1257,-216 1257,-216 1263,-216 1269,-222 1269,-228 1269,-228 1269,-240 1269,-240 1269,-246 1263,-252 1257,-252"/>
<text text-anchor="middle" x="1219.5" y="-237" font-family="sans" font-size="10.00">Crossmap_CADD</text>
<text text-anchor="middle" x="1219.5" y="-226" font-family="sans" font-size="10.00">sample: chr11</text>
</g>
<!-- 33&#45;&gt;32 -->
<g id="edge55" class="edge">
<title>33&#45;&gt;32</title>
<path fill="none" stroke="grey" stroke-width="2" d="M1242.21,-215.34C1252.58,-207.27 1265.05,-197.57 1276.43,-188.72"/>
<polygon fill="grey" stroke="grey" stroke-width="2" points="1278.35,-191.66 1284.09,-182.76 1274.05,-186.14 1278.35,-191.66"/>
</g>
<!-- 34 -->
<g id="node35" class="node">
<title>34</title>
<path fill="none" stroke="#56d8a9" stroke-width="2" stroke-dasharray="5,2" d="M1249,-324C1249,-324 1190,-324 1190,-324 1184,-324 1178,-318 1178,-312 1178,-312 1178,-300 1178,-300 1178,-294 1184,-288 1190,-288 1190,-288 1249,-288 1249,-288 1255,-288 1261,-294 1261,-300 1261,-300 1261,-312 1261,-312 1261,-318 1255,-324 1249,-324"/>
<text text-anchor="middle" x="1219.5" y="-309" font-family="sans" font-size="10.00">split_chCADD</text>
<text text-anchor="middle" x="1219.5" y="-298" font-family="sans" font-size="10.00">sample: 11</text>
</g>
<!-- 34&#45;&gt;33 -->
<g id="edge56" class="edge">
<title>34&#45;&gt;33</title>
<path fill="none" stroke="grey" stroke-width="2" d="M1219.5,-287.34C1219.5,-280.75 1219.5,-273.08 1219.5,-265.67"/>
<polygon fill="grey" stroke="grey" stroke-width="2" points="1223,-265.93 1219.5,-255.93 1216,-265.93 1223,-265.93"/>
</g>
<!-- 35 -->
<g id="node36" class="node">
<title>35</title>
<path fill="none" stroke="#59d856" stroke-width="2" d="M1441.5,-180C1441.5,-180 1381.5,-180 1381.5,-180 1375.5,-180 1369.5,-174 1369.5,-168 1369.5,-168 1369.5,-156 1369.5,-156 1369.5,-150 1375.5,-144 1381.5,-144 1381.5,-144 1441.5,-144 1441.5,-144 1447.5,-144 1453.5,-150 1453.5,-156 1453.5,-156 1453.5,-168 1453.5,-168 1453.5,-174 1447.5,-180 1441.5,-180"/>
<text text-anchor="middle" x="1411.5" y="-159.5" font-family="sans" font-size="10.00">filter_mapped</text>
</g>
<!-- 35&#45;&gt;1 -->
<g id="edge13" class="edge">
<title>35&#45;&gt;1</title>
<path fill="none" stroke="grey" stroke-width="2" d="M1454.45,-145.99C1457.16,-145.26 1459.86,-144.59 1462.5,-144 1607.23,-111.89 1782.21,-98.52 1868.34,-93.57"/>
<polygon fill="grey" stroke="grey" stroke-width="2" points="1868.32,-97.07 1878.11,-93.02 1867.93,-90.08 1868.32,-97.07"/>
</g>
<!-- 36 -->
<g id="node37" class="node">
<title>36</title>
<path fill="none" stroke="#afd856" stroke-width="2" d="M1374,-252C1374,-252 1299,-252 1299,-252 1293,-252 1287,-246 1287,-240 1287,-240 1287,-228 1287,-228 1287,-222 1293,-216 1299,-216 1299,-216 1374,-216 1374,-216 1380,-216 1386,-222 1386,-228 1386,-228 1386,-240 1386,-240 1386,-246 1380,-252 1374,-252"/>
<text text-anchor="middle" x="1336.5" y="-237" font-family="sans" font-size="10.00">Crossmap_CADD</text>
<text text-anchor="middle" x="1336.5" y="-226" font-family="sans" font-size="10.00">sample: chr12</text>
</g>
<!-- 36&#45;&gt;35 -->
<g id="edge57" class="edge">
<title>36&#45;&gt;35</title>
<path fill="none" stroke="grey" stroke-width="2" d="M1355.43,-215.34C1363.8,-207.52 1373.83,-198.16 1383.07,-189.53"/>
<polygon fill="grey" stroke="grey" stroke-width="2" points="1385.18,-192.35 1390.11,-182.97 1380.41,-187.23 1385.18,-192.35"/>
</g>
<!-- 37 -->
<g id="node38" class="node">
<title>37</title>
<path fill="none" stroke="#56d8a9" stroke-width="2" stroke-dasharray="5,2" d="M1366,-324C1366,-324 1307,-324 1307,-324 1301,-324 1295,-318 1295,-312 1295,-312 1295,-300 1295,-300 1295,-294 1301,-288 1307,-288 1307,-288 1366,-288 1366,-288 1372,-288 1378,-294 1378,-300 1378,-300 1378,-312 1378,-312 1378,-318 1372,-324 1366,-324"/>
<text text-anchor="middle" x="1336.5" y="-309" font-family="sans" font-size="10.00">split_chCADD</text>
<text text-anchor="middle" x="1336.5" y="-298" font-family="sans" font-size="10.00">sample: 12</text>
</g>
<!-- 37&#45;&gt;36 -->
<g id="edge58" class="edge">
<title>37&#45;&gt;36</title>
<path fill="none" stroke="grey" stroke-width="2" d="M1336.5,-287.34C1336.5,-280.75 1336.5,-273.08 1336.5,-265.67"/>
<polygon fill="grey" stroke="grey" stroke-width="2" points="1340,-265.93 1336.5,-255.93 1333,-265.93 1340,-265.93"/>
</g>
<!-- 38 -->
<g id="node39" class="node">
<title>38</title>
<path fill="none" stroke="#59d856" stroke-width="2" d="M1543.5,-180C1543.5,-180 1483.5,-180 1483.5,-180 1477.5,-180 1471.5,-174 1471.5,-168 1471.5,-168 1471.5,-156 1471.5,-156 1471.5,-150 1477.5,-144 1483.5,-144 1483.5,-144 1543.5,-144 1543.5,-144 1549.5,-144 1555.5,-150 1555.5,-156 1555.5,-156 1555.5,-168 1555.5,-168 1555.5,-174 1549.5,-180 1543.5,-180"/>
<text text-anchor="middle" x="1513.5" y="-159.5" font-family="sans" font-size="10.00">filter_mapped</text>
</g>
<!-- 38&#45;&gt;1 -->
<g id="edge14" class="edge">
<title>38&#45;&gt;1</title>
<path fill="none" stroke="grey" stroke-width="2" d="M1556.48,-146.09C1559.18,-145.33 1561.87,-144.63 1564.5,-144 1670.85,-118.59 1798.09,-103.19 1868.33,-95.97"/>
<polygon fill="grey" stroke="grey" stroke-width="2" points="1868.57,-99.46 1878.17,-94.98 1867.87,-92.5 1868.57,-99.46"/>
</g>
<!-- 39 -->
<g id="node40" class="node">
<title>39</title>
<path fill="none" stroke="#afd856" stroke-width="2" d="M1491,-252C1491,-252 1416,-252 1416,-252 1410,-252 1404,-246 1404,-240 1404,-240 1404,-228 1404,-228 1404,-222 1410,-216 1416,-216 1416,-216 1491,-216 1491,-216 1497,-216 1503,-222 1503,-228 1503,-228 1503,-240 1503,-240 1503,-246 1497,-252 1491,-252"/>
<text text-anchor="middle" x="1453.5" y="-237" font-family="sans" font-size="10.00">Crossmap_CADD</text>
<text text-anchor="middle" x="1453.5" y="-226" font-family="sans" font-size="10.00">sample: chr13</text>
</g>
<!-- 39&#45;&gt;38 -->
<g id="edge59" class="edge">
<title>39&#45;&gt;38</title>
<path fill="none" stroke="grey" stroke-width="2" d="M1468.64,-215.34C1475.06,-207.85 1482.69,-198.95 1489.82,-190.63"/>
<polygon fill="grey" stroke="grey" stroke-width="2" points="1492.34,-193.07 1496.19,-183.2 1487.02,-188.51 1492.34,-193.07"/>
</g>
<!-- 40 -->
<g id="node41" class="node">
<title>40</title>
<path fill="none" stroke="#56d8a9" stroke-width="2" stroke-dasharray="5,2" d="M1483,-324C1483,-324 1424,-324 1424,-324 1418,-324 1412,-318 1412,-312 1412,-312 1412,-300 1412,-300 1412,-294 1418,-288 1424,-288 1424,-288 1483,-288 1483,-288 1489,-288 1495,-294 1495,-300 1495,-300 1495,-312 1495,-312 1495,-318 1489,-324 1483,-324"/>
<text text-anchor="middle" x="1453.5" y="-309" font-family="sans" font-size="10.00">split_chCADD</text>
<text text-anchor="middle" x="1453.5" y="-298" font-family="sans" font-size="10.00">sample: 13</text>
</g>
<!-- 40&#45;&gt;39 -->
<g id="edge60" class="edge">
<title>40&#45;&gt;39</title>
<path fill="none" stroke="grey" stroke-width="2" d="M1453.5,-287.34C1453.5,-280.75 1453.5,-273.08 1453.5,-265.67"/>
<polygon fill="grey" stroke="grey" stroke-width="2" points="1457,-265.93 1453.5,-255.93 1450,-265.93 1457,-265.93"/>
</g>
<!-- 41 -->
<g id="node42" class="node">
<title>41</title>
<path fill="none" stroke="#59d856" stroke-width="2" d="M1645.5,-180C1645.5,-180 1585.5,-180 1585.5,-180 1579.5,-180 1573.5,-174 1573.5,-168 1573.5,-168 1573.5,-156 1573.5,-156 1573.5,-150 1579.5,-144 1585.5,-144 1585.5,-144 1645.5,-144 1645.5,-144 1651.5,-144 1657.5,-150 1657.5,-156 1657.5,-156 1657.5,-168 1657.5,-168 1657.5,-174 1651.5,-180 1645.5,-180"/>
<text text-anchor="middle" x="1615.5" y="-159.5" font-family="sans" font-size="10.00">filter_mapped</text>
</g>
<!-- 41&#45;&gt;1 -->
<g id="edge15" class="edge">
<title>41&#45;&gt;1</title>
<path fill="none" stroke="grey" stroke-width="2" d="M1658.24,-146.35C1661.03,-145.52 1663.8,-144.73 1666.5,-144 1735.73,-125.34 1817.02,-109.46 1868.88,-100.08"/>
<polygon fill="grey" stroke="grey" stroke-width="2" points="1869.2,-103.58 1878.43,-98.37 1867.97,-96.69 1869.2,-103.58"/>
</g>
<!-- 42 -->
<g id="node43" class="node">
<title>42</title>
<path fill="none" stroke="#afd856" stroke-width="2" d="M1608,-252C1608,-252 1533,-252 1533,-252 1527,-252 1521,-246 1521,-240 1521,-240 1521,-228 1521,-228 1521,-222 1527,-216 1533,-216 1533,-216 1608,-216 1608,-216 1614,-216 1620,-222 1620,-228 1620,-228 1620,-240 1620,-240 1620,-246 1614,-252 1608,-252"/>
<text text-anchor="middle" x="1570.5" y="-237" font-family="sans" font-size="10.00">Crossmap_CADD</text>
<text text-anchor="middle" x="1570.5" y="-226" font-family="sans" font-size="10.00">sample: chr14</text>
</g>
<!-- 42&#45;&gt;41 -->
<g id="edge61" class="edge">
<title>42&#45;&gt;41</title>
<path fill="none" stroke="grey" stroke-width="2" d="M1581.86,-215.34C1586.46,-208.18 1591.89,-199.73 1597.03,-191.73"/>
<polygon fill="grey" stroke="grey" stroke-width="2" points="1599.89,-193.75 1602.35,-183.45 1594,-189.97 1599.89,-193.75"/>
</g>
<!-- 43 -->
<g id="node44" class="node">
<title>43</title>
<path fill="none" stroke="#56d8a9" stroke-width="2" stroke-dasharray="5,2" d="M1600,-324C1600,-324 1541,-324 1541,-324 1535,-324 1529,-318 1529,-312 1529,-312 1529,-300 1529,-300 1529,-294 1535,-288 1541,-288 1541,-288 1600,-288 1600,-288 1606,-288 1612,-294 1612,-300 1612,-300 1612,-312 1612,-312 1612,-318 1606,-324 1600,-324"/>
<text text-anchor="middle" x="1570.5" y="-309" font-family="sans" font-size="10.00">split_chCADD</text>
<text text-anchor="middle" x="1570.5" y="-298" font-family="sans" font-size="10.00">sample: 14</text>
</g>
<!-- 43&#45;&gt;42 -->
<g id="edge62" class="edge">
<title>43&#45;&gt;42</title>
<path fill="none" stroke="grey" stroke-width="2" d="M1570.5,-287.34C1570.5,-280.75 1570.5,-273.08 1570.5,-265.67"/>
<polygon fill="grey" stroke="grey" stroke-width="2" points="1574,-265.93 1570.5,-255.93 1567,-265.93 1574,-265.93"/>
</g>
<!-- 44 -->
<g id="node45" class="node">
<title>44</title>
<path fill="none" stroke="#59d856" stroke-width="2" d="M1747.5,-180C1747.5,-180 1687.5,-180 1687.5,-180 1681.5,-180 1675.5,-174 1675.5,-168 1675.5,-168 1675.5,-156 1675.5,-156 1675.5,-150 1681.5,-144 1687.5,-144 1687.5,-144 1747.5,-144 1747.5,-144 1753.5,-144 1759.5,-150 1759.5,-156 1759.5,-156 1759.5,-168 1759.5,-168 1759.5,-174 1753.5,-180 1747.5,-180"/>
<text text-anchor="middle" x="1717.5" y="-159.5" font-family="sans" font-size="10.00">filter_mapped</text>
</g>
<!-- 44&#45;&gt;1 -->
<g id="edge16" class="edge">
<title>44&#45;&gt;1</title>
<path fill="none" stroke="grey" stroke-width="2" d="M1760.27,-146.33C1792,-135.44 1835.45,-120.53 1869.24,-108.93"/>
<polygon fill="grey" stroke="grey" stroke-width="2" points="1870.03,-112.36 1878.36,-105.8 1867.76,-105.74 1870.03,-112.36"/>
</g>
<!-- 45 -->
<g id="node46" class="node">
<title>45</title>
<path fill="none" stroke="#afd856" stroke-width="2" d="M1725,-252C1725,-252 1650,-252 1650,-252 1644,-252 1638,-246 1638,-240 1638,-240 1638,-228 1638,-228 1638,-222 1644,-216 1650,-216 1650,-216 1725,-216 1725,-216 1731,-216 1737,-222 1737,-228 1737,-228 1737,-240 1737,-240 1737,-246 1731,-252 1725,-252"/>
<text text-anchor="middle" x="1687.5" y="-237" font-family="sans" font-size="10.00">Crossmap_CADD</text>
<text text-anchor="middle" x="1687.5" y="-226" font-family="sans" font-size="10.00">sample: chr15</text>
</g>
<!-- 45&#45;&gt;44 -->
<g id="edge63" class="edge">
<title>45&#45;&gt;44</title>
<path fill="none" stroke="grey" stroke-width="2" d="M1695.07,-215.34C1698,-208.51 1701.43,-200.5 1704.71,-192.83"/>
<polygon fill="grey" stroke="grey" stroke-width="2" points="1707.91,-194.25 1708.64,-183.68 1701.48,-191.5 1707.91,-194.25"/>
</g>
<!-- 46 -->
<g id="node47" class="node">
<title>46</title>
<path fill="none" stroke="#56d8a9" stroke-width="2" stroke-dasharray="5,2" d="M1717,-324C1717,-324 1658,-324 1658,-324 1652,-324 1646,-318 1646,-312 1646,-312 1646,-300 1646,-300 1646,-294 1652,-288 1658,-288 1658,-288 1717,-288 1717,-288 1723,-288 1729,-294 1729,-300 1729,-300 1729,-312 1729,-312 1729,-318 1723,-324 1717,-324"/>
<text text-anchor="middle" x="1687.5" y="-309" font-family="sans" font-size="10.00">split_chCADD</text>
<text text-anchor="middle" x="1687.5" y="-298" font-family="sans" font-size="10.00">sample: 15</text>
</g>
<!-- 46&#45;&gt;45 -->
<g id="edge64" class="edge">
<title>46&#45;&gt;45</title>
<path fill="none" stroke="grey" stroke-width="2" d="M1687.5,-287.34C1687.5,-280.75 1687.5,-273.08 1687.5,-265.67"/>
<polygon fill="grey" stroke="grey" stroke-width="2" points="1691,-265.93 1687.5,-255.93 1684,-265.93 1691,-265.93"/>
</g>
<!-- 47 -->
<g id="node48" class="node">
<title>47</title>
<path fill="none" stroke="#59d856" stroke-width="2" d="M1849.5,-180C1849.5,-180 1789.5,-180 1789.5,-180 1783.5,-180 1777.5,-174 1777.5,-168 1777.5,-168 1777.5,-156 1777.5,-156 1777.5,-150 1783.5,-144 1789.5,-144 1789.5,-144 1849.5,-144 1849.5,-144 1855.5,-144 1861.5,-150 1861.5,-156 1861.5,-156 1861.5,-168 1861.5,-168 1861.5,-174 1855.5,-180 1849.5,-180"/>
<text text-anchor="middle" x="1819.5" y="-159.5" font-family="sans" font-size="10.00">filter_mapped</text>
</g>
<!-- 47&#45;&gt;1 -->
<g id="edge17" class="edge">
<title>47&#45;&gt;1</title>
<path fill="none" stroke="grey" stroke-width="2" d="M1845.5,-143.15C1857.49,-134.93 1871.93,-125.02 1884.99,-116.06"/>
<polygon fill="grey" stroke="grey" stroke-width="2" points="1886.78,-119.07 1893.05,-110.53 1882.82,-113.3 1886.78,-119.07"/>
</g>
<!-- 48 -->
<g id="node49" class="node">
<title>48</title>
<path fill="none" stroke="#afd856" stroke-width="2" d="M1842,-252C1842,-252 1767,-252 1767,-252 1761,-252 1755,-246 1755,-240 1755,-240 1755,-228 1755,-228 1755,-222 1761,-216 1767,-216 1767,-216 1842,-216 1842,-216 1848,-216 1854,-222 1854,-228 1854,-228 1854,-240 1854,-240 1854,-246 1848,-252 1842,-252"/>
<text text-anchor="middle" x="1804.5" y="-237" font-family="sans" font-size="10.00">Crossmap_CADD</text>
<text text-anchor="middle" x="1804.5" y="-226" font-family="sans" font-size="10.00">sample: chr16</text>
</g>
<!-- 48&#45;&gt;47 -->
<g id="edge65" class="edge">
<title>48&#45;&gt;47</title>
<path fill="none" stroke="grey" stroke-width="2" d="M1808.29,-215.34C1809.71,-208.67 1811.38,-200.89 1812.99,-193.39"/>
<polygon fill="grey" stroke="grey" stroke-width="2" points="1816.36,-194.37 1815.03,-183.86 1809.51,-192.91 1816.36,-194.37"/>
</g>
<!-- 49 -->
<g id="node50" class="node">
<title>49</title>
<path fill="none" stroke="#56d8a9" stroke-width="2" stroke-dasharray="5,2" d="M1834,-324C1834,-324 1775,-324 1775,-324 1769,-324 1763,-318 1763,-312 1763,-312 1763,-300 1763,-300 1763,-294 1769,-288 1775,-288 1775,-288 1834,-288 1834,-288 1840,-288 1846,-294 1846,-300 1846,-300 1846,-312 1846,-312 1846,-318 1840,-324 1834,-324"/>
<text text-anchor="middle" x="1804.5" y="-309" font-family="sans" font-size="10.00">split_chCADD</text>
<text text-anchor="middle" x="1804.5" y="-298" font-family="sans" font-size="10.00">sample: 16</text>
</g>
<!-- 49&#45;&gt;48 -->
<g id="edge66" class="edge">
<title>49&#45;&gt;48</title>
<path fill="none" stroke="grey" stroke-width="2" d="M1804.5,-287.34C1804.5,-280.75 1804.5,-273.08 1804.5,-265.67"/>
<polygon fill="grey" stroke="grey" stroke-width="2" points="1808,-265.93 1804.5,-255.93 1801,-265.93 1808,-265.93"/>
</g>
<!-- 50 -->
<g id="node51" class="node">
<title>50</title>
<path fill="none" stroke="#59d856" stroke-width="2" d="M1951.5,-180C1951.5,-180 1891.5,-180 1891.5,-180 1885.5,-180 1879.5,-174 1879.5,-168 1879.5,-168 1879.5,-156 1879.5,-156 1879.5,-150 1885.5,-144 1891.5,-144 1891.5,-144 1951.5,-144 1951.5,-144 1957.5,-144 1963.5,-150 1963.5,-156 1963.5,-156 1963.5,-168 1963.5,-168 1963.5,-174 1957.5,-180 1951.5,-180"/>
<text text-anchor="middle" x="1921.5" y="-159.5" font-family="sans" font-size="10.00">filter_mapped</text>
</g>
<!-- 50&#45;&gt;1 -->
<g id="edge18" class="edge">
<title>50&#45;&gt;1</title>
<path fill="none" stroke="grey" stroke-width="2" d="M1921.5,-143.34C1921.5,-136.75 1921.5,-129.08 1921.5,-121.67"/>
<polygon fill="grey" stroke="grey" stroke-width="2" points="1925,-121.93 1921.5,-111.93 1918,-121.93 1925,-121.93"/>
</g>
<!-- 51 -->
<g id="node52" class="node">
<title>51</title>
<path fill="none" stroke="#afd856" stroke-width="2" d="M1959,-252C1959,-252 1884,-252 1884,-252 1878,-252 1872,-246 1872,-240 1872,-240 1872,-228 1872,-228 1872,-222 1878,-216 1884,-216 1884,-216 1959,-216 1959,-216 1965,-216 1971,-222 1971,-228 1971,-228 1971,-240 1971,-240 1971,-246 1965,-252 1959,-252"/>
<text text-anchor="middle" x="1921.5" y="-237" font-family="sans" font-size="10.00">Crossmap_CADD</text>
<text text-anchor="middle" x="1921.5" y="-226" font-family="sans" font-size="10.00">sample: chr17</text>
</g>
<!-- 51&#45;&gt;50 -->
<g id="edge67" class="edge">
<title>51&#45;&gt;50</title>
<path fill="none" stroke="grey" stroke-width="2" d="M1921.5,-215.34C1921.5,-208.75 1921.5,-201.08 1921.5,-193.67"/>
<polygon fill="grey" stroke="grey" stroke-width="2" points="1925,-193.93 1921.5,-183.93 1918,-193.93 1925,-193.93"/>
</g>
<!-- 52 -->
<g id="node53" class="node">
<title>52</title>
<path fill="none" stroke="#56d8a9" stroke-width="2" stroke-dasharray="5,2" d="M1951,-324C1951,-324 1892,-324 1892,-324 1886,-324 1880,-318 1880,-312 1880,-312 1880,-300 1880,-300 1880,-294 1886,-288 1892,-288 1892,-288 1951,-288 1951,-288 1957,-288 1963,-294 1963,-300 1963,-300 1963,-312 1963,-312 1963,-318 1957,-324 1951,-324"/>
<text text-anchor="middle" x="1921.5" y="-309" font-family="sans" font-size="10.00">split_chCADD</text>
<text text-anchor="middle" x="1921.5" y="-298" font-family="sans" font-size="10.00">sample: 17</text>
</g>
<!-- 52&#45;&gt;51 -->
<g id="edge68" class="edge">
<title>52&#45;&gt;51</title>
<path fill="none" stroke="grey" stroke-width="2" d="M1921.5,-287.34C1921.5,-280.75 1921.5,-273.08 1921.5,-265.67"/>
<polygon fill="grey" stroke="grey" stroke-width="2" points="1925,-265.93 1921.5,-255.93 1918,-265.93 1925,-265.93"/>
</g>
<!-- 53 -->
<g id="node54" class="node">
<title>53</title>
<path fill="none" stroke="#59d856" stroke-width="2" d="M2060.5,-180C2060.5,-180 2000.5,-180 2000.5,-180 1994.5,-180 1988.5,-174 1988.5,-168 1988.5,-168 1988.5,-156 1988.5,-156 1988.5,-150 1994.5,-144 2000.5,-144 2000.5,-144 2060.5,-144 2060.5,-144 2066.5,-144 2072.5,-150 2072.5,-156 2072.5,-156 2072.5,-168 2072.5,-168 2072.5,-174 2066.5,-180 2060.5,-180"/>
<text text-anchor="middle" x="2030.5" y="-159.5" font-family="sans" font-size="10.00">filter_mapped</text>
</g>
<!-- 53&#45;&gt;1 -->
<g id="edge19" class="edge">
<title>53&#45;&gt;1</title>
<path fill="none" stroke="grey" stroke-width="2" d="M2002.71,-143.15C1989.77,-134.84 1974.16,-124.82 1960.1,-115.79"/>
<polygon fill="grey" stroke="grey" stroke-width="2" points="1962.09,-112.91 1951.78,-110.45 1958.31,-118.8 1962.09,-112.91"/>
</g>
<!-- 54 -->
<g id="node55" class="node">
<title>54</title>
<path fill="none" stroke="#afd856" stroke-width="2" d="M2076,-252C2076,-252 2001,-252 2001,-252 1995,-252 1989,-246 1989,-240 1989,-240 1989,-228 1989,-228 1989,-222 1995,-216 2001,-216 2001,-216 2076,-216 2076,-216 2082,-216 2088,-222 2088,-228 2088,-228 2088,-240 2088,-240 2088,-246 2082,-252 2076,-252"/>
<text text-anchor="middle" x="2038.5" y="-237" font-family="sans" font-size="10.00">Crossmap_CADD</text>
<text text-anchor="middle" x="2038.5" y="-226" font-family="sans" font-size="10.00">sample: chr18</text>
</g>
<!-- 54&#45;&gt;53 -->
<g id="edge69" class="edge">
<title>54&#45;&gt;53</title>
<path fill="none" stroke="grey" stroke-width="2" d="M2036.48,-215.34C2035.73,-208.75 2034.85,-201.08 2034,-193.67"/>
<polygon fill="grey" stroke="grey" stroke-width="2" points="2037.5,-193.45 2032.89,-183.91 2030.55,-194.24 2037.5,-193.45"/>
</g>
<!-- 55 -->
<g id="node56" class="node">
<title>55</title>
<path fill="none" stroke="#56d8a9" stroke-width="2" stroke-dasharray="5,2" d="M2068,-324C2068,-324 2009,-324 2009,-324 2003,-324 1997,-318 1997,-312 1997,-312 1997,-300 1997,-300 1997,-294 2003,-288 2009,-288 2009,-288 2068,-288 2068,-288 2074,-288 2080,-294 2080,-300 2080,-300 2080,-312 2080,-312 2080,-318 2074,-324 2068,-324"/>
<text text-anchor="middle" x="2038.5" y="-309" font-family="sans" font-size="10.00">split_chCADD</text>
<text text-anchor="middle" x="2038.5" y="-298" font-family="sans" font-size="10.00">sample: 18</text>
</g>
<!-- 55&#45;&gt;54 -->
<g id="edge70" class="edge">
<title>55&#45;&gt;54</title>
<path fill="none" stroke="grey" stroke-width="2" d="M2038.5,-287.34C2038.5,-280.75 2038.5,-273.08 2038.5,-265.67"/>
<polygon fill="grey" stroke="grey" stroke-width="2" points="2042,-265.93 2038.5,-255.93 2035,-265.93 2042,-265.93"/>
</g>
<!-- 56 -->
<g id="node57" class="node">
<title>56</title>
<path fill="none" stroke="#59d856" stroke-width="2" d="M2173.5,-180C2173.5,-180 2113.5,-180 2113.5,-180 2107.5,-180 2101.5,-174 2101.5,-168 2101.5,-168 2101.5,-156 2101.5,-156 2101.5,-150 2107.5,-144 2113.5,-144 2113.5,-144 2173.5,-144 2173.5,-144 2179.5,-144 2185.5,-150 2185.5,-156 2185.5,-156 2185.5,-168 2185.5,-168 2185.5,-174 2179.5,-180 2173.5,-180"/>
<text text-anchor="middle" x="2143.5" y="-159.5" font-family="sans" font-size="10.00">filter_mapped</text>
</g>
<!-- 56&#45;&gt;1 -->
<g id="edge20" class="edge">
<title>56&#45;&gt;1</title>
<path fill="none" stroke="grey" stroke-width="2" d="M2100.7,-147.5C2064.62,-136.13 2012.85,-119.8 1974.23,-107.63"/>
<polygon fill="grey" stroke="grey" stroke-width="2" points="1975.4,-104.33 1964.81,-104.66 1973.3,-111 1975.4,-104.33"/>
</g>
<!-- 57 -->
<g id="node58" class="node">
<title>57</title>
<path fill="none" stroke="#afd856" stroke-width="2" d="M2193,-252C2193,-252 2118,-252 2118,-252 2112,-252 2106,-246 2106,-240 2106,-240 2106,-228 2106,-228 2106,-222 2112,-216 2118,-216 2118,-216 2193,-216 2193,-216 2199,-216 2205,-222 2205,-228 2205,-228 2205,-240 2205,-240 2205,-246 2199,-252 2193,-252"/>
<text text-anchor="middle" x="2155.5" y="-237" font-family="sans" font-size="10.00">Crossmap_CADD</text>
<text text-anchor="middle" x="2155.5" y="-226" font-family="sans" font-size="10.00">sample: chr19</text>
</g>
<!-- 57&#45;&gt;56 -->
<g id="edge71" class="edge">
<title>57&#45;&gt;56</title>
<path fill="none" stroke="grey" stroke-width="2" d="M2152.47,-215.34C2151.34,-208.75 2150.03,-201.08 2148.76,-193.67"/>
<polygon fill="grey" stroke="grey" stroke-width="2" points="2152.22,-193.15 2147.08,-183.89 2145.32,-194.33 2152.22,-193.15"/>
</g>
<!-- 58 -->
<g id="node59" class="node">
<title>58</title>
<path fill="none" stroke="#56d8a9" stroke-width="2" stroke-dasharray="5,2" d="M2185,-324C2185,-324 2126,-324 2126,-324 2120,-324 2114,-318 2114,-312 2114,-312 2114,-300 2114,-300 2114,-294 2120,-288 2126,-288 2126,-288 2185,-288 2185,-288 2191,-288 2197,-294 2197,-300 2197,-300 2197,-312 2197,-312 2197,-318 2191,-324 2185,-324"/>
<text text-anchor="middle" x="2155.5" y="-309" font-family="sans" font-size="10.00">split_chCADD</text>
<text text-anchor="middle" x="2155.5" y="-298" font-family="sans" font-size="10.00">sample: 19</text>
</g>
<!-- 58&#45;&gt;57 -->
<g id="edge72" class="edge">
<title>58&#45;&gt;57</title>
<path fill="none" stroke="grey" stroke-width="2" d="M2155.5,-287.34C2155.5,-280.75 2155.5,-273.08 2155.5,-265.67"/>
<polygon fill="grey" stroke="grey" stroke-width="2" points="2159,-265.93 2155.5,-255.93 2152,-265.93 2159,-265.93"/>
</g>
<!-- 59 -->
<g id="node60" class="node">
<title>59</title>
<path fill="none" stroke="#59d856" stroke-width="2" d="M2288.5,-180C2288.5,-180 2228.5,-180 2228.5,-180 2222.5,-180 2216.5,-174 2216.5,-168 2216.5,-168 2216.5,-156 2216.5,-156 2216.5,-150 2222.5,-144 2228.5,-144 2228.5,-144 2288.5,-144 2288.5,-144 2294.5,-144 2300.5,-150 2300.5,-156 2300.5,-156 2300.5,-168 2300.5,-168 2300.5,-174 2294.5,-180 2288.5,-180"/>
<text text-anchor="middle" x="2258.5" y="-159.5" font-family="sans" font-size="10.00">filter_mapped</text>
</g>
<!-- 59&#45;&gt;1 -->
<g id="edge21" class="edge">
<title>59&#45;&gt;1</title>
<path fill="none" stroke="grey" stroke-width="2" d="M2215.57,-149.17C2208.55,-147.36 2201.33,-145.57 2194.5,-144 2118.48,-126.55 2029.69,-110.01 1974.52,-100.19"/>
<polygon fill="grey" stroke="grey" stroke-width="2" points="1975.36,-96.79 1964.9,-98.49 1974.14,-103.68 1975.36,-96.79"/>
</g>
<!-- 60 -->
<g id="node61" class="node">
<title>60</title>
<path fill="none" stroke="#afd856" stroke-width="2" d="M2310,-252C2310,-252 2235,-252 2235,-252 2229,-252 2223,-246 2223,-240 2223,-240 2223,-228 2223,-228 2223,-222 2229,-216 2235,-216 2235,-216 2310,-216 2310,-216 2316,-216 2322,-222 2322,-228 2322,-228 2322,-240 2322,-240 2322,-246 2316,-252 2310,-252"/>
<text text-anchor="middle" x="2272.5" y="-237" font-family="sans" font-size="10.00">Crossmap_CADD</text>
<text text-anchor="middle" x="2272.5" y="-226" font-family="sans" font-size="10.00">sample: chr20</text>
</g>
<!-- 60&#45;&gt;59 -->
<g id="edge73" class="edge">
<title>60&#45;&gt;59</title>
<path fill="none" stroke="grey" stroke-width="2" d="M2268.97,-215.34C2267.65,-208.75 2266.12,-201.08 2264.63,-193.67"/>
<polygon fill="grey" stroke="grey" stroke-width="2" points="2268.07,-192.99 2262.67,-183.87 2261.2,-194.36 2268.07,-192.99"/>
</g>
<!-- 61 -->
<g id="node62" class="node">
<title>61</title>
<path fill="none" stroke="#56d8a9" stroke-width="2" stroke-dasharray="5,2" d="M2302,-324C2302,-324 2243,-324 2243,-324 2237,-324 2231,-318 2231,-312 2231,-312 2231,-300 2231,-300 2231,-294 2237,-288 2243,-288 2243,-288 2302,-288 2302,-288 2308,-288 2314,-294 2314,-300 2314,-300 2314,-312 2314,-312 2314,-318 2308,-324 2302,-324"/>
<text text-anchor="middle" x="2272.5" y="-309" font-family="sans" font-size="10.00">split_chCADD</text>
<text text-anchor="middle" x="2272.5" y="-298" font-family="sans" font-size="10.00">sample: 20</text>
</g>
<!-- 61&#45;&gt;60 -->
<g id="edge74" class="edge">
<title>61&#45;&gt;60</title>
<path fill="none" stroke="grey" stroke-width="2" d="M2272.5,-287.34C2272.5,-280.75 2272.5,-273.08 2272.5,-265.67"/>
<polygon fill="grey" stroke="grey" stroke-width="2" points="2276,-265.93 2272.5,-255.93 2269,-265.93 2276,-265.93"/>
</g>
<!-- 62 -->
<g id="node63" class="node">
<title>62</title>
<path fill="none" stroke="#59d856" stroke-width="2" d="M2404.5,-180C2404.5,-180 2344.5,-180 2344.5,-180 2338.5,-180 2332.5,-174 2332.5,-168 2332.5,-168 2332.5,-156 2332.5,-156 2332.5,-150 2338.5,-144 2344.5,-144 2344.5,-144 2404.5,-144 2404.5,-144 2410.5,-144 2416.5,-150 2416.5,-156 2416.5,-156 2416.5,-168 2416.5,-168 2416.5,-174 2410.5,-180 2404.5,-180"/>
<text text-anchor="middle" x="2374.5" y="-159.5" font-family="sans" font-size="10.00">filter_mapped</text>
</g>
<!-- 62&#45;&gt;1 -->
<g id="edge22" class="edge">
<title>62&#45;&gt;1</title>
<path fill="none" stroke="grey" stroke-width="2" d="M2331.66,-149.02C2324.31,-147.19 2316.71,-145.43 2309.5,-144 2190.91,-120.48 2049.86,-104.06 1974.77,-96.23"/>
<polygon fill="grey" stroke="grey" stroke-width="2" points="1975.3,-92.76 1964.99,-95.22 1974.58,-99.73 1975.3,-92.76"/>
</g>
<!-- 63 -->
<g id="node64" class="node">
<title>63</title>
<path fill="none" stroke="#afd856" stroke-width="2" d="M2427,-252C2427,-252 2352,-252 2352,-252 2346,-252 2340,-246 2340,-240 2340,-240 2340,-228 2340,-228 2340,-222 2346,-216 2352,-216 2352,-216 2427,-216 2427,-216 2433,-216 2439,-222 2439,-228 2439,-228 2439,-240 2439,-240 2439,-246 2433,-252 2427,-252"/>
<text text-anchor="middle" x="2389.5" y="-237" font-family="sans" font-size="10.00">Crossmap_CADD</text>
<text text-anchor="middle" x="2389.5" y="-226" font-family="sans" font-size="10.00">sample: chr21</text>
</g>
<!-- 63&#45;&gt;62 -->
<g id="edge75" class="edge">
<title>63&#45;&gt;62</title>
<path fill="none" stroke="grey" stroke-width="2" d="M2385.71,-215.34C2384.29,-208.67 2382.62,-200.89 2381.01,-193.39"/>
<polygon fill="grey" stroke="grey" stroke-width="2" points="2384.49,-192.91 2378.97,-183.86 2377.64,-194.37 2384.49,-192.91"/>
</g>
<!-- 64 -->
<g id="node65" class="node">
<title>64</title>
<path fill="none" stroke="#56d8a9" stroke-width="2" stroke-dasharray="5,2" d="M2419,-324C2419,-324 2360,-324 2360,-324 2354,-324 2348,-318 2348,-312 2348,-312 2348,-300 2348,-300 2348,-294 2354,-288 2360,-288 2360,-288 2419,-288 2419,-288 2425,-288 2431,-294 2431,-300 2431,-300 2431,-312 2431,-312 2431,-318 2425,-324 2419,-324"/>
<text text-anchor="middle" x="2389.5" y="-309" font-family="sans" font-size="10.00">split_chCADD</text>
<text text-anchor="middle" x="2389.5" y="-298" font-family="sans" font-size="10.00">sample: 21</text>
</g>
<!-- 64&#45;&gt;63 -->
<g id="edge76" class="edge">
<title>64&#45;&gt;63</title>
<path fill="none" stroke="grey" stroke-width="2" d="M2389.5,-287.34C2389.5,-280.75 2389.5,-273.08 2389.5,-265.67"/>
<polygon fill="grey" stroke="grey" stroke-width="2" points="2393,-265.93 2389.5,-255.93 2386,-265.93 2393,-265.93"/>
</g>
<!-- 65 -->
<g id="node66" class="node">
<title>65</title>
<path fill="none" stroke="#59d856" stroke-width="2" d="M2521.5,-180C2521.5,-180 2461.5,-180 2461.5,-180 2455.5,-180 2449.5,-174 2449.5,-168 2449.5,-168 2449.5,-156 2449.5,-156 2449.5,-150 2455.5,-144 2461.5,-144 2461.5,-144 2521.5,-144 2521.5,-144 2527.5,-144 2533.5,-150 2533.5,-156 2533.5,-156 2533.5,-168 2533.5,-168 2533.5,-174 2527.5,-180 2521.5,-180"/>
<text text-anchor="middle" x="2491.5" y="-159.5" font-family="sans" font-size="10.00">filter_mapped</text>
</g>
<!-- 65&#45;&gt;1 -->
<g id="edge23" class="edge">
<title>65&#45;&gt;1</title>
<path fill="none" stroke="grey" stroke-width="2" d="M2448.74,-149.01C2441.05,-147.13 2433.07,-145.37 2425.5,-144 2262.72,-114.64 2067.2,-99.82 1974.83,-94.02"/>
<polygon fill="grey" stroke="grey" stroke-width="2" points="1975.18,-90.53 1964.99,-93.41 1974.75,-97.52 1975.18,-90.53"/>
</g>
<!-- 66 -->
<g id="node67" class="node">
<title>66</title>
<path fill="none" stroke="#afd856" stroke-width="2" d="M2544,-252C2544,-252 2469,-252 2469,-252 2463,-252 2457,-246 2457,-240 2457,-240 2457,-228 2457,-228 2457,-222 2463,-216 2469,-216 2469,-216 2544,-216 2544,-216 2550,-216 2556,-222 2556,-228 2556,-228 2556,-240 2556,-240 2556,-246 2550,-252 2544,-252"/>
<text text-anchor="middle" x="2506.5" y="-237" font-family="sans" font-size="10.00">Crossmap_CADD</text>
<text text-anchor="middle" x="2506.5" y="-226" font-family="sans" font-size="10.00">sample: chr22</text>
</g>
<!-- 66&#45;&gt;65 -->
<g id="edge77" class="edge">
<title>66&#45;&gt;65</title>
<path fill="none" stroke="grey" stroke-width="2" d="M2502.71,-215.34C2501.29,-208.67 2499.62,-200.89 2498.01,-193.39"/>
<polygon fill="grey" stroke="grey" stroke-width="2" points="2501.49,-192.91 2495.97,-183.86 2494.64,-194.37 2501.49,-192.91"/>
</g>
<!-- 67 -->
<g id="node68" class="node">
<title>67</title>
<path fill="none" stroke="#56d8a9" stroke-width="2" stroke-dasharray="5,2" d="M2536,-324C2536,-324 2477,-324 2477,-324 2471,-324 2465,-318 2465,-312 2465,-312 2465,-300 2465,-300 2465,-294 2471,-288 2477,-288 2477,-288 2536,-288 2536,-288 2542,-288 2548,-294 2548,-300 2548,-300 2548,-312 2548,-312 2548,-318 2542,-324 2536,-324"/>
<text text-anchor="middle" x="2506.5" y="-309" font-family="sans" font-size="10.00">split_chCADD</text>
<text text-anchor="middle" x="2506.5" y="-298" font-family="sans" font-size="10.00">sample: 22</text>
</g>
<!-- 67&#45;&gt;66 -->
<g id="edge78" class="edge">
<title>67&#45;&gt;66</title>
<path fill="none" stroke="grey" stroke-width="2" d="M2506.5,-287.34C2506.5,-280.75 2506.5,-273.08 2506.5,-265.67"/>
<polygon fill="grey" stroke="grey" stroke-width="2" points="2510,-265.93 2506.5,-255.93 2503,-265.93 2510,-265.93"/>
</g>
<!-- 68 -->
<g id="node69" class="node">
<title>68</title>
<path fill="none" stroke="#59d856" stroke-width="2" d="M2638.5,-180C2638.5,-180 2578.5,-180 2578.5,-180 2572.5,-180 2566.5,-174 2566.5,-168 2566.5,-168 2566.5,-156 2566.5,-156 2566.5,-150 2572.5,-144 2578.5,-144 2578.5,-144 2638.5,-144 2638.5,-144 2644.5,-144 2650.5,-150 2650.5,-156 2650.5,-156 2650.5,-168 2650.5,-168 2650.5,-174 2644.5,-180 2638.5,-180"/>
<text text-anchor="middle" x="2608.5" y="-159.5" font-family="sans" font-size="10.00">filter_mapped</text>
</g>
<!-- 68&#45;&gt;1 -->
<g id="edge24" class="edge">
<title>68&#45;&gt;1</title>
<path fill="none" stroke="grey" stroke-width="2" d="M2565.77,-148.89C2558.07,-147.02 2550.08,-145.29 2542.5,-144 2334.12,-108.53 2082.15,-96.33 1974.46,-92.54"/>
<polygon fill="grey" stroke="grey" stroke-width="2" points="1974.89,-89.05 1964.78,-92.21 1974.65,-96.05 1974.89,-89.05"/>
</g>
<!-- 69 -->
<g id="node70" class="node">
<title>69</title>
<path fill="none" stroke="#afd856" stroke-width="2" d="M2661,-252C2661,-252 2586,-252 2586,-252 2580,-252 2574,-246 2574,-240 2574,-240 2574,-228 2574,-228 2574,-222 2580,-216 2586,-216 2586,-216 2661,-216 2661,-216 2667,-216 2673,-222 2673,-228 2673,-228 2673,-240 2673,-240 2673,-246 2667,-252 2661,-252"/>
<text text-anchor="middle" x="2623.5" y="-237" font-family="sans" font-size="10.00">Crossmap_CADD</text>
<text text-anchor="middle" x="2623.5" y="-226" font-family="sans" font-size="10.00">sample: chr23</text>
</g>
<!-- 69&#45;&gt;68 -->
<g id="edge79" class="edge">
<title>69&#45;&gt;68</title>
<path fill="none" stroke="grey" stroke-width="2" d="M2619.71,-215.34C2618.29,-208.67 2616.62,-200.89 2615.01,-193.39"/>
<polygon fill="grey" stroke="grey" stroke-width="2" points="2618.49,-192.91 2612.97,-183.86 2611.64,-194.37 2618.49,-192.91"/>
</g>
<!-- 70 -->
<g id="node71" class="node">
<title>70</title>
<path fill="none" stroke="#56d8a9" stroke-width="2" stroke-dasharray="5,2" d="M2653,-324C2653,-324 2594,-324 2594,-324 2588,-324 2582,-318 2582,-312 2582,-312 2582,-300 2582,-300 2582,-294 2588,-288 2594,-288 2594,-288 2653,-288 2653,-288 2659,-288 2665,-294 2665,-300 2665,-300 2665,-312 2665,-312 2665,-318 2659,-324 2653,-324"/>
<text text-anchor="middle" x="2623.5" y="-309" font-family="sans" font-size="10.00">split_chCADD</text>
<text text-anchor="middle" x="2623.5" y="-298" font-family="sans" font-size="10.00">sample: 23</text>
</g>
<!-- 70&#45;&gt;69 -->
<g id="edge80" class="edge">
<title>70&#45;&gt;69</title>
<path fill="none" stroke="grey" stroke-width="2" d="M2623.5,-287.34C2623.5,-280.75 2623.5,-273.08 2623.5,-265.67"/>
<polygon fill="grey" stroke="grey" stroke-width="2" points="2627,-265.93 2623.5,-255.93 2620,-265.93 2627,-265.93"/>
</g>
<!-- 71 -->
<g id="node72" class="node">
<title>71</title>
<path fill="none" stroke="#59d856" stroke-width="2" d="M2755.5,-180C2755.5,-180 2695.5,-180 2695.5,-180 2689.5,-180 2683.5,-174 2683.5,-168 2683.5,-168 2683.5,-156 2683.5,-156 2683.5,-150 2689.5,-144 2695.5,-144 2695.5,-144 2755.5,-144 2755.5,-144 2761.5,-144 2767.5,-150 2767.5,-156 2767.5,-156 2767.5,-168 2767.5,-168 2767.5,-174 2761.5,-180 2755.5,-180"/>
<text text-anchor="middle" x="2725.5" y="-159.5" font-family="sans" font-size="10.00">filter_mapped</text>
</g>
<!-- 71&#45;&gt;1 -->
<g id="edge25" class="edge">
<title>71&#45;&gt;1</title>
<path fill="none" stroke="grey" stroke-width="2" d="M2682.78,-148.8C2675.08,-146.95 2667.09,-145.24 2659.5,-144 2405.34,-102.49 2096.64,-93.49 1974.71,-91.54"/>
<polygon fill="grey" stroke="grey" stroke-width="2" points="1974.87,-88.04 1964.82,-91.39 1974.77,-95.04 1974.87,-88.04"/>
</g>
<!-- 72 -->
<g id="node73" class="node">
<title>72</title>
<path fill="none" stroke="#afd856" stroke-width="2" d="M2778,-252C2778,-252 2703,-252 2703,-252 2697,-252 2691,-246 2691,-240 2691,-240 2691,-228 2691,-228 2691,-222 2697,-216 2703,-216 2703,-216 2778,-216 2778,-216 2784,-216 2790,-222 2790,-228 2790,-228 2790,-240 2790,-240 2790,-246 2784,-252 2778,-252"/>
<text text-anchor="middle" x="2740.5" y="-237" font-family="sans" font-size="10.00">Crossmap_CADD</text>
<text text-anchor="middle" x="2740.5" y="-226" font-family="sans" font-size="10.00">sample: chr24</text>
</g>
<!-- 72&#45;&gt;71 -->
<g id="edge81" class="edge">
<title>72&#45;&gt;71</title>
<path fill="none" stroke="grey" stroke-width="2" d="M2736.71,-215.34C2735.29,-208.67 2733.62,-200.89 2732.01,-193.39"/>
<polygon fill="grey" stroke="grey" stroke-width="2" points="2735.49,-192.91 2729.97,-183.86 2728.64,-194.37 2735.49,-192.91"/>
</g>
<!-- 73 -->
<g id="node74" class="node">
<title>73</title>
<path fill="none" stroke="#56d8a9" stroke-width="2" stroke-dasharray="5,2" d="M2770,-324C2770,-324 2711,-324 2711,-324 2705,-324 2699,-318 2699,-312 2699,-312 2699,-300 2699,-300 2699,-294 2705,-288 2711,-288 2711,-288 2770,-288 2770,-288 2776,-288 2782,-294 2782,-300 2782,-300 2782,-312 2782,-312 2782,-318 2776,-324 2770,-324"/>
<text text-anchor="middle" x="2740.5" y="-309" font-family="sans" font-size="10.00">split_chCADD</text>
<text text-anchor="middle" x="2740.5" y="-298" font-family="sans" font-size="10.00">sample: 24</text>
</g>
<!-- 73&#45;&gt;72 -->
<g id="edge82" class="edge">
<title>73&#45;&gt;72</title>
<path fill="none" stroke="grey" stroke-width="2" d="M2740.5,-287.34C2740.5,-280.75 2740.5,-273.08 2740.5,-265.67"/>
<polygon fill="grey" stroke="grey" stroke-width="2" points="2744,-265.93 2740.5,-255.93 2737,-265.93 2744,-265.93"/>
</g>
<!-- 74 -->
<g id="node75" class="node">
<title>74</title>
<path fill="none" stroke="#59d856" stroke-width="2" d="M2872.5,-180C2872.5,-180 2812.5,-180 2812.5,-180 2806.5,-180 2800.5,-174 2800.5,-168 2800.5,-168 2800.5,-156 2800.5,-156 2800.5,-150 2806.5,-144 2812.5,-144 2812.5,-144 2872.5,-144 2872.5,-144 2878.5,-144 2884.5,-150 2884.5,-156 2884.5,-156 2884.5,-168 2884.5,-168 2884.5,-174 2878.5,-180 2872.5,-180"/>
<text text-anchor="middle" x="2842.5" y="-159.5" font-family="sans" font-size="10.00">filter_mapped</text>
</g>
<!-- 74&#45;&gt;1 -->
<g id="edge26" class="edge">
<title>74&#45;&gt;1</title>
<path fill="none" stroke="grey" stroke-width="2" d="M2799.79,-148.74C2792.09,-146.89 2784.1,-145.2 2776.5,-144 2475.83,-96.4 2109.38,-91.04 1974.55,-90.8"/>
<polygon fill="grey" stroke="grey" stroke-width="2" points="1974.89,-87.3 1964.89,-90.79 1974.89,-94.3 1974.89,-87.3"/>
</g>
<!-- 75 -->
<g id="node76" class="node">
<title>75</title>
<path fill="none" stroke="#afd856" stroke-width="2" d="M2895,-252C2895,-252 2820,-252 2820,-252 2814,-252 2808,-246 2808,-240 2808,-240 2808,-228 2808,-228 2808,-222 2814,-216 2820,-216 2820,-216 2895,-216 2895,-216 2901,-216 2907,-222 2907,-228 2907,-228 2907,-240 2907,-240 2907,-246 2901,-252 2895,-252"/>
<text text-anchor="middle" x="2857.5" y="-237" font-family="sans" font-size="10.00">Crossmap_CADD</text>
<text text-anchor="middle" x="2857.5" y="-226" font-family="sans" font-size="10.00">sample: chr25</text>
</g>
<!-- 75&#45;&gt;74 -->
<g id="edge83" class="edge">
<title>75&#45;&gt;74</title>
<path fill="none" stroke="grey" stroke-width="2" d="M2853.71,-215.34C2852.29,-208.67 2850.62,-200.89 2849.01,-193.39"/>
<polygon fill="grey" stroke="grey" stroke-width="2" points="2852.49,-192.91 2846.97,-183.86 2845.64,-194.37 2852.49,-192.91"/>
</g>
<!-- 76 -->
<g id="node77" class="node">
<title>76</title>
<path fill="none" stroke="#56d8a9" stroke-width="2" stroke-dasharray="5,2" d="M2887,-324C2887,-324 2828,-324 2828,-324 2822,-324 2816,-318 2816,-312 2816,-312 2816,-300 2816,-300 2816,-294 2822,-288 2828,-288 2828,-288 2887,-288 2887,-288 2893,-288 2899,-294 2899,-300 2899,-300 2899,-312 2899,-312 2899,-318 2893,-324 2887,-324"/>
<text text-anchor="middle" x="2857.5" y="-309" font-family="sans" font-size="10.00">split_chCADD</text>
<text text-anchor="middle" x="2857.5" y="-298" font-family="sans" font-size="10.00">sample: 25</text>
</g>
<!-- 76&#45;&gt;75 -->
<g id="edge84" class="edge">
<title>76&#45;&gt;75</title>
<path fill="none" stroke="grey" stroke-width="2" d="M2857.5,-287.34C2857.5,-280.75 2857.5,-273.08 2857.5,-265.67"/>
<polygon fill="grey" stroke="grey" stroke-width="2" points="2861,-265.93 2857.5,-255.93 2854,-265.93 2861,-265.93"/>
</g>
<!-- 77 -->
<g id="node78" class="node">
<title>77</title>
<path fill="none" stroke="#59d856" stroke-width="2" d="M2989.5,-180C2989.5,-180 2929.5,-180 2929.5,-180 2923.5,-180 2917.5,-174 2917.5,-168 2917.5,-168 2917.5,-156 2917.5,-156 2917.5,-150 2923.5,-144 2929.5,-144 2929.5,-144 2989.5,-144 2989.5,-144 2995.5,-144 3001.5,-150 3001.5,-156 3001.5,-156 3001.5,-168 3001.5,-168 3001.5,-174 2995.5,-180 2989.5,-180"/>
<text text-anchor="middle" x="2959.5" y="-159.5" font-family="sans" font-size="10.00">filter_mapped</text>
</g>
<!-- 77&#45;&gt;1 -->
<g id="edge27" class="edge">
<title>77&#45;&gt;1</title>
<path fill="none" stroke="grey" stroke-width="2" d="M2916.8,-148.69C2909.1,-146.85 2901.1,-145.17 2893.5,-144 2714.04,-116.27 2150.92,-97.75 1974.74,-92.52"/>
<polygon fill="grey" stroke="grey" stroke-width="2" points="1974.89,-89.02 1964.79,-92.22 1974.69,-96.02 1974.89,-89.02"/>
</g>
<!-- 78 -->
<g id="node79" class="node">
<title>78</title>
<path fill="none" stroke="#afd856" stroke-width="2" d="M3012,-252C3012,-252 2937,-252 2937,-252 2931,-252 2925,-246 2925,-240 2925,-240 2925,-228 2925,-228 2925,-222 2931,-216 2937,-216 2937,-216 3012,-216 3012,-216 3018,-216 3024,-222 3024,-228 3024,-228 3024,-240 3024,-240 3024,-246 3018,-252 3012,-252"/>
<text text-anchor="middle" x="2974.5" y="-237" font-family="sans" font-size="10.00">Crossmap_CADD</text>
<text text-anchor="middle" x="2974.5" y="-226" font-family="sans" font-size="10.00">sample: chr26</text>
</g>
<!-- 78&#45;&gt;77 -->
<g id="edge85" class="edge">
<title>78&#45;&gt;77</title>
<path fill="none" stroke="grey" stroke-width="2" d="M2970.71,-215.34C2969.29,-208.67 2967.62,-200.89 2966.01,-193.39"/>
<polygon fill="grey" stroke="grey" stroke-width="2" points="2969.49,-192.91 2963.97,-183.86 2962.64,-194.37 2969.49,-192.91"/>
</g>
<!-- 79 -->
<g id="node80" class="node">
<title>79</title>
<path fill="none" stroke="#56d8a9" stroke-width="2" stroke-dasharray="5,2" d="M3004,-324C3004,-324 2945,-324 2945,-324 2939,-324 2933,-318 2933,-312 2933,-312 2933,-300 2933,-300 2933,-294 2939,-288 2945,-288 2945,-288 3004,-288 3004,-288 3010,-288 3016,-294 3016,-300 3016,-300 3016,-312 3016,-312 3016,-318 3010,-324 3004,-324"/>
<text text-anchor="middle" x="2974.5" y="-309" font-family="sans" font-size="10.00">split_chCADD</text>
<text text-anchor="middle" x="2974.5" y="-298" font-family="sans" font-size="10.00">sample: 26</text>
</g>
<!-- 79&#45;&gt;78 -->
<g id="edge86" class="edge">
<title>79&#45;&gt;78</title>
<path fill="none" stroke="grey" stroke-width="2" d="M2974.5,-287.34C2974.5,-280.75 2974.5,-273.08 2974.5,-265.67"/>
<polygon fill="grey" stroke="grey" stroke-width="2" points="2978,-265.93 2974.5,-255.93 2971,-265.93 2978,-265.93"/>
</g>
<!-- 80 -->
<g id="node81" class="node">
<title>80</title>
<path fill="none" stroke="#59d856" stroke-width="2" d="M3106.5,-180C3106.5,-180 3046.5,-180 3046.5,-180 3040.5,-180 3034.5,-174 3034.5,-168 3034.5,-168 3034.5,-156 3034.5,-156 3034.5,-150 3040.5,-144 3046.5,-144 3046.5,-144 3106.5,-144 3106.5,-144 3112.5,-144 3118.5,-150 3118.5,-156 3118.5,-156 3118.5,-168 3118.5,-168 3118.5,-174 3112.5,-180 3106.5,-180"/>
<text text-anchor="middle" x="3076.5" y="-159.5" font-family="sans" font-size="10.00">filter_mapped</text>
</g>
<!-- 80&#45;&gt;1 -->
<g id="edge28" class="edge">
<title>80&#45;&gt;1</title>
<path fill="none" stroke="grey" stroke-width="2" d="M3033.8,-148.66C3026.1,-146.82 3018.1,-145.15 3010.5,-144 2807.17,-113.19 2164.48,-96.5 1974.73,-92.16"/>
<polygon fill="grey" stroke="grey" stroke-width="2" points="1974.97,-88.66 1964.89,-91.93 1974.81,-95.66 1974.97,-88.66"/>
</g>
<!-- 81 -->
<g id="node82" class="node">
<title>81</title>
<path fill="none" stroke="#afd856" stroke-width="2" d="M3129,-252C3129,-252 3054,-252 3054,-252 3048,-252 3042,-246 3042,-240 3042,-240 3042,-228 3042,-228 3042,-222 3048,-216 3054,-216 3054,-216 3129,-216 3129,-216 3135,-216 3141,-222 3141,-228 3141,-228 3141,-240 3141,-240 3141,-246 3135,-252 3129,-252"/>
<text text-anchor="middle" x="3091.5" y="-237" font-family="sans" font-size="10.00">Crossmap_CADD</text>
<text text-anchor="middle" x="3091.5" y="-226" font-family="sans" font-size="10.00">sample: chr27</text>
</g>
<!-- 81&#45;&gt;80 -->
<g id="edge87" class="edge">
<title>81&#45;&gt;80</title>
<path fill="none" stroke="grey" stroke-width="2" d="M3087.71,-215.34C3086.29,-208.67 3084.62,-200.89 3083.01,-193.39"/>
<polygon fill="grey" stroke="grey" stroke-width="2" points="3086.49,-192.91 3080.97,-183.86 3079.64,-194.37 3086.49,-192.91"/>
</g>
<!-- 82 -->
<g id="node83" class="node">
<title>82</title>
<path fill="none" stroke="#56d8a9" stroke-width="2" stroke-dasharray="5,2" d="M3121,-324C3121,-324 3062,-324 3062,-324 3056,-324 3050,-318 3050,-312 3050,-312 3050,-300 3050,-300 3050,-294 3056,-288 3062,-288 3062,-288 3121,-288 3121,-288 3127,-288 3133,-294 3133,-300 3133,-300 3133,-312 3133,-312 3133,-318 3127,-324 3121,-324"/>
<text text-anchor="middle" x="3091.5" y="-309" font-family="sans" font-size="10.00">split_chCADD</text>
<text text-anchor="middle" x="3091.5" y="-298" font-family="sans" font-size="10.00">sample: 27</text>
</g>
<!-- 82&#45;&gt;81 -->
<g id="edge88" class="edge">
<title>82&#45;&gt;81</title>
<path fill="none" stroke="grey" stroke-width="2" d="M3091.5,-287.34C3091.5,-280.75 3091.5,-273.08 3091.5,-265.67"/>
<polygon fill="grey" stroke="grey" stroke-width="2" points="3095,-265.93 3091.5,-255.93 3088,-265.93 3095,-265.93"/>
</g>
<!-- 83 -->
<g id="node84" class="node">
<title>83</title>
<path fill="none" stroke="#59d856" stroke-width="2" d="M3223.5,-180C3223.5,-180 3163.5,-180 3163.5,-180 3157.5,-180 3151.5,-174 3151.5,-168 3151.5,-168 3151.5,-156 3151.5,-156 3151.5,-150 3157.5,-144 3163.5,-144 3163.5,-144 3223.5,-144 3223.5,-144 3229.5,-144 3235.5,-150 3235.5,-156 3235.5,-156 3235.5,-168 3235.5,-168 3235.5,-174 3229.5,-180 3223.5,-180"/>
<text text-anchor="middle" x="3193.5" y="-159.5" font-family="sans" font-size="10.00">filter_mapped</text>
</g>
<!-- 83&#45;&gt;1 -->
<g id="edge29" class="edge">
<title>83&#45;&gt;1</title>
<path fill="none" stroke="grey" stroke-width="2" d="M3150.81,-148.63C3143.11,-146.79 3135.11,-145.13 3127.5,-144 2900.19,-110.11 2177.18,-95.39 1974.67,-91.86"/>
<polygon fill="grey" stroke="grey" stroke-width="2" points="1974.91,-88.37 1964.85,-91.7 1974.79,-95.37 1974.91,-88.37"/>
</g>
<!-- 84 -->
<g id="node85" class="node">
<title>84</title>
<path fill="none" stroke="#afd856" stroke-width="2" d="M3246,-252C3246,-252 3171,-252 3171,-252 3165,-252 3159,-246 3159,-240 3159,-240 3159,-228 3159,-228 3159,-222 3165,-216 3171,-216 3171,-216 3246,-216 3246,-216 3252,-216 3258,-222 3258,-228 3258,-228 3258,-240 3258,-240 3258,-246 3252,-252 3246,-252"/>
<text text-anchor="middle" x="3208.5" y="-237" font-family="sans" font-size="10.00">Crossmap_CADD</text>
<text text-anchor="middle" x="3208.5" y="-226" font-family="sans" font-size="10.00">sample: chr28</text>
</g>
<!-- 84&#45;&gt;83 -->
<g id="edge89" class="edge">
<title>84&#45;&gt;83</title>
<path fill="none" stroke="grey" stroke-width="2" d="M3204.71,-215.34C3203.29,-208.67 3201.62,-200.89 3200.01,-193.39"/>
<polygon fill="grey" stroke="grey" stroke-width="2" points="3203.49,-192.91 3197.97,-183.86 3196.64,-194.37 3203.49,-192.91"/>
</g>
<!-- 85 -->
<g id="node86" class="node">
<title>85</title>
<path fill="none" stroke="#56d8a9" stroke-width="2" stroke-dasharray="5,2" d="M3238,-324C3238,-324 3179,-324 3179,-324 3173,-324 3167,-318 3167,-312 3167,-312 3167,-300 3167,-300 3167,-294 3173,-288 3179,-288 3179,-288 3238,-288 3238,-288 3244,-288 3250,-294 3250,-300 3250,-300 3250,-312 3250,-312 3250,-318 3244,-324 3238,-324"/>
<text text-anchor="middle" x="3208.5" y="-309" font-family="sans" font-size="10.00">split_chCADD</text>
<text text-anchor="middle" x="3208.5" y="-298" font-family="sans" font-size="10.00">sample: 28</text>
</g>
<!-- 85&#45;&gt;84 -->
<g id="edge90" class="edge">
<title>85&#45;&gt;84</title>
<path fill="none" stroke="grey" stroke-width="2" d="M3208.5,-287.34C3208.5,-280.75 3208.5,-273.08 3208.5,-265.67"/>
<polygon fill="grey" stroke="grey" stroke-width="2" points="3212,-265.93 3208.5,-255.93 3205,-265.93 3212,-265.93"/>
</g>
<!-- 86 -->
<g id="node87" class="node">
<title>86</title>
<path fill="none" stroke="#59d856" stroke-width="2" d="M3340.5,-180C3340.5,-180 3280.5,-180 3280.5,-180 3274.5,-180 3268.5,-174 3268.5,-168 3268.5,-168 3268.5,-156 3268.5,-156 3268.5,-150 3274.5,-144 3280.5,-144 3280.5,-144 3340.5,-144 3340.5,-144 3346.5,-144 3352.5,-150 3352.5,-156 3352.5,-156 3352.5,-168 3352.5,-168 3352.5,-174 3346.5,-180 3340.5,-180"/>
<text text-anchor="middle" x="3310.5" y="-159.5" font-family="sans" font-size="10.00">filter_mapped</text>
</g>
<!-- 86&#45;&gt;1 -->
<g id="edge30" class="edge">
<title>86&#45;&gt;1</title>
<path fill="none" stroke="grey" stroke-width="2" d="M3267.81,-148.6C3260.11,-146.77 3252.11,-145.12 3244.5,-144 2993.19,-107.03 2189.74,-94.39 1974.8,-91.63"/>
<polygon fill="grey" stroke="grey" stroke-width="2" points="1974.87,-88.13 1964.83,-91.5 1974.78,-95.13 1974.87,-88.13"/>
</g>
<!-- 87 -->
<g id="node88" class="node">
<title>87</title>
<path fill="none" stroke="#afd856" stroke-width="2" d="M3363,-252C3363,-252 3288,-252 3288,-252 3282,-252 3276,-246 3276,-240 3276,-240 3276,-228 3276,-228 3276,-222 3282,-216 3288,-216 3288,-216 3363,-216 3363,-216 3369,-216 3375,-222 3375,-228 3375,-228 3375,-240 3375,-240 3375,-246 3369,-252 3363,-252"/>
<text text-anchor="middle" x="3325.5" y="-237" font-family="sans" font-size="10.00">Crossmap_CADD</text>
<text text-anchor="middle" x="3325.5" y="-226" font-family="sans" font-size="10.00">sample: chr30</text>
</g>
<!-- 87&#45;&gt;86 -->
<g id="edge91" class="edge">
<title>87&#45;&gt;86</title>
<path fill="none" stroke="grey" stroke-width="2" d="M3321.71,-215.34C3320.29,-208.67 3318.62,-200.89 3317.01,-193.39"/>
<polygon fill="grey" stroke="grey" stroke-width="2" points="3320.49,-192.91 3314.97,-183.86 3313.64,-194.37 3320.49,-192.91"/>
</g>
<!-- 88 -->
<g id="node89" class="node">
<title>88</title>
<path fill="none" stroke="#56d8a9" stroke-width="2" stroke-dasharray="5,2" d="M3355,-324C3355,-324 3296,-324 3296,-324 3290,-324 3284,-318 3284,-312 3284,-312 3284,-300 3284,-300 3284,-294 3290,-288 3296,-288 3296,-288 3355,-288 3355,-288 3361,-288 3367,-294 3367,-300 3367,-300 3367,-312 3367,-312 3367,-318 3361,-324 3355,-324"/>
<text text-anchor="middle" x="3325.5" y="-309" font-family="sans" font-size="10.00">split_chCADD</text>
<text text-anchor="middle" x="3325.5" y="-298" font-family="sans" font-size="10.00">sample: 30</text>
</g>
<!-- 88&#45;&gt;87 -->
<g id="edge92" class="edge">
<title>88&#45;&gt;87</title>
<path fill="none" stroke="grey" stroke-width="2" d="M3325.5,-287.34C3325.5,-280.75 3325.5,-273.08 3325.5,-265.67"/>
<polygon fill="grey" stroke="grey" stroke-width="2" points="3329,-265.93 3325.5,-255.93 3322,-265.93 3329,-265.93"/>
</g>
<!-- 89 -->
<g id="node90" class="node">
<title>89</title>
<path fill="none" stroke="#59d856" stroke-width="2" d="M3457.5,-180C3457.5,-180 3397.5,-180 3397.5,-180 3391.5,-180 3385.5,-174 3385.5,-168 3385.5,-168 3385.5,-156 3385.5,-156 3385.5,-150 3391.5,-144 3397.5,-144 3397.5,-144 3457.5,-144 3457.5,-144 3463.5,-144 3469.5,-150 3469.5,-156 3469.5,-156 3469.5,-168 3469.5,-168 3469.5,-174 3463.5,-180 3457.5,-180"/>
<text text-anchor="middle" x="3427.5" y="-159.5" font-family="sans" font-size="10.00">filter_mapped</text>
</g>
<!-- 89&#45;&gt;1 -->
<g id="edge31" class="edge">
<title>89&#45;&gt;1</title>
<path fill="none" stroke="grey" stroke-width="2" d="M3384.81,-148.58C3377.11,-146.75 3369.11,-145.11 3361.5,-144 3086,-103.93 2201.11,-93.47 1974.67,-91.43"/>
<polygon fill="grey" stroke="grey" stroke-width="2" points="1974.99,-87.93 1964.96,-91.34 1974.93,-94.93 1974.99,-87.93"/>
</g>
<!-- 90 -->
<g id="node91" class="node">
<title>90</title>
<path fill="none" stroke="#afd856" stroke-width="2" d="M3480,-252C3480,-252 3405,-252 3405,-252 3399,-252 3393,-246 3393,-240 3393,-240 3393,-228 3393,-228 3393,-222 3399,-216 3405,-216 3405,-216 3480,-216 3480,-216 3486,-216 3492,-222 3492,-228 3492,-228 3492,-240 3492,-240 3492,-246 3486,-252 3480,-252"/>
<text text-anchor="middle" x="3442.5" y="-237" font-family="sans" font-size="10.00">Crossmap_CADD</text>
<text text-anchor="middle" x="3442.5" y="-226" font-family="sans" font-size="10.00">sample: chr31</text>
</g>
<!-- 90&#45;&gt;89 -->
<g id="edge93" class="edge">
<title>90&#45;&gt;89</title>
<path fill="none" stroke="grey" stroke-width="2" d="M3438.71,-215.34C3437.29,-208.67 3435.62,-200.89 3434.01,-193.39"/>
<polygon fill="grey" stroke="grey" stroke-width="2" points="3437.49,-192.91 3431.97,-183.86 3430.64,-194.37 3437.49,-192.91"/>
</g>
<!-- 91 -->
<g id="node92" class="node">
<title>91</title>
<path fill="none" stroke="#56d8a9" stroke-width="2" stroke-dasharray="5,2" d="M3472,-324C3472,-324 3413,-324 3413,-324 3407,-324 3401,-318 3401,-312 3401,-312 3401,-300 3401,-300 3401,-294 3407,-288 3413,-288 3413,-288 3472,-288 3472,-288 3478,-288 3484,-294 3484,-300 3484,-300 3484,-312 3484,-312 3484,-318 3478,-324 3472,-324"/>
<text text-anchor="middle" x="3442.5" y="-309" font-family="sans" font-size="10.00">split_chCADD</text>
<text text-anchor="middle" x="3442.5" y="-298" font-family="sans" font-size="10.00">sample: 31</text>
</g>
<!-- 91&#45;&gt;90 -->
<g id="edge94" class="edge">
<title>91&#45;&gt;90</title>
<path fill="none" stroke="grey" stroke-width="2" d="M3442.5,-287.34C3442.5,-280.75 3442.5,-273.08 3442.5,-265.67"/>
<polygon fill="grey" stroke="grey" stroke-width="2" points="3446,-265.93 3442.5,-255.93 3439,-265.93 3446,-265.93"/>
</g>
<!-- 92 -->
<g id="node93" class="node">
<title>92</title>
<path fill="none" stroke="#59d856" stroke-width="2" d="M3574.5,-180C3574.5,-180 3514.5,-180 3514.5,-180 3508.5,-180 3502.5,-174 3502.5,-168 3502.5,-168 3502.5,-156 3502.5,-156 3502.5,-150 3508.5,-144 3514.5,-144 3514.5,-144 3574.5,-144 3574.5,-144 3580.5,-144 3586.5,-150 3586.5,-156 3586.5,-156 3586.5,-168 3586.5,-168 3586.5,-174 3580.5,-180 3574.5,-180"/>
<text text-anchor="middle" x="3544.5" y="-159.5" font-family="sans" font-size="10.00">filter_mapped</text>
</g>
<!-- 92&#45;&gt;1 -->
<g id="edge32" class="edge">
<title>92&#45;&gt;1</title>
<path fill="none" stroke="grey" stroke-width="2" d="M3501.82,-148.56C3494.11,-146.73 3486.11,-145.1 3478.5,-144 3178.81,-100.83 2212.39,-92.63 1974.69,-91.25"/>
<polygon fill="grey" stroke="grey" stroke-width="2" points="1975.05,-87.76 1965.03,-91.2 1975.01,-94.76 1975.05,-87.76"/>
</g>
<!-- 93 -->
<g id="node94" class="node">
<title>93</title>
<path fill="none" stroke="#afd856" stroke-width="2" d="M3597,-252C3597,-252 3522,-252 3522,-252 3516,-252 3510,-246 3510,-240 3510,-240 3510,-228 3510,-228 3510,-222 3516,-216 3522,-216 3522,-216 3597,-216 3597,-216 3603,-216 3609,-222 3609,-228 3609,-228 3609,-240 3609,-240 3609,-246 3603,-252 3597,-252"/>
<text text-anchor="middle" x="3559.5" y="-237" font-family="sans" font-size="10.00">Crossmap_CADD</text>
<text text-anchor="middle" x="3559.5" y="-226" font-family="sans" font-size="10.00">sample: chr32</text>
</g>
<!-- 93&#45;&gt;92 -->
<g id="edge95" class="edge">
<title>93&#45;&gt;92</title>
<path fill="none" stroke="grey" stroke-width="2" d="M3555.71,-215.34C3554.29,-208.67 3552.62,-200.89 3551.01,-193.39"/>
<polygon fill="grey" stroke="grey" stroke-width="2" points="3554.49,-192.91 3548.97,-183.86 3547.64,-194.37 3554.49,-192.91"/>
</g>
<!-- 94 -->
<g id="node95" class="node">
<title>94</title>
<path fill="none" stroke="#56d8a9" stroke-width="2" stroke-dasharray="5,2" d="M3589,-324C3589,-324 3530,-324 3530,-324 3524,-324 3518,-318 3518,-312 3518,-312 3518,-300 3518,-300 3518,-294 3524,-288 3530,-288 3530,-288 3589,-288 3589,-288 3595,-288 3601,-294 3601,-300 3601,-300 3601,-312 3601,-312 3601,-318 3595,-324 3589,-324"/>
<text text-anchor="middle" x="3559.5" y="-309" font-family="sans" font-size="10.00">split_chCADD</text>
<text text-anchor="middle" x="3559.5" y="-298" font-family="sans" font-size="10.00">sample: 32</text>
</g>
<!-- 94&#45;&gt;93 -->
<g id="edge96" class="edge">
<title>94&#45;&gt;93</title>
<path fill="none" stroke="grey" stroke-width="2" d="M3559.5,-287.34C3559.5,-280.75 3559.5,-273.08 3559.5,-265.67"/>
<polygon fill="grey" stroke="grey" stroke-width="2" points="3563,-265.93 3559.5,-255.93 3556,-265.93 3563,-265.93"/>
</g>
<!-- 95 -->
<g id="node96" class="node">
<title>95</title>
<path fill="none" stroke="#59d856" stroke-width="2" d="M3691.5,-180C3691.5,-180 3631.5,-180 3631.5,-180 3625.5,-180 3619.5,-174 3619.5,-168 3619.5,-168 3619.5,-156 3619.5,-156 3619.5,-150 3625.5,-144 3631.5,-144 3631.5,-144 3691.5,-144 3691.5,-144 3697.5,-144 3703.5,-150 3703.5,-156 3703.5,-156 3703.5,-168 3703.5,-168 3703.5,-174 3697.5,-180 3691.5,-180"/>
<text text-anchor="middle" x="3661.5" y="-159.5" font-family="sans" font-size="10.00">filter_mapped</text>
</g>
<!-- 95&#45;&gt;1 -->
<g id="edge33" class="edge">
<title>95&#45;&gt;1</title>
<path fill="none" stroke="grey" stroke-width="2" d="M3618.82,-148.55C3611.12,-146.72 3603.11,-145.09 3595.5,-144 3271.51,-97.72 2222.94,-91.85 1974.59,-91.11"/>
<polygon fill="grey" stroke="grey" stroke-width="2" points="1974.74,-87.61 1964.73,-91.08 1974.72,-94.61 1974.74,-87.61"/>
</g>
<!-- 96 -->
<g id="node97" class="node">
<title>96</title>
<path fill="none" stroke="#afd856" stroke-width="2" d="M3714,-252C3714,-252 3639,-252 3639,-252 3633,-252 3627,-246 3627,-240 3627,-240 3627,-228 3627,-228 3627,-222 3633,-216 3639,-216 3639,-216 3714,-216 3714,-216 3720,-216 3726,-222 3726,-228 3726,-228 3726,-240 3726,-240 3726,-246 3720,-252 3714,-252"/>
<text text-anchor="middle" x="3676.5" y="-237" font-family="sans" font-size="10.00">Crossmap_CADD</text>
<text text-anchor="middle" x="3676.5" y="-226" font-family="sans" font-size="10.00">sample: chr33</text>
</g>
<!-- 96&#45;&gt;95 -->
<g id="edge97" class="edge">
<title>96&#45;&gt;95</title>
<path fill="none" stroke="grey" stroke-width="2" d="M3672.71,-215.34C3671.29,-208.67 3669.62,-200.89 3668.01,-193.39"/>
<polygon fill="grey" stroke="grey" stroke-width="2" points="3671.49,-192.91 3665.97,-183.86 3664.64,-194.37 3671.49,-192.91"/>
</g>
<!-- 97 -->
<g id="node98" class="node">
<title>97</title>
<path fill="none" stroke="#56d8a9" stroke-width="2" stroke-dasharray="5,2" d="M3706,-324C3706,-324 3647,-324 3647,-324 3641,-324 3635,-318 3635,-312 3635,-312 3635,-300 3635,-300 3635,-294 3641,-288 3647,-288 3647,-288 3706,-288 3706,-288 3712,-288 3718,-294 3718,-300 3718,-300 3718,-312 3718,-312 3718,-318 3712,-324 3706,-324"/>
<text text-anchor="middle" x="3676.5" y="-309" font-family="sans" font-size="10.00">split_chCADD</text>
<text text-anchor="middle" x="3676.5" y="-298" font-family="sans" font-size="10.00">sample: 33</text>
</g>
<!-- 97&#45;&gt;96 -->
<g id="edge98" class="edge">
<title>97&#45;&gt;96</title>
<path fill="none" stroke="grey" stroke-width="2" d="M3676.5,-287.34C3676.5,-280.75 3676.5,-273.08 3676.5,-265.67"/>
<polygon fill="grey" stroke="grey" stroke-width="2" points="3680,-265.93 3676.5,-255.93 3673,-265.93 3680,-265.93"/>
</g>
<!-- 98 -->
<g id="node99" class="node">
<title>98</title>
<path fill="none" stroke="#59d856" stroke-width="2" d="M3808.5,-180C3808.5,-180 3748.5,-180 3748.5,-180 3742.5,-180 3736.5,-174 3736.5,-168 3736.5,-168 3736.5,-156 3736.5,-156 3736.5,-150 3742.5,-144 3748.5,-144 3748.5,-144 3808.5,-144 3808.5,-144 3814.5,-144 3820.5,-150 3820.5,-156 3820.5,-156 3820.5,-168 3820.5,-168 3820.5,-174 3814.5,-180 3808.5,-180"/>
<text text-anchor="middle" x="3778.5" y="-159.5" font-family="sans" font-size="10.00">filter_mapped</text>
</g>
<!-- 98&#45;&gt;1 -->
<g id="edge34" class="edge">
<title>98&#45;&gt;1</title>
<path fill="none" stroke="grey" stroke-width="2" d="M3735.82,-148.53C3728.12,-146.71 3720.11,-145.08 3712.5,-144 3364.17,-94.61 2233.18,-91.12 1974.52,-90.98"/>
<polygon fill="grey" stroke="grey" stroke-width="2" points="1974.86,-87.48 1964.86,-90.98 1974.86,-94.48 1974.86,-87.48"/>
</g>
<!-- 99 -->
<g id="node100" class="node">
<title>99</title>
<path fill="none" stroke="#afd856" stroke-width="2" d="M3831,-252C3831,-252 3756,-252 3756,-252 3750,-252 3744,-246 3744,-240 3744,-240 3744,-228 3744,-228 3744,-222 3750,-216 3756,-216 3756,-216 3831,-216 3831,-216 3837,-216 3843,-222 3843,-228 3843,-228 3843,-240 3843,-240 3843,-246 3837,-252 3831,-252"/>
<text text-anchor="middle" x="3793.5" y="-237" font-family="sans" font-size="10.00">Crossmap_CADD</text>
<text text-anchor="middle" x="3793.5" y="-226" font-family="sans" font-size="10.00">sample: chrZ</text>
</g>
<!-- 99&#45;&gt;98 -->
<g id="edge99" class="edge">
<title>99&#45;&gt;98</title>
<path fill="none" stroke="grey" stroke-width="2" d="M3789.71,-215.34C3788.29,-208.67 3786.62,-200.89 3785.01,-193.39"/>
<polygon fill="grey" stroke="grey" stroke-width="2" points="3788.49,-192.91 3782.97,-183.86 3781.64,-194.37 3788.49,-192.91"/>
</g>
<!-- 100 -->
<g id="node101" class="node">
<title>100</title>
<path fill="none" stroke="#56d8a9" stroke-width="2" stroke-dasharray="5,2" d="M3823,-324C3823,-324 3764,-324 3764,-324 3758,-324 3752,-318 3752,-312 3752,-312 3752,-300 3752,-300 3752,-294 3758,-288 3764,-288 3764,-288 3823,-288 3823,-288 3829,-288 3835,-294 3835,-300 3835,-300 3835,-312 3835,-312 3835,-318 3829,-324 3823,-324"/>
<text text-anchor="middle" x="3793.5" y="-309" font-family="sans" font-size="10.00">split_chCADD</text>
<text text-anchor="middle" x="3793.5" y="-298" font-family="sans" font-size="10.00">sample: Z</text>
</g>
<!-- 100&#45;&gt;99 -->
<g id="edge100" class="edge">
<title>100&#45;&gt;99</title>
<path fill="none" stroke="grey" stroke-width="2" d="M3793.5,-287.34C3793.5,-280.75 3793.5,-273.08 3793.5,-265.67"/>
<polygon fill="grey" stroke="grey" stroke-width="2" points="3797,-265.93 3793.5,-255.93 3790,-265.93 3797,-265.93"/>
</g>
</g>
</svg>
