<?xml version="1.0" encoding="UTF-8" standalone="no"?>
<!DOCTYPE svg PUBLIC "-//W3C//DTD SVG 1.1//EN"
 "http://www.w3.org/Graphics/SVG/1.1/DTD/svg11.dtd">
<!-- Generated by graphviz version 7.0.6 (20230107.1202)
 -->
<!-- Title: snakemake_dag Pages: 1 -->
<svg width="216pt" height="404pt"
 viewBox="0.00 0.00 215.50 404.00" xmlns="http://www.w3.org/2000/svg" xmlns:xlink="http://www.w3.org/1999/xlink">
<g id="graph0" class="graph" transform="scale(1 1) rotate(0) translate(4 400)">
<title>snakemake_dag</title>
<polygon fill="white" stroke="none" points="-4,4 -4,-400 211.5,-400 211.5,4 -4,4"/>
<!-- 0 -->
<g id="node1" class="node">
<title>0</title>
<path fill="none" stroke="#88d856" stroke-width="2" d="M139,-36C139,-36 42,-36 42,-36 36,-36 30,-30 30,-24 30,-24 30,-12 30,-12 30,-6 36,0 42,0 42,0 139,0 139,0 145,0 151,-6 151,-12 151,-12 151,-24 151,-24 151,-30 145,-36 139,-36"/>
<text text-anchor="middle" x="90.5" y="-21" font-family="sans" font-size="10.00">bcftools_reverse_call</text>
<text text-anchor="middle" x="90.5" y="-10" font-family="sans" font-size="10.00">species: passenger_p</text>
</g>
<!-- 1 -->
<g id="node2" class="node">
<title>1</title>
<path fill="none" stroke="#56c1d8" stroke-width="2" d="M132,-180C132,-180 49,-180 49,-180 43,-180 37,-174 37,-168 37,-168 37,-156 37,-156 37,-150 43,-144 49,-144 49,-144 132,-144 132,-144 138,-144 144,-150 144,-156 144,-156 144,-168 144,-168 144,-174 138,-180 132,-180"/>
<text text-anchor="middle" x="90.5" y="-159.5" font-family="sans" font-size="10.00">duplicate_removal</text>
</g>
<!-- 1&#45;&gt;0 -->
<g id="edge1" class="edge">
<title>1&#45;&gt;0</title>
<path fill="none" stroke="grey" stroke-width="2" d="M82.83,-143.22C78.89,-133.11 74.5,-120.08 72.5,-108 69.89,-92.21 69.89,-87.79 72.5,-72 73.76,-64.36 75.99,-56.33 78.45,-48.91"/>
<polygon fill="grey" stroke="grey" stroke-width="2" points="81.69,-50.22 81.8,-39.62 75.11,-47.84 81.69,-50.22"/>
</g>
<!-- 6 -->
<g id="node7" class="node">
<title>6</title>
<path fill="none" stroke="#bed856" stroke-width="2" d="M163.5,-108C163.5,-108 93.5,-108 93.5,-108 87.5,-108 81.5,-102 81.5,-96 81.5,-96 81.5,-84 81.5,-84 81.5,-78 87.5,-72 93.5,-72 93.5,-72 163.5,-72 163.5,-72 169.5,-72 175.5,-78 175.5,-84 175.5,-84 175.5,-96 175.5,-96 175.5,-102 169.5,-108 163.5,-108"/>
<text text-anchor="middle" x="128.5" y="-87.5" font-family="sans" font-size="10.00">samtools_index</text>
</g>
<!-- 1&#45;&gt;6 -->
<g id="edge7" class="edge">
<title>1&#45;&gt;6</title>
<path fill="none" stroke="grey" stroke-width="2" d="M100.09,-143.34C103.89,-136.34 108.35,-128.12 112.61,-120.28"/>
<polygon fill="grey" stroke="grey" stroke-width="2" points="115.64,-122.02 117.34,-111.56 109.49,-118.68 115.64,-122.02"/>
</g>
<!-- 2 -->
<g id="node3" class="node">
<title>2</title>
<path fill="none" stroke="#d85656" stroke-width="2" d="M121.5,-252C121.5,-252 59.5,-252 59.5,-252 53.5,-252 47.5,-246 47.5,-240 47.5,-240 47.5,-228 47.5,-228 47.5,-222 53.5,-216 59.5,-216 59.5,-216 121.5,-216 121.5,-216 127.5,-216 133.5,-222 133.5,-228 133.5,-228 133.5,-240 133.5,-240 133.5,-246 127.5,-252 121.5,-252"/>
<text text-anchor="middle" x="90.5" y="-231.5" font-family="sans" font-size="10.00">samtools_sort</text>
</g>
<!-- 2&#45;&gt;1 -->
<g id="edge3" class="edge">
<title>2&#45;&gt;1</title>
<path fill="none" stroke="grey" stroke-width="2" d="M90.5,-215.34C90.5,-208.75 90.5,-201.08 90.5,-193.67"/>
<polygon fill="grey" stroke="grey" stroke-width="2" points="94,-193.93 90.5,-183.93 87,-193.93 94,-193.93"/>
</g>
<!-- 3 -->
<g id="node4" class="node">
<title>3</title>
<path fill="none" stroke="#d8bc56" stroke-width="2" d="M110.5,-324C110.5,-324 70.5,-324 70.5,-324 64.5,-324 58.5,-318 58.5,-312 58.5,-312 58.5,-300 58.5,-300 58.5,-294 64.5,-288 70.5,-288 70.5,-288 110.5,-288 110.5,-288 116.5,-288 122.5,-294 122.5,-300 122.5,-300 122.5,-312 122.5,-312 122.5,-318 116.5,-324 110.5,-324"/>
<text text-anchor="middle" x="90.5" y="-303.5" font-family="sans" font-size="10.00">bwa_map</text>
</g>
<!-- 3&#45;&gt;2 -->
<g id="edge4" class="edge">
<title>3&#45;&gt;2</title>
<path fill="none" stroke="grey" stroke-width="2" d="M90.5,-287.34C90.5,-280.75 90.5,-273.08 90.5,-265.67"/>
<polygon fill="grey" stroke="grey" stroke-width="2" points="94,-265.93 90.5,-255.93 87,-265.93 94,-265.93"/>
</g>
<!-- 4 -->
<g id="node5" class="node">
<title>4</title>
<path fill="none" stroke="#d88d56" stroke-width="2" stroke-dasharray="5,2" d="M57,-396C57,-396 12,-396 12,-396 6,-396 0,-390 0,-384 0,-384 0,-372 0,-372 0,-366 6,-360 12,-360 12,-360 57,-360 57,-360 63,-360 69,-366 69,-372 69,-372 69,-384 69,-384 69,-390 63,-396 57,-396"/>
<text text-anchor="middle" x="34.5" y="-375.5" font-family="sans" font-size="10.00">bwa_index</text>
</g>
<!-- 4&#45;&gt;3 -->
<g id="edge5" class="edge">
<title>4&#45;&gt;3</title>
<path fill="none" stroke="grey" stroke-width="2" d="M48.63,-359.34C54.55,-351.93 61.59,-343.14 68.18,-334.9"/>
<polygon fill="grey" stroke="grey" stroke-width="2" points="70.77,-337.26 74.29,-327.27 65.31,-332.89 70.77,-337.26"/>
</g>
<!-- 5 -->
<g id="node6" class="node">
<title>5</title>
<path fill="none" stroke="#59d856" stroke-width="2" d="M195.5,-396C195.5,-396 99.5,-396 99.5,-396 93.5,-396 87.5,-390 87.5,-384 87.5,-384 87.5,-372 87.5,-372 87.5,-366 93.5,-360 99.5,-360 99.5,-360 195.5,-360 195.5,-360 201.5,-360 207.5,-366 207.5,-372 207.5,-372 207.5,-384 207.5,-384 207.5,-390 201.5,-396 195.5,-396"/>
<text text-anchor="middle" x="147.5" y="-381" font-family="sans" font-size="10.00">fastq_trimming</text>
<text text-anchor="middle" x="147.5" y="-370" font-family="sans" font-size="10.00">sample: SRR1303448</text>
</g>
<!-- 5&#45;&gt;3 -->
<g id="edge6" class="edge">
<title>5&#45;&gt;3</title>
<path fill="none" stroke="grey" stroke-width="2" d="M133.12,-359.34C127.09,-351.93 119.93,-343.14 113.22,-334.9"/>
<polygon fill="grey" stroke="grey" stroke-width="2" points="116.02,-332.79 106.99,-327.25 110.59,-337.21 116.02,-332.79"/>
</g>
<!-- 6&#45;&gt;0 -->
<g id="edge2" class="edge">
<title>6&#45;&gt;0</title>
<path fill="none" stroke="grey" stroke-width="2" d="M118.91,-71.34C115.11,-64.34 110.65,-56.12 106.39,-48.28"/>
<polygon fill="grey" stroke="grey" stroke-width="2" points="109.51,-46.68 101.66,-39.56 103.36,-50.02 109.51,-46.68"/>
</g>
</g>
</svg>
