<?xml version="1.0" encoding="UTF-8" standalone="no"?>
<!DOCTYPE svg PUBLIC "-//W3C//DTD SVG 1.1//EN"
 "http://www.w3.org/Graphics/SVG/1.1/DTD/svg11.dtd">
<!-- Generated by graphviz version 7.0.6 (20230107.1202)
 -->
<!-- Title: snakemake_dag Pages: 1 -->
<svg width="338pt" height="332pt"
 viewBox="0.00 0.00 337.50 332.00" xmlns="http://www.w3.org/2000/svg" xmlns:xlink="http://www.w3.org/1999/xlink">
<g id="graph0" class="graph" transform="scale(1 1) rotate(0) translate(4 328)">
<title>snakemake_dag</title>
<polygon fill="white" stroke="none" points="-4,4 -4,-328 333.5,-328 333.5,4 -4,4"/>
<!-- 0 -->
<g id="node1" class="node">
<title>0</title>
<path fill="none" stroke="#d85656" stroke-width="2" d="M270,-36C270,-36 125,-36 125,-36 119,-36 113,-30 113,-24 113,-24 113,-12 113,-12 113,-6 119,0 125,0 125,0 270,0 270,0 276,0 282,-6 282,-12 282,-12 282,-24 282,-24 282,-30 276,-36 270,-36"/>
<text text-anchor="middle" x="197.5" y="-15.5" font-family="sans" font-size="10.00">orientation_separation_reverse</text>
</g>
<!-- 1 -->
<g id="node2" class="node">
<title>1</title>
<path fill="none" stroke="#78d856" stroke-width="2" d="M237.5,-108C237.5,-108 157.5,-108 157.5,-108 151.5,-108 145.5,-102 145.5,-96 145.5,-96 145.5,-84 145.5,-84 145.5,-78 151.5,-72 157.5,-72 157.5,-72 237.5,-72 237.5,-72 243.5,-72 249.5,-78 249.5,-84 249.5,-84 249.5,-96 249.5,-96 249.5,-102 243.5,-108 237.5,-108"/>
<text text-anchor="middle" x="197.5" y="-87.5" font-family="sans" font-size="10.00">orientation_lables</text>
</g>
<!-- 1&#45;&gt;0 -->
<g id="edge1" class="edge">
<title>1&#45;&gt;0</title>
<path fill="none" stroke="grey" stroke-width="2" d="M197.5,-71.34C197.5,-64.75 197.5,-57.08 197.5,-49.67"/>
<polygon fill="grey" stroke="grey" stroke-width="2" points="201,-49.93 197.5,-39.93 194,-49.93 201,-49.93"/>
</g>
<!-- 2 -->
<g id="node3" class="node">
<title>2</title>
<path fill="none" stroke="#56d87b" stroke-width="2" d="M308.5,-180C308.5,-180 86.5,-180 86.5,-180 80.5,-180 74.5,-174 74.5,-168 74.5,-168 74.5,-156 74.5,-156 74.5,-150 80.5,-144 86.5,-144 86.5,-144 308.5,-144 308.5,-144 314.5,-144 320.5,-150 320.5,-156 320.5,-156 320.5,-168 320.5,-168 320.5,-174 314.5,-180 308.5,-180"/>
<text text-anchor="middle" x="197.5" y="-159.5" font-family="sans" font-size="10.00">phyluce_probe_slice_sequence_from_genomes</text>
</g>
<!-- 2&#45;&gt;1 -->
<g id="edge2" class="edge">
<title>2&#45;&gt;1</title>
<path fill="none" stroke="grey" stroke-width="2" d="M197.5,-143.34C197.5,-136.75 197.5,-129.08 197.5,-121.67"/>
<polygon fill="grey" stroke="grey" stroke-width="2" points="201,-121.93 197.5,-111.93 194,-121.93 201,-121.93"/>
</g>
<!-- 3 -->
<g id="node4" class="node">
<title>3</title>
<path fill="none" stroke="#56a2d8" stroke-width="2" d="M209,-252C209,-252 12,-252 12,-252 6,-252 0,-246 0,-240 0,-240 0,-228 0,-228 0,-222 6,-216 12,-216 12,-216 209,-216 209,-216 215,-216 221,-222 221,-228 221,-228 221,-240 221,-240 221,-246 215,-252 209,-252"/>
<text text-anchor="middle" x="110.5" y="-231.5" font-family="sans" font-size="10.00">phyluce_probe_run_multiple_lastzs_sqlite</text>
</g>
<!-- 3&#45;&gt;2 -->
<g id="edge3" class="edge">
<title>3&#45;&gt;2</title>
<path fill="none" stroke="grey" stroke-width="2" d="M132.45,-215.34C142.37,-207.36 154.29,-197.77 165.2,-188.99"/>
<polygon fill="grey" stroke="grey" stroke-width="2" points="167.3,-191.8 172.89,-182.8 162.91,-186.34 167.3,-191.8"/>
</g>
<!-- 4 -->
<g id="node5" class="node">
<title>4</title>
<path fill="none" stroke="#56d8c9" stroke-width="2" d="M260,-324C260,-324 135,-324 135,-324 129,-324 123,-318 123,-312 123,-312 123,-300 123,-300 123,-294 129,-288 135,-288 135,-288 260,-288 260,-288 266,-288 272,-294 272,-300 272,-300 272,-312 272,-312 272,-318 266,-324 260,-324"/>
<text text-anchor="middle" x="197.5" y="-309" font-family="sans" font-size="10.00">make_2bit</text>
<text text-anchor="middle" x="197.5" y="-298" font-family="sans" font-size="10.00">individual: NIATT_ARIZONA</text>
</g>
<!-- 4&#45;&gt;3 -->
<g id="edge5" class="edge">
<title>4&#45;&gt;3</title>
<path fill="none" stroke="grey" stroke-width="2" d="M175.55,-287.34C165.63,-279.36 153.71,-269.77 142.8,-260.99"/>
<polygon fill="grey" stroke="grey" stroke-width="2" points="145.09,-258.34 135.11,-254.8 140.7,-263.8 145.09,-258.34"/>
</g>
<!-- 5 -->
<g id="node6" class="node">
<title>5</title>
<path fill="none" stroke="#c6d856" stroke-width="2" d="M317.5,-252C317.5,-252 251.5,-252 251.5,-252 245.5,-252 239.5,-246 239.5,-240 239.5,-240 239.5,-228 239.5,-228 239.5,-222 245.5,-216 251.5,-216 251.5,-216 317.5,-216 317.5,-216 323.5,-216 329.5,-222 329.5,-228 329.5,-228 329.5,-240 329.5,-240 329.5,-246 323.5,-252 317.5,-252"/>
<text text-anchor="middle" x="284.5" y="-231.5" font-family="sans" font-size="10.00">make_conf_file</text>
</g>
<!-- 4&#45;&gt;5 -->
<g id="edge6" class="edge">
<title>4&#45;&gt;5</title>
<path fill="none" stroke="grey" stroke-width="2" d="M219.45,-287.34C229.37,-279.36 241.29,-269.77 252.2,-260.99"/>
<polygon fill="grey" stroke="grey" stroke-width="2" points="254.3,-263.8 259.89,-254.8 249.91,-258.34 254.3,-263.8"/>
</g>
<!-- 5&#45;&gt;2 -->
<g id="edge4" class="edge">
<title>5&#45;&gt;2</title>
<path fill="none" stroke="grey" stroke-width="2" d="M262.55,-215.34C252.63,-207.36 240.71,-197.77 229.8,-188.99"/>
<polygon fill="grey" stroke="grey" stroke-width="2" points="232.09,-186.34 222.11,-182.8 227.7,-191.8 232.09,-186.34"/>
</g>
</g>
</svg>
