<?xml version="1.0" encoding="UTF-8" standalone="no"?>
<!DOCTYPE svg PUBLIC "-//W3C//DTD SVG 1.1//EN"
 "http://www.w3.org/Graphics/SVG/1.1/DTD/svg11.dtd">
<!-- Generated by graphviz version 7.0.6 (20230107.1202)
 -->
<!-- Title: snakemake_dag Pages: 1 -->
<svg width="3851pt" height="404pt"
 viewBox="0.00 0.00 3851.00 404.00" xmlns="http://www.w3.org/2000/svg" xmlns:xlink="http://www.w3.org/1999/xlink">
<g id="graph0" class="graph" transform="scale(1 1) rotate(0) translate(4 400)">
<title>snakemake_dag</title>
<polygon fill="white" stroke="none" points="-4,4 -4,-400 3847,-400 3847,4 -4,4"/>
<!-- 0 -->
<g id="node1" class="node">
<title>0</title>
<path fill="none" stroke="#d8ac56" stroke-width="2" d="M1936.5,-36C1936.5,-36 1906.5,-36 1906.5,-36 1900.5,-36 1894.5,-30 1894.5,-24 1894.5,-24 1894.5,-12 1894.5,-12 1894.5,-6 1900.5,0 1906.5,0 1906.5,0 1936.5,0 1936.5,0 1942.5,0 1948.5,-6 1948.5,-12 1948.5,-12 1948.5,-24 1948.5,-24 1948.5,-30 1942.5,-36 1936.5,-36"/>
<text text-anchor="middle" x="1921.5" y="-15.5" font-family="sans" font-size="10.00">all</text>
</g>
<!-- 1 -->
<g id="node2" class="node">
<title>1</title>
<path fill="none" stroke="#d85656" stroke-width="2" d="M1966.5,-108C1966.5,-108 1876.5,-108 1876.5,-108 1870.5,-108 1864.5,-102 1864.5,-96 1864.5,-96 1864.5,-84 1864.5,-84 1864.5,-78 1870.5,-72 1876.5,-72 1876.5,-72 1966.5,-72 1966.5,-72 1972.5,-72 1978.5,-78 1978.5,-84 1978.5,-84 1978.5,-96 1978.5,-96 1978.5,-102 1972.5,-108 1966.5,-108"/>
<text text-anchor="middle" x="1921.5" y="-87.5" font-family="sans" font-size="10.00">tsv2bed_conversion</text>
</g>
<!-- 1&#45;&gt;0 -->
<g id="edge1" class="edge">
<title>1&#45;&gt;0</title>
<path fill="none" stroke="grey" stroke-width="2" d="M1921.5,-71.34C1921.5,-64.75 1921.5,-57.08 1921.5,-49.67"/>
<polygon fill="grey" stroke="grey" stroke-width="2" points="1925,-49.93 1921.5,-39.93 1918,-49.93 1925,-49.93"/>
</g>
<!-- 2 -->
<g id="node3" class="node">
<title>2</title>
<path fill="none" stroke="#afd856" stroke-width="2" d="M1949,-180C1949,-180 1894,-180 1894,-180 1888,-180 1882,-174 1882,-168 1882,-168 1882,-156 1882,-156 1882,-150 1888,-144 1894,-144 1894,-144 1949,-144 1949,-144 1955,-144 1961,-150 1961,-156 1961,-156 1961,-168 1961,-168 1961,-174 1955,-180 1949,-180"/>
<text text-anchor="middle" x="1921.5" y="-159.5" font-family="sans" font-size="10.00">convergence</text>
</g>
<!-- 2&#45;&gt;1 -->
<g id="edge2" class="edge">
<title>2&#45;&gt;1</title>
<path fill="none" stroke="grey" stroke-width="2" d="M1921.5,-143.34C1921.5,-136.75 1921.5,-129.08 1921.5,-121.67"/>
<polygon fill="grey" stroke="grey" stroke-width="2" points="1925,-121.93 1921.5,-111.93 1918,-121.93 1925,-121.93"/>
</g>
<!-- 3 -->
<g id="node4" class="node">
<title>3</title>
<path fill="none" stroke="#56a9d8" stroke-width="2" d="M80.5,-252C80.5,-252 20.5,-252 20.5,-252 14.5,-252 8.5,-246 8.5,-240 8.5,-240 8.5,-228 8.5,-228 8.5,-222 14.5,-216 20.5,-216 20.5,-216 80.5,-216 80.5,-216 86.5,-216 92.5,-222 92.5,-228 92.5,-228 92.5,-240 92.5,-240 92.5,-246 86.5,-252 80.5,-252"/>
<text text-anchor="middle" x="50.5" y="-231.5" font-family="sans" font-size="10.00">filter_mapped</text>
</g>
<!-- 3&#45;&gt;2 -->
<g id="edge3" class="edge">
<title>3&#45;&gt;2</title>
<path fill="none" stroke="grey" stroke-width="2" d="M93.3,-227.93C127.85,-224.04 177.74,-218.85 221.5,-216 869.51,-173.74 1658.75,-164.97 1868.33,-163.34"/>
<polygon fill="grey" stroke="grey" stroke-width="2" points="1868.29,-166.84 1878.27,-163.27 1868.24,-159.84 1868.29,-166.84"/>
</g>
<!-- 4 -->
<g id="node5" class="node">
<title>4</title>
<path fill="none" stroke="#59d856" stroke-width="2" d="M87,-324C87,-324 12,-324 12,-324 6,-324 0,-318 0,-312 0,-312 0,-300 0,-300 0,-294 6,-288 12,-288 12,-288 87,-288 87,-288 93,-288 99,-294 99,-300 99,-300 99,-312 99,-312 99,-318 93,-324 87,-324"/>
<text text-anchor="middle" x="49.5" y="-309" font-family="sans" font-size="10.00">Crossmap_CADD</text>
<text text-anchor="middle" x="49.5" y="-298" font-family="sans" font-size="10.00">sample: chr1</text>
</g>
<!-- 4&#45;&gt;3 -->
<g id="edge36" class="edge">
<title>4&#45;&gt;3</title>
<path fill="none" stroke="grey" stroke-width="2" d="M49.75,-287.34C49.85,-280.75 49.96,-273.08 50.06,-265.67"/>
<polygon fill="grey" stroke="grey" stroke-width="2" points="53.56,-265.98 50.2,-255.93 46.56,-265.88 53.56,-265.98"/>
</g>
<!-- 5 -->
<g id="node6" class="node">
<title>5</title>
<path fill="none" stroke="#56d8a9" stroke-width="2" stroke-dasharray="5,2" d="M79,-396C79,-396 20,-396 20,-396 14,-396 8,-390 8,-384 8,-384 8,-372 8,-372 8,-366 14,-360 20,-360 20,-360 79,-360 79,-360 85,-360 91,-366 91,-372 91,-372 91,-384 91,-384 91,-390 85,-396 79,-396"/>
<text text-anchor="middle" x="49.5" y="-381" font-family="sans" font-size="10.00">split_chCADD</text>
<text text-anchor="middle" x="49.5" y="-370" font-family="sans" font-size="10.00">sample: 1</text>
</g>
<!-- 5&#45;&gt;4 -->
<g id="edge37" class="edge">
<title>5&#45;&gt;4</title>
<path fill="none" stroke="grey" stroke-width="2" d="M49.5,-359.34C49.5,-352.75 49.5,-345.08 49.5,-337.67"/>
<polygon fill="grey" stroke="grey" stroke-width="2" points="53,-337.93 49.5,-327.93 46,-337.93 53,-337.93"/>
</g>
<!-- 6 -->
<g id="node7" class="node">
<title>6</title>
<path fill="none" stroke="#56a9d8" stroke-width="2" d="M302.5,-252C302.5,-252 242.5,-252 242.5,-252 236.5,-252 230.5,-246 230.5,-240 230.5,-240 230.5,-228 230.5,-228 230.5,-222 236.5,-216 242.5,-216 242.5,-216 302.5,-216 302.5,-216 308.5,-216 314.5,-222 314.5,-228 314.5,-228 314.5,-240 314.5,-240 314.5,-246 308.5,-252 302.5,-252"/>
<text text-anchor="middle" x="272.5" y="-231.5" font-family="sans" font-size="10.00">filter_mapped</text>
</g>
<!-- 6&#45;&gt;2 -->
<g id="edge4" class="edge">
<title>6&#45;&gt;2</title>
<path fill="none" stroke="grey" stroke-width="2" d="M315.31,-225.24C335.87,-221.82 360.89,-218.11 383.5,-216 963.71,-161.76 1671.69,-161.47 1868.54,-162.58"/>
<polygon fill="grey" stroke="grey" stroke-width="2" points="1868.24,-166.07 1878.26,-162.63 1868.28,-159.07 1868.24,-166.07"/>
</g>
<!-- 7 -->
<g id="node8" class="node">
<title>7</title>
<path fill="none" stroke="#59d856" stroke-width="2" d="M204,-324C204,-324 129,-324 129,-324 123,-324 117,-318 117,-312 117,-312 117,-300 117,-300 117,-294 123,-288 129,-288 129,-288 204,-288 204,-288 210,-288 216,-294 216,-300 216,-300 216,-312 216,-312 216,-318 210,-324 204,-324"/>
<text text-anchor="middle" x="166.5" y="-309" font-family="sans" font-size="10.00">Crossmap_CADD</text>
<text text-anchor="middle" x="166.5" y="-298" font-family="sans" font-size="10.00">sample: chr2</text>
</g>
<!-- 7&#45;&gt;6 -->
<g id="edge38" class="edge">
<title>7&#45;&gt;6</title>
<path fill="none" stroke="grey" stroke-width="2" d="M193.52,-287.15C206.11,-278.84 221.29,-268.82 234.96,-259.79"/>
<polygon fill="grey" stroke="grey" stroke-width="2" points="236.58,-262.91 243,-254.48 232.73,-257.07 236.58,-262.91"/>
</g>
<!-- 8 -->
<g id="node9" class="node">
<title>8</title>
<path fill="none" stroke="#56d8a9" stroke-width="2" stroke-dasharray="5,2" d="M196,-396C196,-396 137,-396 137,-396 131,-396 125,-390 125,-384 125,-384 125,-372 125,-372 125,-366 131,-360 137,-360 137,-360 196,-360 196,-360 202,-360 208,-366 208,-372 208,-372 208,-384 208,-384 208,-390 202,-396 196,-396"/>
<text text-anchor="middle" x="166.5" y="-381" font-family="sans" font-size="10.00">split_chCADD</text>
<text text-anchor="middle" x="166.5" y="-370" font-family="sans" font-size="10.00">sample: 2</text>
</g>
<!-- 8&#45;&gt;7 -->
<g id="edge39" class="edge">
<title>8&#45;&gt;7</title>
<path fill="none" stroke="grey" stroke-width="2" d="M166.5,-359.34C166.5,-352.75 166.5,-345.08 166.5,-337.67"/>
<polygon fill="grey" stroke="grey" stroke-width="2" points="170,-337.93 166.5,-327.93 163,-337.93 170,-337.93"/>
</g>
<!-- 9 -->
<g id="node10" class="node">
<title>9</title>
<path fill="none" stroke="#56a9d8" stroke-width="2" d="M464.5,-252C464.5,-252 404.5,-252 404.5,-252 398.5,-252 392.5,-246 392.5,-240 392.5,-240 392.5,-228 392.5,-228 392.5,-222 398.5,-216 404.5,-216 404.5,-216 464.5,-216 464.5,-216 470.5,-216 476.5,-222 476.5,-228 476.5,-228 476.5,-240 476.5,-240 476.5,-246 470.5,-252 464.5,-252"/>
<text text-anchor="middle" x="434.5" y="-231.5" font-family="sans" font-size="10.00">filter_mapped</text>
</g>
<!-- 9&#45;&gt;2 -->
<g id="edge5" class="edge">
<title>9&#45;&gt;2</title>
<path fill="none" stroke="grey" stroke-width="2" d="M477.15,-222.64C489.46,-220.03 502.95,-217.54 515.5,-216 784.72,-182.92 1645,-167.35 1868.19,-163.8"/>
<polygon fill="grey" stroke="grey" stroke-width="2" points="1868.09,-167.3 1878.04,-163.65 1867.98,-160.3 1868.09,-167.3"/>
</g>
<!-- 10 -->
<g id="node11" class="node">
<title>10</title>
<path fill="none" stroke="#59d856" stroke-width="2" d="M321,-324C321,-324 246,-324 246,-324 240,-324 234,-318 234,-312 234,-312 234,-300 234,-300 234,-294 240,-288 246,-288 246,-288 321,-288 321,-288 327,-288 333,-294 333,-300 333,-300 333,-312 333,-312 333,-318 327,-324 321,-324"/>
<text text-anchor="middle" x="283.5" y="-309" font-family="sans" font-size="10.00">Crossmap_CADD</text>
<text text-anchor="middle" x="283.5" y="-298" font-family="sans" font-size="10.00">sample: chr3</text>
</g>
<!-- 10&#45;&gt;9 -->
<g id="edge40" class="edge">
<title>10&#45;&gt;9</title>
<path fill="none" stroke="grey" stroke-width="2" d="M321.99,-287.15C340.91,-278.38 363.95,-267.71 384.24,-258.3"/>
<polygon fill="grey" stroke="grey" stroke-width="2" points="385.47,-261.59 393.07,-254.21 382.52,-255.24 385.47,-261.59"/>
</g>
<!-- 11 -->
<g id="node12" class="node">
<title>11</title>
<path fill="none" stroke="#56d8a9" stroke-width="2" stroke-dasharray="5,2" d="M313,-396C313,-396 254,-396 254,-396 248,-396 242,-390 242,-384 242,-384 242,-372 242,-372 242,-366 248,-360 254,-360 254,-360 313,-360 313,-360 319,-360 325,-366 325,-372 325,-372 325,-384 325,-384 325,-390 319,-396 313,-396"/>
<text text-anchor="middle" x="283.5" y="-381" font-family="sans" font-size="10.00">split_chCADD</text>
<text text-anchor="middle" x="283.5" y="-370" font-family="sans" font-size="10.00">sample: 3</text>
</g>
<!-- 11&#45;&gt;10 -->
<g id="edge41" class="edge">
<title>11&#45;&gt;10</title>
<path fill="none" stroke="grey" stroke-width="2" d="M283.5,-359.34C283.5,-352.75 283.5,-345.08 283.5,-337.67"/>
<polygon fill="grey" stroke="grey" stroke-width="2" points="287,-337.93 283.5,-327.93 280,-337.93 287,-337.93"/>
</g>
<!-- 12 -->
<g id="node13" class="node">
<title>12</title>
<path fill="none" stroke="#56a9d8" stroke-width="2" d="M596.5,-252C596.5,-252 536.5,-252 536.5,-252 530.5,-252 524.5,-246 524.5,-240 524.5,-240 524.5,-228 524.5,-228 524.5,-222 530.5,-216 536.5,-216 536.5,-216 596.5,-216 596.5,-216 602.5,-216 608.5,-222 608.5,-228 608.5,-228 608.5,-240 608.5,-240 608.5,-246 602.5,-252 596.5,-252"/>
<text text-anchor="middle" x="566.5" y="-231.5" font-family="sans" font-size="10.00">filter_mapped</text>
</g>
<!-- 12&#45;&gt;2 -->
<g id="edge6" class="edge">
<title>12&#45;&gt;2</title>
<path fill="none" stroke="grey" stroke-width="2" d="M609.19,-220.61C616.89,-218.77 624.89,-217.12 632.5,-216 876.94,-179.91 1657.55,-166.66 1868.52,-163.69"/>
<polygon fill="grey" stroke="grey" stroke-width="2" points="1868.32,-167.19 1878.27,-163.55 1868.22,-160.19 1868.32,-167.19"/>
</g>
<!-- 13 -->
<g id="node14" class="node">
<title>13</title>
<path fill="none" stroke="#59d856" stroke-width="2" d="M438,-324C438,-324 363,-324 363,-324 357,-324 351,-318 351,-312 351,-312 351,-300 351,-300 351,-294 357,-288 363,-288 363,-288 438,-288 438,-288 444,-288 450,-294 450,-300 450,-300 450,-312 450,-312 450,-318 444,-324 438,-324"/>
<text text-anchor="middle" x="400.5" y="-309" font-family="sans" font-size="10.00">Crossmap_CADD</text>
<text text-anchor="middle" x="400.5" y="-298" font-family="sans" font-size="10.00">sample: chr4</text>
</g>
<!-- 13&#45;&gt;12 -->
<g id="edge42" class="edge">
<title>13&#45;&gt;12</title>
<path fill="none" stroke="grey" stroke-width="2" d="M442.82,-287.15C463.91,-278.26 489.65,-267.41 512.18,-257.91"/>
<polygon fill="grey" stroke="grey" stroke-width="2" points="513.33,-261.22 521.18,-254.11 510.61,-254.77 513.33,-261.22"/>
</g>
<!-- 14 -->
<g id="node15" class="node">
<title>14</title>
<path fill="none" stroke="#56d8a9" stroke-width="2" stroke-dasharray="5,2" d="M430,-396C430,-396 371,-396 371,-396 365,-396 359,-390 359,-384 359,-384 359,-372 359,-372 359,-366 365,-360 371,-360 371,-360 430,-360 430,-360 436,-360 442,-366 442,-372 442,-372 442,-384 442,-384 442,-390 436,-396 430,-396"/>
<text text-anchor="middle" x="400.5" y="-381" font-family="sans" font-size="10.00">split_chCADD</text>
<text text-anchor="middle" x="400.5" y="-370" font-family="sans" font-size="10.00">sample: 4</text>
</g>
<!-- 14&#45;&gt;13 -->
<g id="edge43" class="edge">
<title>14&#45;&gt;13</title>
<path fill="none" stroke="grey" stroke-width="2" d="M400.5,-359.34C400.5,-352.75 400.5,-345.08 400.5,-337.67"/>
<polygon fill="grey" stroke="grey" stroke-width="2" points="404,-337.93 400.5,-327.93 397,-337.93 404,-337.93"/>
</g>
<!-- 15 -->
<g id="node16" class="node">
<title>15</title>
<path fill="none" stroke="#56a9d8" stroke-width="2" d="M713.5,-252C713.5,-252 653.5,-252 653.5,-252 647.5,-252 641.5,-246 641.5,-240 641.5,-240 641.5,-228 641.5,-228 641.5,-222 647.5,-216 653.5,-216 653.5,-216 713.5,-216 713.5,-216 719.5,-216 725.5,-222 725.5,-228 725.5,-228 725.5,-240 725.5,-240 725.5,-246 719.5,-252 713.5,-252"/>
<text text-anchor="middle" x="683.5" y="-231.5" font-family="sans" font-size="10.00">filter_mapped</text>
</g>
<!-- 15&#45;&gt;2 -->
<g id="edge7" class="edge">
<title>15&#45;&gt;2</title>
<path fill="none" stroke="grey" stroke-width="2" d="M726.31,-219.21C731.39,-217.94 736.53,-216.83 741.5,-216 962.84,-179.14 1668.09,-166.57 1868.14,-163.7"/>
<polygon fill="grey" stroke="grey" stroke-width="2" points="1868.14,-167.2 1878.09,-163.56 1868.04,-160.2 1868.14,-167.2"/>
</g>
<!-- 16 -->
<g id="node17" class="node">
<title>16</title>
<path fill="none" stroke="#59d856" stroke-width="2" d="M555,-324C555,-324 480,-324 480,-324 474,-324 468,-318 468,-312 468,-312 468,-300 468,-300 468,-294 474,-288 480,-288 480,-288 555,-288 555,-288 561,-288 567,-294 567,-300 567,-300 567,-312 567,-312 567,-318 561,-324 555,-324"/>
<text text-anchor="middle" x="517.5" y="-309" font-family="sans" font-size="10.00">Crossmap_CADD</text>
<text text-anchor="middle" x="517.5" y="-298" font-family="sans" font-size="10.00">sample: chr5</text>
</g>
<!-- 16&#45;&gt;15 -->
<g id="edge44" class="edge">
<title>16&#45;&gt;15</title>
<path fill="none" stroke="grey" stroke-width="2" d="M559.82,-287.15C580.91,-278.26 606.65,-267.41 629.18,-257.91"/>
<polygon fill="grey" stroke="grey" stroke-width="2" points="630.33,-261.22 638.18,-254.11 627.61,-254.77 630.33,-261.22"/>
</g>
<!-- 17 -->
<g id="node18" class="node">
<title>17</title>
<path fill="none" stroke="#56d8a9" stroke-width="2" stroke-dasharray="5,2" d="M547,-396C547,-396 488,-396 488,-396 482,-396 476,-390 476,-384 476,-384 476,-372 476,-372 476,-366 482,-360 488,-360 488,-360 547,-360 547,-360 553,-360 559,-366 559,-372 559,-372 559,-384 559,-384 559,-390 553,-396 547,-396"/>
<text text-anchor="middle" x="517.5" y="-381" font-family="sans" font-size="10.00">split_chCADD</text>
<text text-anchor="middle" x="517.5" y="-370" font-family="sans" font-size="10.00">sample: 5</text>
</g>
<!-- 17&#45;&gt;16 -->
<g id="edge45" class="edge">
<title>17&#45;&gt;16</title>
<path fill="none" stroke="grey" stroke-width="2" d="M517.5,-359.34C517.5,-352.75 517.5,-345.08 517.5,-337.67"/>
<polygon fill="grey" stroke="grey" stroke-width="2" points="521,-337.93 517.5,-327.93 514,-337.93 521,-337.93"/>
</g>
<!-- 18 -->
<g id="node19" class="node">
<title>18</title>
<path fill="none" stroke="#56a9d8" stroke-width="2" d="M822.5,-252C822.5,-252 762.5,-252 762.5,-252 756.5,-252 750.5,-246 750.5,-240 750.5,-240 750.5,-228 750.5,-228 750.5,-222 756.5,-216 762.5,-216 762.5,-216 822.5,-216 822.5,-216 828.5,-216 834.5,-222 834.5,-228 834.5,-228 834.5,-240 834.5,-240 834.5,-246 828.5,-252 822.5,-252"/>
<text text-anchor="middle" x="792.5" y="-231.5" font-family="sans" font-size="10.00">filter_mapped</text>
</g>
<!-- 18&#45;&gt;2 -->
<g id="edge8" class="edge">
<title>18&#45;&gt;2</title>
<path fill="none" stroke="grey" stroke-width="2" d="M835.48,-218.6C839.51,-217.59 843.56,-216.69 847.5,-216 1047.01,-180.82 1680.21,-167.2 1868.31,-163.86"/>
<polygon fill="grey" stroke="grey" stroke-width="2" points="1868.11,-167.37 1878.05,-163.69 1867.99,-160.37 1868.11,-167.37"/>
</g>
<!-- 19 -->
<g id="node20" class="node">
<title>19</title>
<path fill="none" stroke="#59d856" stroke-width="2" d="M672,-324C672,-324 597,-324 597,-324 591,-324 585,-318 585,-312 585,-312 585,-300 585,-300 585,-294 591,-288 597,-288 597,-288 672,-288 672,-288 678,-288 684,-294 684,-300 684,-300 684,-312 684,-312 684,-318 678,-324 672,-324"/>
<text text-anchor="middle" x="634.5" y="-309" font-family="sans" font-size="10.00">Crossmap_CADD</text>
<text text-anchor="middle" x="634.5" y="-298" font-family="sans" font-size="10.00">sample: chr6</text>
</g>
<!-- 19&#45;&gt;18 -->
<g id="edge46" class="edge">
<title>19&#45;&gt;18</title>
<path fill="none" stroke="grey" stroke-width="2" d="M674.78,-287.15C694.67,-278.34 718.9,-267.61 740.2,-258.17"/>
<polygon fill="grey" stroke="grey" stroke-width="2" points="741.53,-261.41 749.25,-254.16 738.69,-255.01 741.53,-261.41"/>
</g>
<!-- 20 -->
<g id="node21" class="node">
<title>20</title>
<path fill="none" stroke="#56d8a9" stroke-width="2" stroke-dasharray="5,2" d="M664,-396C664,-396 605,-396 605,-396 599,-396 593,-390 593,-384 593,-384 593,-372 593,-372 593,-366 599,-360 605,-360 605,-360 664,-360 664,-360 670,-360 676,-366 676,-372 676,-372 676,-384 676,-384 676,-390 670,-396 664,-396"/>
<text text-anchor="middle" x="634.5" y="-381" font-family="sans" font-size="10.00">split_chCADD</text>
<text text-anchor="middle" x="634.5" y="-370" font-family="sans" font-size="10.00">sample: 6</text>
</g>
<!-- 20&#45;&gt;19 -->
<g id="edge47" class="edge">
<title>20&#45;&gt;19</title>
<path fill="none" stroke="grey" stroke-width="2" d="M634.5,-359.34C634.5,-352.75 634.5,-345.08 634.5,-337.67"/>
<polygon fill="grey" stroke="grey" stroke-width="2" points="638,-337.93 634.5,-327.93 631,-337.93 638,-337.93"/>
</g>
<!-- 21 -->
<g id="node22" class="node">
<title>21</title>
<path fill="none" stroke="#56a9d8" stroke-width="2" d="M928.5,-252C928.5,-252 868.5,-252 868.5,-252 862.5,-252 856.5,-246 856.5,-240 856.5,-240 856.5,-228 856.5,-228 856.5,-222 862.5,-216 868.5,-216 868.5,-216 928.5,-216 928.5,-216 934.5,-216 940.5,-222 940.5,-228 940.5,-228 940.5,-240 940.5,-240 940.5,-246 934.5,-252 928.5,-252"/>
<text text-anchor="middle" x="898.5" y="-231.5" font-family="sans" font-size="10.00">filter_mapped</text>
</g>
<!-- 21&#45;&gt;2 -->
<g id="edge9" class="edge">
<title>21&#45;&gt;2</title>
<path fill="none" stroke="grey" stroke-width="2" d="M941.36,-218.24C944.77,-217.38 948.17,-216.61 951.5,-216 1129.71,-183.11 1692.27,-168.09 1868.31,-164.12"/>
<polygon fill="grey" stroke="grey" stroke-width="2" points="1868.32,-167.62 1878.24,-163.9 1868.16,-160.62 1868.32,-167.62"/>
</g>
<!-- 22 -->
<g id="node23" class="node">
<title>22</title>
<path fill="none" stroke="#59d856" stroke-width="2" d="M789,-324C789,-324 714,-324 714,-324 708,-324 702,-318 702,-312 702,-312 702,-300 702,-300 702,-294 708,-288 714,-288 714,-288 789,-288 789,-288 795,-288 801,-294 801,-300 801,-300 801,-312 801,-312 801,-318 795,-324 789,-324"/>
<text text-anchor="middle" x="751.5" y="-309" font-family="sans" font-size="10.00">Crossmap_CADD</text>
<text text-anchor="middle" x="751.5" y="-298" font-family="sans" font-size="10.00">sample: chr7</text>
</g>
<!-- 22&#45;&gt;21 -->
<g id="edge48" class="edge">
<title>22&#45;&gt;21</title>
<path fill="none" stroke="grey" stroke-width="2" d="M788.97,-287.15C807.31,-278.43 829.61,-267.81 849.29,-258.43"/>
<polygon fill="grey" stroke="grey" stroke-width="2" points="850.58,-261.69 858.11,-254.24 847.57,-255.37 850.58,-261.69"/>
</g>
<!-- 23 -->
<g id="node24" class="node">
<title>23</title>
<path fill="none" stroke="#56d8a9" stroke-width="2" stroke-dasharray="5,2" d="M781,-396C781,-396 722,-396 722,-396 716,-396 710,-390 710,-384 710,-384 710,-372 710,-372 710,-366 716,-360 722,-360 722,-360 781,-360 781,-360 787,-360 793,-366 793,-372 793,-372 793,-384 793,-384 793,-390 787,-396 781,-396"/>
<text text-anchor="middle" x="751.5" y="-381" font-family="sans" font-size="10.00">split_chCADD</text>
<text text-anchor="middle" x="751.5" y="-370" font-family="sans" font-size="10.00">sample: 7</text>
</g>
<!-- 23&#45;&gt;22 -->
<g id="edge49" class="edge">
<title>23&#45;&gt;22</title>
<path fill="none" stroke="grey" stroke-width="2" d="M751.5,-359.34C751.5,-352.75 751.5,-345.08 751.5,-337.67"/>
<polygon fill="grey" stroke="grey" stroke-width="2" points="755,-337.93 751.5,-327.93 748,-337.93 755,-337.93"/>
</g>
<!-- 24 -->
<g id="node25" class="node">
<title>24</title>
<path fill="none" stroke="#56a9d8" stroke-width="2" d="M1032.5,-252C1032.5,-252 972.5,-252 972.5,-252 966.5,-252 960.5,-246 960.5,-240 960.5,-240 960.5,-228 960.5,-228 960.5,-222 966.5,-216 972.5,-216 972.5,-216 1032.5,-216 1032.5,-216 1038.5,-216 1044.5,-222 1044.5,-228 1044.5,-228 1044.5,-240 1044.5,-240 1044.5,-246 1038.5,-252 1032.5,-252"/>
<text text-anchor="middle" x="1002.5" y="-231.5" font-family="sans" font-size="10.00">filter_mapped</text>
</g>
<!-- 24&#45;&gt;2 -->
<g id="edge10" class="edge">
<title>24&#45;&gt;2</title>
<path fill="none" stroke="grey" stroke-width="2" d="M1045.41,-218.04C1048.46,-217.26 1051.51,-216.57 1054.5,-216 1211.73,-186 1704.37,-169.31 1868.04,-164.48"/>
<polygon fill="grey" stroke="grey" stroke-width="2" points="1868.13,-167.98 1878.02,-164.19 1867.92,-160.99 1868.13,-167.98"/>
</g>
<!-- 25 -->
<g id="node26" class="node">
<title>25</title>
<path fill="none" stroke="#59d856" stroke-width="2" d="M906,-324C906,-324 831,-324 831,-324 825,-324 819,-318 819,-312 819,-312 819,-300 819,-300 819,-294 825,-288 831,-288 831,-288 906,-288 906,-288 912,-288 918,-294 918,-300 918,-300 918,-312 918,-312 918,-318 912,-324 906,-324"/>
<text text-anchor="middle" x="868.5" y="-309" font-family="sans" font-size="10.00">Crossmap_CADD</text>
<text text-anchor="middle" x="868.5" y="-298" font-family="sans" font-size="10.00">sample: chr8</text>
</g>
<!-- 25&#45;&gt;24 -->
<g id="edge50" class="edge">
<title>25&#45;&gt;24</title>
<path fill="none" stroke="grey" stroke-width="2" d="M902.66,-287.15C919.2,-278.52 939.28,-268.02 957.09,-258.72"/>
<polygon fill="grey" stroke="grey" stroke-width="2" points="958.48,-261.95 965.72,-254.21 955.23,-255.74 958.48,-261.95"/>
</g>
<!-- 26 -->
<g id="node27" class="node">
<title>26</title>
<path fill="none" stroke="#56d8a9" stroke-width="2" stroke-dasharray="5,2" d="M898,-396C898,-396 839,-396 839,-396 833,-396 827,-390 827,-384 827,-384 827,-372 827,-372 827,-366 833,-360 839,-360 839,-360 898,-360 898,-360 904,-360 910,-366 910,-372 910,-372 910,-384 910,-384 910,-390 904,-396 898,-396"/>
<text text-anchor="middle" x="868.5" y="-381" font-family="sans" font-size="10.00">split_chCADD</text>
<text text-anchor="middle" x="868.5" y="-370" font-family="sans" font-size="10.00">sample: 8</text>
</g>
<!-- 26&#45;&gt;25 -->
<g id="edge51" class="edge">
<title>26&#45;&gt;25</title>
<path fill="none" stroke="grey" stroke-width="2" d="M868.5,-359.34C868.5,-352.75 868.5,-345.08 868.5,-337.67"/>
<polygon fill="grey" stroke="grey" stroke-width="2" points="872,-337.93 868.5,-327.93 865,-337.93 872,-337.93"/>
</g>
<!-- 27 -->
<g id="node28" class="node">
<title>27</title>
<path fill="none" stroke="#56a9d8" stroke-width="2" d="M1135.5,-252C1135.5,-252 1075.5,-252 1075.5,-252 1069.5,-252 1063.5,-246 1063.5,-240 1063.5,-240 1063.5,-228 1063.5,-228 1063.5,-222 1069.5,-216 1075.5,-216 1075.5,-216 1135.5,-216 1135.5,-216 1141.5,-216 1147.5,-222 1147.5,-228 1147.5,-228 1147.5,-240 1147.5,-240 1147.5,-246 1141.5,-252 1135.5,-252"/>
<text text-anchor="middle" x="1105.5" y="-231.5" font-family="sans" font-size="10.00">filter_mapped</text>
</g>
<!-- 27&#45;&gt;2 -->
<g id="edge11" class="edge">
<title>27&#45;&gt;2</title>
<path fill="none" stroke="grey" stroke-width="2" d="M1148.42,-217.84C1151.14,-217.15 1153.84,-216.53 1156.5,-216 1293.25,-188.92 1718.24,-170.68 1868.34,-164.94"/>
<polygon fill="grey" stroke="grey" stroke-width="2" points="1868.28,-168.44 1878.14,-164.56 1868.01,-161.45 1868.28,-168.44"/>
</g>
<!-- 28 -->
<g id="node29" class="node">
<title>28</title>
<path fill="none" stroke="#59d856" stroke-width="2" d="M1023,-324C1023,-324 948,-324 948,-324 942,-324 936,-318 936,-312 936,-312 936,-300 936,-300 936,-294 942,-288 948,-288 948,-288 1023,-288 1023,-288 1029,-288 1035,-294 1035,-300 1035,-300 1035,-312 1035,-312 1035,-318 1029,-324 1023,-324"/>
<text text-anchor="middle" x="985.5" y="-309" font-family="sans" font-size="10.00">Crossmap_CADD</text>
<text text-anchor="middle" x="985.5" y="-298" font-family="sans" font-size="10.00">sample: chr9</text>
</g>
<!-- 28&#45;&gt;27 -->
<g id="edge52" class="edge">
<title>28&#45;&gt;27</title>
<path fill="none" stroke="grey" stroke-width="2" d="M1016.09,-287.15C1030.62,-278.68 1048.2,-268.42 1063.92,-259.25"/>
<polygon fill="grey" stroke="grey" stroke-width="2" points="1065.48,-262.4 1072.35,-254.34 1061.95,-256.35 1065.48,-262.4"/>
</g>
<!-- 29 -->
<g id="node30" class="node">
<title>29</title>
<path fill="none" stroke="#56d8a9" stroke-width="2" stroke-dasharray="5,2" d="M1015,-396C1015,-396 956,-396 956,-396 950,-396 944,-390 944,-384 944,-384 944,-372 944,-372 944,-366 950,-360 956,-360 956,-360 1015,-360 1015,-360 1021,-360 1027,-366 1027,-372 1027,-372 1027,-384 1027,-384 1027,-390 1021,-396 1015,-396"/>
<text text-anchor="middle" x="985.5" y="-381" font-family="sans" font-size="10.00">split_chCADD</text>
<text text-anchor="middle" x="985.5" y="-370" font-family="sans" font-size="10.00">sample: 9</text>
</g>
<!-- 29&#45;&gt;28 -->
<g id="edge53" class="edge">
<title>29&#45;&gt;28</title>
<path fill="none" stroke="grey" stroke-width="2" d="M985.5,-359.34C985.5,-352.75 985.5,-345.08 985.5,-337.67"/>
<polygon fill="grey" stroke="grey" stroke-width="2" points="989,-337.93 985.5,-327.93 982,-337.93 989,-337.93"/>
</g>
<!-- 30 -->
<g id="node31" class="node">
<title>30</title>
<path fill="none" stroke="#56a9d8" stroke-width="2" d="M1237.5,-252C1237.5,-252 1177.5,-252 1177.5,-252 1171.5,-252 1165.5,-246 1165.5,-240 1165.5,-240 1165.5,-228 1165.5,-228 1165.5,-222 1171.5,-216 1177.5,-216 1177.5,-216 1237.5,-216 1237.5,-216 1243.5,-216 1249.5,-222 1249.5,-228 1249.5,-228 1249.5,-240 1249.5,-240 1249.5,-246 1243.5,-252 1237.5,-252"/>
<text text-anchor="middle" x="1207.5" y="-231.5" font-family="sans" font-size="10.00">filter_mapped</text>
</g>
<!-- 30&#45;&gt;2 -->
<g id="edge12" class="edge">
<title>30&#45;&gt;2</title>
<path fill="none" stroke="grey" stroke-width="2" d="M1250.43,-217.88C1253.14,-217.18 1255.85,-216.54 1258.5,-216 1481.9,-170.54 1755.06,-163.67 1868.35,-162.91"/>
<polygon fill="grey" stroke="grey" stroke-width="2" points="1868.04,-166.42 1878.02,-162.87 1868,-159.42 1868.04,-166.42"/>
</g>
<!-- 31 -->
<g id="node32" class="node">
<title>31</title>
<path fill="none" stroke="#59d856" stroke-width="2" d="M1140,-324C1140,-324 1065,-324 1065,-324 1059,-324 1053,-318 1053,-312 1053,-312 1053,-300 1053,-300 1053,-294 1059,-288 1065,-288 1065,-288 1140,-288 1140,-288 1146,-288 1152,-294 1152,-300 1152,-300 1152,-312 1152,-312 1152,-318 1146,-324 1140,-324"/>
<text text-anchor="middle" x="1102.5" y="-309" font-family="sans" font-size="10.00">Crossmap_CADD</text>
<text text-anchor="middle" x="1102.5" y="-298" font-family="sans" font-size="10.00">sample: chr10</text>
</g>
<!-- 31&#45;&gt;30 -->
<g id="edge54" class="edge">
<title>31&#45;&gt;30</title>
<path fill="none" stroke="grey" stroke-width="2" d="M1129.27,-287.15C1141.73,-278.84 1156.77,-268.82 1170.32,-259.79"/>
<polygon fill="grey" stroke="grey" stroke-width="2" points="1171.88,-262.95 1178.26,-254.49 1168,-257.13 1171.88,-262.95"/>
</g>
<!-- 32 -->
<g id="node33" class="node">
<title>32</title>
<path fill="none" stroke="#56d8a9" stroke-width="2" stroke-dasharray="5,2" d="M1132,-396C1132,-396 1073,-396 1073,-396 1067,-396 1061,-390 1061,-384 1061,-384 1061,-372 1061,-372 1061,-366 1067,-360 1073,-360 1073,-360 1132,-360 1132,-360 1138,-360 1144,-366 1144,-372 1144,-372 1144,-384 1144,-384 1144,-390 1138,-396 1132,-396"/>
<text text-anchor="middle" x="1102.5" y="-381" font-family="sans" font-size="10.00">split_chCADD</text>
<text text-anchor="middle" x="1102.5" y="-370" font-family="sans" font-size="10.00">sample: 10</text>
</g>
<!-- 32&#45;&gt;31 -->
<g id="edge55" class="edge">
<title>32&#45;&gt;31</title>
<path fill="none" stroke="grey" stroke-width="2" d="M1102.5,-359.34C1102.5,-352.75 1102.5,-345.08 1102.5,-337.67"/>
<polygon fill="grey" stroke="grey" stroke-width="2" points="1106,-337.93 1102.5,-327.93 1099,-337.93 1106,-337.93"/>
</g>
<!-- 33 -->
<g id="node34" class="node">
<title>33</title>
<path fill="none" stroke="#56a9d8" stroke-width="2" d="M1339.5,-252C1339.5,-252 1279.5,-252 1279.5,-252 1273.5,-252 1267.5,-246 1267.5,-240 1267.5,-240 1267.5,-228 1267.5,-228 1267.5,-222 1273.5,-216 1279.5,-216 1279.5,-216 1339.5,-216 1339.5,-216 1345.5,-216 1351.5,-222 1351.5,-228 1351.5,-228 1351.5,-240 1351.5,-240 1351.5,-246 1345.5,-252 1339.5,-252"/>
<text text-anchor="middle" x="1309.5" y="-231.5" font-family="sans" font-size="10.00">filter_mapped</text>
</g>
<!-- 33&#45;&gt;2 -->
<g id="edge13" class="edge">
<title>33&#45;&gt;2</title>
<path fill="none" stroke="grey" stroke-width="2" d="M1352.44,-217.92C1355.15,-217.21 1357.85,-216.56 1360.5,-216 1544.4,-177.19 1768.24,-166.78 1868.5,-164"/>
<polygon fill="grey" stroke="grey" stroke-width="2" points="1868.31,-167.51 1878.21,-163.75 1868.13,-160.51 1868.31,-167.51"/>
</g>
<!-- 34 -->
<g id="node35" class="node">
<title>34</title>
<path fill="none" stroke="#59d856" stroke-width="2" d="M1257,-324C1257,-324 1182,-324 1182,-324 1176,-324 1170,-318 1170,-312 1170,-312 1170,-300 1170,-300 1170,-294 1176,-288 1182,-288 1182,-288 1257,-288 1257,-288 1263,-288 1269,-294 1269,-300 1269,-300 1269,-312 1269,-312 1269,-318 1263,-324 1257,-324"/>
<text text-anchor="middle" x="1219.5" y="-309" font-family="sans" font-size="10.00">Crossmap_CADD</text>
<text text-anchor="middle" x="1219.5" y="-298" font-family="sans" font-size="10.00">sample: chr11</text>
</g>
<!-- 34&#45;&gt;33 -->
<g id="edge56" class="edge">
<title>34&#45;&gt;33</title>
<path fill="none" stroke="grey" stroke-width="2" d="M1242.21,-287.34C1252.58,-279.27 1265.05,-269.57 1276.43,-260.72"/>
<polygon fill="grey" stroke="grey" stroke-width="2" points="1278.35,-263.66 1284.09,-254.76 1274.05,-258.14 1278.35,-263.66"/>
</g>
<!-- 35 -->
<g id="node36" class="node">
<title>35</title>
<path fill="none" stroke="#56d8a9" stroke-width="2" stroke-dasharray="5,2" d="M1249,-396C1249,-396 1190,-396 1190,-396 1184,-396 1178,-390 1178,-384 1178,-384 1178,-372 1178,-372 1178,-366 1184,-360 1190,-360 1190,-360 1249,-360 1249,-360 1255,-360 1261,-366 1261,-372 1261,-372 1261,-384 1261,-384 1261,-390 1255,-396 1249,-396"/>
<text text-anchor="middle" x="1219.5" y="-381" font-family="sans" font-size="10.00">split_chCADD</text>
<text text-anchor="middle" x="1219.5" y="-370" font-family="sans" font-size="10.00">sample: 11</text>
</g>
<!-- 35&#45;&gt;34 -->
<g id="edge57" class="edge">
<title>35&#45;&gt;34</title>
<path fill="none" stroke="grey" stroke-width="2" d="M1219.5,-359.34C1219.5,-352.75 1219.5,-345.08 1219.5,-337.67"/>
<polygon fill="grey" stroke="grey" stroke-width="2" points="1223,-337.93 1219.5,-327.93 1216,-337.93 1223,-337.93"/>
</g>
<!-- 36 -->
<g id="node37" class="node">
<title>36</title>
<path fill="none" stroke="#56a9d8" stroke-width="2" d="M1441.5,-252C1441.5,-252 1381.5,-252 1381.5,-252 1375.5,-252 1369.5,-246 1369.5,-240 1369.5,-240 1369.5,-228 1369.5,-228 1369.5,-222 1375.5,-216 1381.5,-216 1381.5,-216 1441.5,-216 1441.5,-216 1447.5,-216 1453.5,-222 1453.5,-228 1453.5,-228 1453.5,-240 1453.5,-240 1453.5,-246 1447.5,-252 1441.5,-252"/>
<text text-anchor="middle" x="1411.5" y="-231.5" font-family="sans" font-size="10.00">filter_mapped</text>
</g>
<!-- 36&#45;&gt;2 -->
<g id="edge14" class="edge">
<title>36&#45;&gt;2</title>
<path fill="none" stroke="grey" stroke-width="2" d="M1454.45,-217.99C1457.16,-217.26 1459.86,-216.59 1462.5,-216 1607.23,-183.89 1782.21,-170.52 1868.34,-165.57"/>
<polygon fill="grey" stroke="grey" stroke-width="2" points="1868.32,-169.07 1878.11,-165.02 1867.93,-162.08 1868.32,-169.07"/>
</g>
<!-- 37 -->
<g id="node38" class="node">
<title>37</title>
<path fill="none" stroke="#59d856" stroke-width="2" d="M1374,-324C1374,-324 1299,-324 1299,-324 1293,-324 1287,-318 1287,-312 1287,-312 1287,-300 1287,-300 1287,-294 1293,-288 1299,-288 1299,-288 1374,-288 1374,-288 1380,-288 1386,-294 1386,-300 1386,-300 1386,-312 1386,-312 1386,-318 1380,-324 1374,-324"/>
<text text-anchor="middle" x="1336.5" y="-309" font-family="sans" font-size="10.00">Crossmap_CADD</text>
<text text-anchor="middle" x="1336.5" y="-298" font-family="sans" font-size="10.00">sample: chr12</text>
</g>
<!-- 37&#45;&gt;36 -->
<g id="edge58" class="edge">
<title>37&#45;&gt;36</title>
<path fill="none" stroke="grey" stroke-width="2" d="M1355.43,-287.34C1363.8,-279.52 1373.83,-270.16 1383.07,-261.53"/>
<polygon fill="grey" stroke="grey" stroke-width="2" points="1385.18,-264.35 1390.11,-254.97 1380.41,-259.23 1385.18,-264.35"/>
</g>
<!-- 38 -->
<g id="node39" class="node">
<title>38</title>
<path fill="none" stroke="#56d8a9" stroke-width="2" stroke-dasharray="5,2" d="M1366,-396C1366,-396 1307,-396 1307,-396 1301,-396 1295,-390 1295,-384 1295,-384 1295,-372 1295,-372 1295,-366 1301,-360 1307,-360 1307,-360 1366,-360 1366,-360 1372,-360 1378,-366 1378,-372 1378,-372 1378,-384 1378,-384 1378,-390 1372,-396 1366,-396"/>
<text text-anchor="middle" x="1336.5" y="-381" font-family="sans" font-size="10.00">split_chCADD</text>
<text text-anchor="middle" x="1336.5" y="-370" font-family="sans" font-size="10.00">sample: 12</text>
</g>
<!-- 38&#45;&gt;37 -->
<g id="edge59" class="edge">
<title>38&#45;&gt;37</title>
<path fill="none" stroke="grey" stroke-width="2" d="M1336.5,-359.34C1336.5,-352.75 1336.5,-345.08 1336.5,-337.67"/>
<polygon fill="grey" stroke="grey" stroke-width="2" points="1340,-337.93 1336.5,-327.93 1333,-337.93 1340,-337.93"/>
</g>
<!-- 39 -->
<g id="node40" class="node">
<title>39</title>
<path fill="none" stroke="#56a9d8" stroke-width="2" d="M1543.5,-252C1543.5,-252 1483.5,-252 1483.5,-252 1477.5,-252 1471.5,-246 1471.5,-240 1471.5,-240 1471.5,-228 1471.5,-228 1471.5,-222 1477.5,-216 1483.5,-216 1483.5,-216 1543.5,-216 1543.5,-216 1549.5,-216 1555.5,-222 1555.5,-228 1555.5,-228 1555.5,-240 1555.5,-240 1555.5,-246 1549.5,-252 1543.5,-252"/>
<text text-anchor="middle" x="1513.5" y="-231.5" font-family="sans" font-size="10.00">filter_mapped</text>
</g>
<!-- 39&#45;&gt;2 -->
<g id="edge15" class="edge">
<title>39&#45;&gt;2</title>
<path fill="none" stroke="grey" stroke-width="2" d="M1556.48,-218.09C1559.18,-217.33 1561.87,-216.63 1564.5,-216 1670.85,-190.59 1798.09,-175.19 1868.33,-167.97"/>
<polygon fill="grey" stroke="grey" stroke-width="2" points="1868.57,-171.46 1878.17,-166.98 1867.87,-164.5 1868.57,-171.46"/>
</g>
<!-- 40 -->
<g id="node41" class="node">
<title>40</title>
<path fill="none" stroke="#59d856" stroke-width="2" d="M1491,-324C1491,-324 1416,-324 1416,-324 1410,-324 1404,-318 1404,-312 1404,-312 1404,-300 1404,-300 1404,-294 1410,-288 1416,-288 1416,-288 1491,-288 1491,-288 1497,-288 1503,-294 1503,-300 1503,-300 1503,-312 1503,-312 1503,-318 1497,-324 1491,-324"/>
<text text-anchor="middle" x="1453.5" y="-309" font-family="sans" font-size="10.00">Crossmap_CADD</text>
<text text-anchor="middle" x="1453.5" y="-298" font-family="sans" font-size="10.00">sample: chr13</text>
</g>
<!-- 40&#45;&gt;39 -->
<g id="edge60" class="edge">
<title>40&#45;&gt;39</title>
<path fill="none" stroke="grey" stroke-width="2" d="M1468.64,-287.34C1475.06,-279.85 1482.69,-270.95 1489.82,-262.63"/>
<polygon fill="grey" stroke="grey" stroke-width="2" points="1492.34,-265.07 1496.19,-255.2 1487.02,-260.51 1492.34,-265.07"/>
</g>
<!-- 41 -->
<g id="node42" class="node">
<title>41</title>
<path fill="none" stroke="#56d8a9" stroke-width="2" stroke-dasharray="5,2" d="M1483,-396C1483,-396 1424,-396 1424,-396 1418,-396 1412,-390 1412,-384 1412,-384 1412,-372 1412,-372 1412,-366 1418,-360 1424,-360 1424,-360 1483,-360 1483,-360 1489,-360 1495,-366 1495,-372 1495,-372 1495,-384 1495,-384 1495,-390 1489,-396 1483,-396"/>
<text text-anchor="middle" x="1453.5" y="-381" font-family="sans" font-size="10.00">split_chCADD</text>
<text text-anchor="middle" x="1453.5" y="-370" font-family="sans" font-size="10.00">sample: 13</text>
</g>
<!-- 41&#45;&gt;40 -->
<g id="edge61" class="edge">
<title>41&#45;&gt;40</title>
<path fill="none" stroke="grey" stroke-width="2" d="M1453.5,-359.34C1453.5,-352.75 1453.5,-345.08 1453.5,-337.67"/>
<polygon fill="grey" stroke="grey" stroke-width="2" points="1457,-337.93 1453.5,-327.93 1450,-337.93 1457,-337.93"/>
</g>
<!-- 42 -->
<g id="node43" class="node">
<title>42</title>
<path fill="none" stroke="#56a9d8" stroke-width="2" d="M1645.5,-252C1645.5,-252 1585.5,-252 1585.5,-252 1579.5,-252 1573.5,-246 1573.5,-240 1573.5,-240 1573.5,-228 1573.5,-228 1573.5,-222 1579.5,-216 1585.5,-216 1585.5,-216 1645.5,-216 1645.5,-216 1651.5,-216 1657.5,-222 1657.5,-228 1657.5,-228 1657.5,-240 1657.5,-240 1657.5,-246 1651.5,-252 1645.5,-252"/>
<text text-anchor="middle" x="1615.5" y="-231.5" font-family="sans" font-size="10.00">filter_mapped</text>
</g>
<!-- 42&#45;&gt;2 -->
<g id="edge16" class="edge">
<title>42&#45;&gt;2</title>
<path fill="none" stroke="grey" stroke-width="2" d="M1658.24,-218.35C1661.03,-217.52 1663.8,-216.73 1666.5,-216 1735.73,-197.34 1817.02,-181.46 1868.88,-172.08"/>
<polygon fill="grey" stroke="grey" stroke-width="2" points="1869.2,-175.58 1878.43,-170.37 1867.97,-168.69 1869.2,-175.58"/>
</g>
<!-- 43 -->
<g id="node44" class="node">
<title>43</title>
<path fill="none" stroke="#59d856" stroke-width="2" d="M1608,-324C1608,-324 1533,-324 1533,-324 1527,-324 1521,-318 1521,-312 1521,-312 1521,-300 1521,-300 1521,-294 1527,-288 1533,-288 1533,-288 1608,-288 1608,-288 1614,-288 1620,-294 1620,-300 1620,-300 1620,-312 1620,-312 1620,-318 1614,-324 1608,-324"/>
<text text-anchor="middle" x="1570.5" y="-309" font-family="sans" font-size="10.00">Crossmap_CADD</text>
<text text-anchor="middle" x="1570.5" y="-298" font-family="sans" font-size="10.00">sample: chr14</text>
</g>
<!-- 43&#45;&gt;42 -->
<g id="edge62" class="edge">
<title>43&#45;&gt;42</title>
<path fill="none" stroke="grey" stroke-width="2" d="M1581.86,-287.34C1586.46,-280.18 1591.89,-271.73 1597.03,-263.73"/>
<polygon fill="grey" stroke="grey" stroke-width="2" points="1599.89,-265.75 1602.35,-255.45 1594,-261.97 1599.89,-265.75"/>
</g>
<!-- 44 -->
<g id="node45" class="node">
<title>44</title>
<path fill="none" stroke="#56d8a9" stroke-width="2" stroke-dasharray="5,2" d="M1600,-396C1600,-396 1541,-396 1541,-396 1535,-396 1529,-390 1529,-384 1529,-384 1529,-372 1529,-372 1529,-366 1535,-360 1541,-360 1541,-360 1600,-360 1600,-360 1606,-360 1612,-366 1612,-372 1612,-372 1612,-384 1612,-384 1612,-390 1606,-396 1600,-396"/>
<text text-anchor="middle" x="1570.5" y="-381" font-family="sans" font-size="10.00">split_chCADD</text>
<text text-anchor="middle" x="1570.5" y="-370" font-family="sans" font-size="10.00">sample: 14</text>
</g>
<!-- 44&#45;&gt;43 -->
<g id="edge63" class="edge">
<title>44&#45;&gt;43</title>
<path fill="none" stroke="grey" stroke-width="2" d="M1570.5,-359.34C1570.5,-352.75 1570.5,-345.08 1570.5,-337.67"/>
<polygon fill="grey" stroke="grey" stroke-width="2" points="1574,-337.93 1570.5,-327.93 1567,-337.93 1574,-337.93"/>
</g>
<!-- 45 -->
<g id="node46" class="node">
<title>45</title>
<path fill="none" stroke="#56a9d8" stroke-width="2" d="M1747.5,-252C1747.5,-252 1687.5,-252 1687.5,-252 1681.5,-252 1675.5,-246 1675.5,-240 1675.5,-240 1675.5,-228 1675.5,-228 1675.5,-222 1681.5,-216 1687.5,-216 1687.5,-216 1747.5,-216 1747.5,-216 1753.5,-216 1759.5,-222 1759.5,-228 1759.5,-228 1759.5,-240 1759.5,-240 1759.5,-246 1753.5,-252 1747.5,-252"/>
<text text-anchor="middle" x="1717.5" y="-231.5" font-family="sans" font-size="10.00">filter_mapped</text>
</g>
<!-- 45&#45;&gt;2 -->
<g id="edge17" class="edge">
<title>45&#45;&gt;2</title>
<path fill="none" stroke="grey" stroke-width="2" d="M1760.27,-218.33C1792,-207.44 1835.45,-192.53 1869.24,-180.93"/>
<polygon fill="grey" stroke="grey" stroke-width="2" points="1870.03,-184.36 1878.36,-177.8 1867.76,-177.74 1870.03,-184.36"/>
</g>
<!-- 46 -->
<g id="node47" class="node">
<title>46</title>
<path fill="none" stroke="#59d856" stroke-width="2" d="M1725,-324C1725,-324 1650,-324 1650,-324 1644,-324 1638,-318 1638,-312 1638,-312 1638,-300 1638,-300 1638,-294 1644,-288 1650,-288 1650,-288 1725,-288 1725,-288 1731,-288 1737,-294 1737,-300 1737,-300 1737,-312 1737,-312 1737,-318 1731,-324 1725,-324"/>
<text text-anchor="middle" x="1687.5" y="-309" font-family="sans" font-size="10.00">Crossmap_CADD</text>
<text text-anchor="middle" x="1687.5" y="-298" font-family="sans" font-size="10.00">sample: chr15</text>
</g>
<!-- 46&#45;&gt;45 -->
<g id="edge64" class="edge">
<title>46&#45;&gt;45</title>
<path fill="none" stroke="grey" stroke-width="2" d="M1695.07,-287.34C1698,-280.51 1701.43,-272.5 1704.71,-264.83"/>
<polygon fill="grey" stroke="grey" stroke-width="2" points="1707.91,-266.25 1708.64,-255.68 1701.48,-263.5 1707.91,-266.25"/>
</g>
<!-- 47 -->
<g id="node48" class="node">
<title>47</title>
<path fill="none" stroke="#56d8a9" stroke-width="2" stroke-dasharray="5,2" d="M1717,-396C1717,-396 1658,-396 1658,-396 1652,-396 1646,-390 1646,-384 1646,-384 1646,-372 1646,-372 1646,-366 1652,-360 1658,-360 1658,-360 1717,-360 1717,-360 1723,-360 1729,-366 1729,-372 1729,-372 1729,-384 1729,-384 1729,-390 1723,-396 1717,-396"/>
<text text-anchor="middle" x="1687.5" y="-381" font-family="sans" font-size="10.00">split_chCADD</text>
<text text-anchor="middle" x="1687.5" y="-370" font-family="sans" font-size="10.00">sample: 15</text>
</g>
<!-- 47&#45;&gt;46 -->
<g id="edge65" class="edge">
<title>47&#45;&gt;46</title>
<path fill="none" stroke="grey" stroke-width="2" d="M1687.5,-359.34C1687.5,-352.75 1687.5,-345.08 1687.5,-337.67"/>
<polygon fill="grey" stroke="grey" stroke-width="2" points="1691,-337.93 1687.5,-327.93 1684,-337.93 1691,-337.93"/>
</g>
<!-- 48 -->
<g id="node49" class="node">
<title>48</title>
<path fill="none" stroke="#56a9d8" stroke-width="2" d="M1849.5,-252C1849.5,-252 1789.5,-252 1789.5,-252 1783.5,-252 1777.5,-246 1777.5,-240 1777.5,-240 1777.5,-228 1777.5,-228 1777.5,-222 1783.5,-216 1789.5,-216 1789.5,-216 1849.5,-216 1849.5,-216 1855.5,-216 1861.5,-222 1861.5,-228 1861.5,-228 1861.5,-240 1861.5,-240 1861.5,-246 1855.5,-252 1849.5,-252"/>
<text text-anchor="middle" x="1819.5" y="-231.5" font-family="sans" font-size="10.00">filter_mapped</text>
</g>
<!-- 48&#45;&gt;2 -->
<g id="edge18" class="edge">
<title>48&#45;&gt;2</title>
<path fill="none" stroke="grey" stroke-width="2" d="M1845.5,-215.15C1857.49,-206.93 1871.93,-197.02 1884.99,-188.06"/>
<polygon fill="grey" stroke="grey" stroke-width="2" points="1886.78,-191.07 1893.05,-182.53 1882.82,-185.3 1886.78,-191.07"/>
</g>
<!-- 49 -->
<g id="node50" class="node">
<title>49</title>
<path fill="none" stroke="#59d856" stroke-width="2" d="M1842,-324C1842,-324 1767,-324 1767,-324 1761,-324 1755,-318 1755,-312 1755,-312 1755,-300 1755,-300 1755,-294 1761,-288 1767,-288 1767,-288 1842,-288 1842,-288 1848,-288 1854,-294 1854,-300 1854,-300 1854,-312 1854,-312 1854,-318 1848,-324 1842,-324"/>
<text text-anchor="middle" x="1804.5" y="-309" font-family="sans" font-size="10.00">Crossmap_CADD</text>
<text text-anchor="middle" x="1804.5" y="-298" font-family="sans" font-size="10.00">sample: chr16</text>
</g>
<!-- 49&#45;&gt;48 -->
<g id="edge66" class="edge">
<title>49&#45;&gt;48</title>
<path fill="none" stroke="grey" stroke-width="2" d="M1808.29,-287.34C1809.71,-280.67 1811.38,-272.89 1812.99,-265.39"/>
<polygon fill="grey" stroke="grey" stroke-width="2" points="1816.36,-266.37 1815.03,-255.86 1809.51,-264.91 1816.36,-266.37"/>
</g>
<!-- 50 -->
<g id="node51" class="node">
<title>50</title>
<path fill="none" stroke="#56d8a9" stroke-width="2" stroke-dasharray="5,2" d="M1834,-396C1834,-396 1775,-396 1775,-396 1769,-396 1763,-390 1763,-384 1763,-384 1763,-372 1763,-372 1763,-366 1769,-360 1775,-360 1775,-360 1834,-360 1834,-360 1840,-360 1846,-366 1846,-372 1846,-372 1846,-384 1846,-384 1846,-390 1840,-396 1834,-396"/>
<text text-anchor="middle" x="1804.5" y="-381" font-family="sans" font-size="10.00">split_chCADD</text>
<text text-anchor="middle" x="1804.5" y="-370" font-family="sans" font-size="10.00">sample: 16</text>
</g>
<!-- 50&#45;&gt;49 -->
<g id="edge67" class="edge">
<title>50&#45;&gt;49</title>
<path fill="none" stroke="grey" stroke-width="2" d="M1804.5,-359.34C1804.5,-352.75 1804.5,-345.08 1804.5,-337.67"/>
<polygon fill="grey" stroke="grey" stroke-width="2" points="1808,-337.93 1804.5,-327.93 1801,-337.93 1808,-337.93"/>
</g>
<!-- 51 -->
<g id="node52" class="node">
<title>51</title>
<path fill="none" stroke="#56a9d8" stroke-width="2" d="M1951.5,-252C1951.5,-252 1891.5,-252 1891.5,-252 1885.5,-252 1879.5,-246 1879.5,-240 1879.5,-240 1879.5,-228 1879.5,-228 1879.5,-222 1885.5,-216 1891.5,-216 1891.5,-216 1951.5,-216 1951.5,-216 1957.5,-216 1963.5,-222 1963.5,-228 1963.5,-228 1963.5,-240 1963.5,-240 1963.5,-246 1957.5,-252 1951.5,-252"/>
<text text-anchor="middle" x="1921.5" y="-231.5" font-family="sans" font-size="10.00">filter_mapped</text>
</g>
<!-- 51&#45;&gt;2 -->
<g id="edge19" class="edge">
<title>51&#45;&gt;2</title>
<path fill="none" stroke="grey" stroke-width="2" d="M1921.5,-215.34C1921.5,-208.75 1921.5,-201.08 1921.5,-193.67"/>
<polygon fill="grey" stroke="grey" stroke-width="2" points="1925,-193.93 1921.5,-183.93 1918,-193.93 1925,-193.93"/>
</g>
<!-- 52 -->
<g id="node53" class="node">
<title>52</title>
<path fill="none" stroke="#59d856" stroke-width="2" d="M1959,-324C1959,-324 1884,-324 1884,-324 1878,-324 1872,-318 1872,-312 1872,-312 1872,-300 1872,-300 1872,-294 1878,-288 1884,-288 1884,-288 1959,-288 1959,-288 1965,-288 1971,-294 1971,-300 1971,-300 1971,-312 1971,-312 1971,-318 1965,-324 1959,-324"/>
<text text-anchor="middle" x="1921.5" y="-309" font-family="sans" font-size="10.00">Crossmap_CADD</text>
<text text-anchor="middle" x="1921.5" y="-298" font-family="sans" font-size="10.00">sample: chr17</text>
</g>
<!-- 52&#45;&gt;51 -->
<g id="edge68" class="edge">
<title>52&#45;&gt;51</title>
<path fill="none" stroke="grey" stroke-width="2" d="M1921.5,-287.34C1921.5,-280.75 1921.5,-273.08 1921.5,-265.67"/>
<polygon fill="grey" stroke="grey" stroke-width="2" points="1925,-265.93 1921.5,-255.93 1918,-265.93 1925,-265.93"/>
</g>
<!-- 53 -->
<g id="node54" class="node">
<title>53</title>
<path fill="none" stroke="#56d8a9" stroke-width="2" stroke-dasharray="5,2" d="M1951,-396C1951,-396 1892,-396 1892,-396 1886,-396 1880,-390 1880,-384 1880,-384 1880,-372 1880,-372 1880,-366 1886,-360 1892,-360 1892,-360 1951,-360 1951,-360 1957,-360 1963,-366 1963,-372 1963,-372 1963,-384 1963,-384 1963,-390 1957,-396 1951,-396"/>
<text text-anchor="middle" x="1921.5" y="-381" font-family="sans" font-size="10.00">split_chCADD</text>
<text text-anchor="middle" x="1921.5" y="-370" font-family="sans" font-size="10.00">sample: 17</text>
</g>
<!-- 53&#45;&gt;52 -->
<g id="edge69" class="edge">
<title>53&#45;&gt;52</title>
<path fill="none" stroke="grey" stroke-width="2" d="M1921.5,-359.34C1921.5,-352.75 1921.5,-345.08 1921.5,-337.67"/>
<polygon fill="grey" stroke="grey" stroke-width="2" points="1925,-337.93 1921.5,-327.93 1918,-337.93 1925,-337.93"/>
</g>
<!-- 54 -->
<g id="node55" class="node">
<title>54</title>
<path fill="none" stroke="#56a9d8" stroke-width="2" d="M2060.5,-252C2060.5,-252 2000.5,-252 2000.5,-252 1994.5,-252 1988.5,-246 1988.5,-240 1988.5,-240 1988.5,-228 1988.5,-228 1988.5,-222 1994.5,-216 2000.5,-216 2000.5,-216 2060.5,-216 2060.5,-216 2066.5,-216 2072.5,-222 2072.5,-228 2072.5,-228 2072.5,-240 2072.5,-240 2072.5,-246 2066.5,-252 2060.5,-252"/>
<text text-anchor="middle" x="2030.5" y="-231.5" font-family="sans" font-size="10.00">filter_mapped</text>
</g>
<!-- 54&#45;&gt;2 -->
<g id="edge20" class="edge">
<title>54&#45;&gt;2</title>
<path fill="none" stroke="grey" stroke-width="2" d="M2002.71,-215.15C1989.77,-206.84 1974.16,-196.82 1960.1,-187.79"/>
<polygon fill="grey" stroke="grey" stroke-width="2" points="1962.09,-184.91 1951.78,-182.45 1958.31,-190.8 1962.09,-184.91"/>
</g>
<!-- 55 -->
<g id="node56" class="node">
<title>55</title>
<path fill="none" stroke="#59d856" stroke-width="2" d="M2076,-324C2076,-324 2001,-324 2001,-324 1995,-324 1989,-318 1989,-312 1989,-312 1989,-300 1989,-300 1989,-294 1995,-288 2001,-288 2001,-288 2076,-288 2076,-288 2082,-288 2088,-294 2088,-300 2088,-300 2088,-312 2088,-312 2088,-318 2082,-324 2076,-324"/>
<text text-anchor="middle" x="2038.5" y="-309" font-family="sans" font-size="10.00">Crossmap_CADD</text>
<text text-anchor="middle" x="2038.5" y="-298" font-family="sans" font-size="10.00">sample: chr18</text>
</g>
<!-- 55&#45;&gt;54 -->
<g id="edge70" class="edge">
<title>55&#45;&gt;54</title>
<path fill="none" stroke="grey" stroke-width="2" d="M2036.48,-287.34C2035.73,-280.75 2034.85,-273.08 2034,-265.67"/>
<polygon fill="grey" stroke="grey" stroke-width="2" points="2037.5,-265.45 2032.89,-255.91 2030.55,-266.24 2037.5,-265.45"/>
</g>
<!-- 56 -->
<g id="node57" class="node">
<title>56</title>
<path fill="none" stroke="#56d8a9" stroke-width="2" stroke-dasharray="5,2" d="M2068,-396C2068,-396 2009,-396 2009,-396 2003,-396 1997,-390 1997,-384 1997,-384 1997,-372 1997,-372 1997,-366 2003,-360 2009,-360 2009,-360 2068,-360 2068,-360 2074,-360 2080,-366 2080,-372 2080,-372 2080,-384 2080,-384 2080,-390 2074,-396 2068,-396"/>
<text text-anchor="middle" x="2038.5" y="-381" font-family="sans" font-size="10.00">split_chCADD</text>
<text text-anchor="middle" x="2038.5" y="-370" font-family="sans" font-size="10.00">sample: 18</text>
</g>
<!-- 56&#45;&gt;55 -->
<g id="edge71" class="edge">
<title>56&#45;&gt;55</title>
<path fill="none" stroke="grey" stroke-width="2" d="M2038.5,-359.34C2038.5,-352.75 2038.5,-345.08 2038.5,-337.67"/>
<polygon fill="grey" stroke="grey" stroke-width="2" points="2042,-337.93 2038.5,-327.93 2035,-337.93 2042,-337.93"/>
</g>
<!-- 57 -->
<g id="node58" class="node">
<title>57</title>
<path fill="none" stroke="#56a9d8" stroke-width="2" d="M2173.5,-252C2173.5,-252 2113.5,-252 2113.5,-252 2107.5,-252 2101.5,-246 2101.5,-240 2101.5,-240 2101.5,-228 2101.5,-228 2101.5,-222 2107.5,-216 2113.5,-216 2113.5,-216 2173.5,-216 2173.5,-216 2179.5,-216 2185.5,-222 2185.5,-228 2185.5,-228 2185.5,-240 2185.5,-240 2185.5,-246 2179.5,-252 2173.5,-252"/>
<text text-anchor="middle" x="2143.5" y="-231.5" font-family="sans" font-size="10.00">filter_mapped</text>
</g>
<!-- 57&#45;&gt;2 -->
<g id="edge21" class="edge">
<title>57&#45;&gt;2</title>
<path fill="none" stroke="grey" stroke-width="2" d="M2100.7,-219.5C2064.62,-208.13 2012.85,-191.8 1974.23,-179.63"/>
<polygon fill="grey" stroke="grey" stroke-width="2" points="1975.4,-176.33 1964.81,-176.66 1973.3,-183 1975.4,-176.33"/>
</g>
<!-- 58 -->
<g id="node59" class="node">
<title>58</title>
<path fill="none" stroke="#59d856" stroke-width="2" d="M2193,-324C2193,-324 2118,-324 2118,-324 2112,-324 2106,-318 2106,-312 2106,-312 2106,-300 2106,-300 2106,-294 2112,-288 2118,-288 2118,-288 2193,-288 2193,-288 2199,-288 2205,-294 2205,-300 2205,-300 2205,-312 2205,-312 2205,-318 2199,-324 2193,-324"/>
<text text-anchor="middle" x="2155.5" y="-309" font-family="sans" font-size="10.00">Crossmap_CADD</text>
<text text-anchor="middle" x="2155.5" y="-298" font-family="sans" font-size="10.00">sample: chr19</text>
</g>
<!-- 58&#45;&gt;57 -->
<g id="edge72" class="edge">
<title>58&#45;&gt;57</title>
<path fill="none" stroke="grey" stroke-width="2" d="M2152.47,-287.34C2151.34,-280.75 2150.03,-273.08 2148.76,-265.67"/>
<polygon fill="grey" stroke="grey" stroke-width="2" points="2152.22,-265.15 2147.08,-255.89 2145.32,-266.33 2152.22,-265.15"/>
</g>
<!-- 59 -->
<g id="node60" class="node">
<title>59</title>
<path fill="none" stroke="#56d8a9" stroke-width="2" stroke-dasharray="5,2" d="M2185,-396C2185,-396 2126,-396 2126,-396 2120,-396 2114,-390 2114,-384 2114,-384 2114,-372 2114,-372 2114,-366 2120,-360 2126,-360 2126,-360 2185,-360 2185,-360 2191,-360 2197,-366 2197,-372 2197,-372 2197,-384 2197,-384 2197,-390 2191,-396 2185,-396"/>
<text text-anchor="middle" x="2155.5" y="-381" font-family="sans" font-size="10.00">split_chCADD</text>
<text text-anchor="middle" x="2155.5" y="-370" font-family="sans" font-size="10.00">sample: 19</text>
</g>
<!-- 59&#45;&gt;58 -->
<g id="edge73" class="edge">
<title>59&#45;&gt;58</title>
<path fill="none" stroke="grey" stroke-width="2" d="M2155.5,-359.34C2155.5,-352.75 2155.5,-345.08 2155.5,-337.67"/>
<polygon fill="grey" stroke="grey" stroke-width="2" points="2159,-337.93 2155.5,-327.93 2152,-337.93 2159,-337.93"/>
</g>
<!-- 60 -->
<g id="node61" class="node">
<title>60</title>
<path fill="none" stroke="#56a9d8" stroke-width="2" d="M2288.5,-252C2288.5,-252 2228.5,-252 2228.5,-252 2222.5,-252 2216.5,-246 2216.5,-240 2216.5,-240 2216.5,-228 2216.5,-228 2216.5,-222 2222.5,-216 2228.5,-216 2228.5,-216 2288.5,-216 2288.5,-216 2294.5,-216 2300.5,-222 2300.5,-228 2300.5,-228 2300.5,-240 2300.5,-240 2300.5,-246 2294.5,-252 2288.5,-252"/>
<text text-anchor="middle" x="2258.5" y="-231.5" font-family="sans" font-size="10.00">filter_mapped</text>
</g>
<!-- 60&#45;&gt;2 -->
<g id="edge22" class="edge">
<title>60&#45;&gt;2</title>
<path fill="none" stroke="grey" stroke-width="2" d="M2215.57,-221.17C2208.55,-219.36 2201.33,-217.57 2194.5,-216 2118.48,-198.55 2029.69,-182.01 1974.52,-172.19"/>
<polygon fill="grey" stroke="grey" stroke-width="2" points="1975.36,-168.79 1964.9,-170.49 1974.14,-175.68 1975.36,-168.79"/>
</g>
<!-- 61 -->
<g id="node62" class="node">
<title>61</title>
<path fill="none" stroke="#59d856" stroke-width="2" d="M2310,-324C2310,-324 2235,-324 2235,-324 2229,-324 2223,-318 2223,-312 2223,-312 2223,-300 2223,-300 2223,-294 2229,-288 2235,-288 2235,-288 2310,-288 2310,-288 2316,-288 2322,-294 2322,-300 2322,-300 2322,-312 2322,-312 2322,-318 2316,-324 2310,-324"/>
<text text-anchor="middle" x="2272.5" y="-309" font-family="sans" font-size="10.00">Crossmap_CADD</text>
<text text-anchor="middle" x="2272.5" y="-298" font-family="sans" font-size="10.00">sample: chr20</text>
</g>
<!-- 61&#45;&gt;60 -->
<g id="edge74" class="edge">
<title>61&#45;&gt;60</title>
<path fill="none" stroke="grey" stroke-width="2" d="M2268.97,-287.34C2267.65,-280.75 2266.12,-273.08 2264.63,-265.67"/>
<polygon fill="grey" stroke="grey" stroke-width="2" points="2268.07,-264.99 2262.67,-255.87 2261.2,-266.36 2268.07,-264.99"/>
</g>
<!-- 62 -->
<g id="node63" class="node">
<title>62</title>
<path fill="none" stroke="#56d8a9" stroke-width="2" stroke-dasharray="5,2" d="M2302,-396C2302,-396 2243,-396 2243,-396 2237,-396 2231,-390 2231,-384 2231,-384 2231,-372 2231,-372 2231,-366 2237,-360 2243,-360 2243,-360 2302,-360 2302,-360 2308,-360 2314,-366 2314,-372 2314,-372 2314,-384 2314,-384 2314,-390 2308,-396 2302,-396"/>
<text text-anchor="middle" x="2272.5" y="-381" font-family="sans" font-size="10.00">split_chCADD</text>
<text text-anchor="middle" x="2272.5" y="-370" font-family="sans" font-size="10.00">sample: 20</text>
</g>
<!-- 62&#45;&gt;61 -->
<g id="edge75" class="edge">
<title>62&#45;&gt;61</title>
<path fill="none" stroke="grey" stroke-width="2" d="M2272.5,-359.34C2272.5,-352.75 2272.5,-345.08 2272.5,-337.67"/>
<polygon fill="grey" stroke="grey" stroke-width="2" points="2276,-337.93 2272.5,-327.93 2269,-337.93 2276,-337.93"/>
</g>
<!-- 63 -->
<g id="node64" class="node">
<title>63</title>
<path fill="none" stroke="#56a9d8" stroke-width="2" d="M2404.5,-252C2404.5,-252 2344.5,-252 2344.5,-252 2338.5,-252 2332.5,-246 2332.5,-240 2332.5,-240 2332.5,-228 2332.5,-228 2332.5,-222 2338.5,-216 2344.5,-216 2344.5,-216 2404.5,-216 2404.5,-216 2410.5,-216 2416.5,-222 2416.5,-228 2416.5,-228 2416.5,-240 2416.5,-240 2416.5,-246 2410.5,-252 2404.5,-252"/>
<text text-anchor="middle" x="2374.5" y="-231.5" font-family="sans" font-size="10.00">filter_mapped</text>
</g>
<!-- 63&#45;&gt;2 -->
<g id="edge23" class="edge">
<title>63&#45;&gt;2</title>
<path fill="none" stroke="grey" stroke-width="2" d="M2331.66,-221.02C2324.31,-219.19 2316.71,-217.43 2309.5,-216 2190.91,-192.48 2049.86,-176.06 1974.77,-168.23"/>
<polygon fill="grey" stroke="grey" stroke-width="2" points="1975.3,-164.76 1964.99,-167.22 1974.58,-171.73 1975.3,-164.76"/>
</g>
<!-- 64 -->
<g id="node65" class="node">
<title>64</title>
<path fill="none" stroke="#59d856" stroke-width="2" d="M2427,-324C2427,-324 2352,-324 2352,-324 2346,-324 2340,-318 2340,-312 2340,-312 2340,-300 2340,-300 2340,-294 2346,-288 2352,-288 2352,-288 2427,-288 2427,-288 2433,-288 2439,-294 2439,-300 2439,-300 2439,-312 2439,-312 2439,-318 2433,-324 2427,-324"/>
<text text-anchor="middle" x="2389.5" y="-309" font-family="sans" font-size="10.00">Crossmap_CADD</text>
<text text-anchor="middle" x="2389.5" y="-298" font-family="sans" font-size="10.00">sample: chr21</text>
</g>
<!-- 64&#45;&gt;63 -->
<g id="edge76" class="edge">
<title>64&#45;&gt;63</title>
<path fill="none" stroke="grey" stroke-width="2" d="M2385.71,-287.34C2384.29,-280.67 2382.62,-272.89 2381.01,-265.39"/>
<polygon fill="grey" stroke="grey" stroke-width="2" points="2384.49,-264.91 2378.97,-255.86 2377.64,-266.37 2384.49,-264.91"/>
</g>
<!-- 65 -->
<g id="node66" class="node">
<title>65</title>
<path fill="none" stroke="#56d8a9" stroke-width="2" stroke-dasharray="5,2" d="M2419,-396C2419,-396 2360,-396 2360,-396 2354,-396 2348,-390 2348,-384 2348,-384 2348,-372 2348,-372 2348,-366 2354,-360 2360,-360 2360,-360 2419,-360 2419,-360 2425,-360 2431,-366 2431,-372 2431,-372 2431,-384 2431,-384 2431,-390 2425,-396 2419,-396"/>
<text text-anchor="middle" x="2389.5" y="-381" font-family="sans" font-size="10.00">split_chCADD</text>
<text text-anchor="middle" x="2389.5" y="-370" font-family="sans" font-size="10.00">sample: 21</text>
</g>
<!-- 65&#45;&gt;64 -->
<g id="edge77" class="edge">
<title>65&#45;&gt;64</title>
<path fill="none" stroke="grey" stroke-width="2" d="M2389.5,-359.34C2389.5,-352.75 2389.5,-345.08 2389.5,-337.67"/>
<polygon fill="grey" stroke="grey" stroke-width="2" points="2393,-337.93 2389.5,-327.93 2386,-337.93 2393,-337.93"/>
</g>
<!-- 66 -->
<g id="node67" class="node">
<title>66</title>
<path fill="none" stroke="#56a9d8" stroke-width="2" d="M2521.5,-252C2521.5,-252 2461.5,-252 2461.5,-252 2455.5,-252 2449.5,-246 2449.5,-240 2449.5,-240 2449.5,-228 2449.5,-228 2449.5,-222 2455.5,-216 2461.5,-216 2461.5,-216 2521.5,-216 2521.5,-216 2527.5,-216 2533.5,-222 2533.5,-228 2533.5,-228 2533.5,-240 2533.5,-240 2533.5,-246 2527.5,-252 2521.5,-252"/>
<text text-anchor="middle" x="2491.5" y="-231.5" font-family="sans" font-size="10.00">filter_mapped</text>
</g>
<!-- 66&#45;&gt;2 -->
<g id="edge24" class="edge">
<title>66&#45;&gt;2</title>
<path fill="none" stroke="grey" stroke-width="2" d="M2448.74,-221.01C2441.05,-219.13 2433.07,-217.37 2425.5,-216 2262.72,-186.64 2067.2,-171.82 1974.83,-166.02"/>
<polygon fill="grey" stroke="grey" stroke-width="2" points="1975.18,-162.53 1964.99,-165.41 1974.75,-169.52 1975.18,-162.53"/>
</g>
<!-- 67 -->
<g id="node68" class="node">
<title>67</title>
<path fill="none" stroke="#59d856" stroke-width="2" d="M2544,-324C2544,-324 2469,-324 2469,-324 2463,-324 2457,-318 2457,-312 2457,-312 2457,-300 2457,-300 2457,-294 2463,-288 2469,-288 2469,-288 2544,-288 2544,-288 2550,-288 2556,-294 2556,-300 2556,-300 2556,-312 2556,-312 2556,-318 2550,-324 2544,-324"/>
<text text-anchor="middle" x="2506.5" y="-309" font-family="sans" font-size="10.00">Crossmap_CADD</text>
<text text-anchor="middle" x="2506.5" y="-298" font-family="sans" font-size="10.00">sample: chr22</text>
</g>
<!-- 67&#45;&gt;66 -->
<g id="edge78" class="edge">
<title>67&#45;&gt;66</title>
<path fill="none" stroke="grey" stroke-width="2" d="M2502.71,-287.34C2501.29,-280.67 2499.62,-272.89 2498.01,-265.39"/>
<polygon fill="grey" stroke="grey" stroke-width="2" points="2501.49,-264.91 2495.97,-255.86 2494.64,-266.37 2501.49,-264.91"/>
</g>
<!-- 68 -->
<g id="node69" class="node">
<title>68</title>
<path fill="none" stroke="#56d8a9" stroke-width="2" stroke-dasharray="5,2" d="M2536,-396C2536,-396 2477,-396 2477,-396 2471,-396 2465,-390 2465,-384 2465,-384 2465,-372 2465,-372 2465,-366 2471,-360 2477,-360 2477,-360 2536,-360 2536,-360 2542,-360 2548,-366 2548,-372 2548,-372 2548,-384 2548,-384 2548,-390 2542,-396 2536,-396"/>
<text text-anchor="middle" x="2506.5" y="-381" font-family="sans" font-size="10.00">split_chCADD</text>
<text text-anchor="middle" x="2506.5" y="-370" font-family="sans" font-size="10.00">sample: 22</text>
</g>
<!-- 68&#45;&gt;67 -->
<g id="edge79" class="edge">
<title>68&#45;&gt;67</title>
<path fill="none" stroke="grey" stroke-width="2" d="M2506.5,-359.34C2506.5,-352.75 2506.5,-345.08 2506.5,-337.67"/>
<polygon fill="grey" stroke="grey" stroke-width="2" points="2510,-337.93 2506.5,-327.93 2503,-337.93 2510,-337.93"/>
</g>
<!-- 69 -->
<g id="node70" class="node">
<title>69</title>
<path fill="none" stroke="#56a9d8" stroke-width="2" d="M2638.5,-252C2638.5,-252 2578.5,-252 2578.5,-252 2572.5,-252 2566.5,-246 2566.5,-240 2566.5,-240 2566.5,-228 2566.5,-228 2566.5,-222 2572.5,-216 2578.5,-216 2578.5,-216 2638.5,-216 2638.5,-216 2644.5,-216 2650.5,-222 2650.5,-228 2650.5,-228 2650.5,-240 2650.5,-240 2650.5,-246 2644.5,-252 2638.5,-252"/>
<text text-anchor="middle" x="2608.5" y="-231.5" font-family="sans" font-size="10.00">filter_mapped</text>
</g>
<!-- 69&#45;&gt;2 -->
<g id="edge25" class="edge">
<title>69&#45;&gt;2</title>
<path fill="none" stroke="grey" stroke-width="2" d="M2565.77,-220.89C2558.07,-219.02 2550.08,-217.29 2542.5,-216 2334.12,-180.53 2082.15,-168.33 1974.46,-164.54"/>
<polygon fill="grey" stroke="grey" stroke-width="2" points="1974.89,-161.05 1964.78,-164.21 1974.65,-168.05 1974.89,-161.05"/>
</g>
<!-- 70 -->
<g id="node71" class="node">
<title>70</title>
<path fill="none" stroke="#59d856" stroke-width="2" d="M2661,-324C2661,-324 2586,-324 2586,-324 2580,-324 2574,-318 2574,-312 2574,-312 2574,-300 2574,-300 2574,-294 2580,-288 2586,-288 2586,-288 2661,-288 2661,-288 2667,-288 2673,-294 2673,-300 2673,-300 2673,-312 2673,-312 2673,-318 2667,-324 2661,-324"/>
<text text-anchor="middle" x="2623.5" y="-309" font-family="sans" font-size="10.00">Crossmap_CADD</text>
<text text-anchor="middle" x="2623.5" y="-298" font-family="sans" font-size="10.00">sample: chr23</text>
</g>
<!-- 70&#45;&gt;69 -->
<g id="edge80" class="edge">
<title>70&#45;&gt;69</title>
<path fill="none" stroke="grey" stroke-width="2" d="M2619.71,-287.34C2618.29,-280.67 2616.62,-272.89 2615.01,-265.39"/>
<polygon fill="grey" stroke="grey" stroke-width="2" points="2618.49,-264.91 2612.97,-255.86 2611.64,-266.37 2618.49,-264.91"/>
</g>
<!-- 71 -->
<g id="node72" class="node">
<title>71</title>
<path fill="none" stroke="#56d8a9" stroke-width="2" stroke-dasharray="5,2" d="M2653,-396C2653,-396 2594,-396 2594,-396 2588,-396 2582,-390 2582,-384 2582,-384 2582,-372 2582,-372 2582,-366 2588,-360 2594,-360 2594,-360 2653,-360 2653,-360 2659,-360 2665,-366 2665,-372 2665,-372 2665,-384 2665,-384 2665,-390 2659,-396 2653,-396"/>
<text text-anchor="middle" x="2623.5" y="-381" font-family="sans" font-size="10.00">split_chCADD</text>
<text text-anchor="middle" x="2623.5" y="-370" font-family="sans" font-size="10.00">sample: 23</text>
</g>
<!-- 71&#45;&gt;70 -->
<g id="edge81" class="edge">
<title>71&#45;&gt;70</title>
<path fill="none" stroke="grey" stroke-width="2" d="M2623.5,-359.34C2623.5,-352.75 2623.5,-345.08 2623.5,-337.67"/>
<polygon fill="grey" stroke="grey" stroke-width="2" points="2627,-337.93 2623.5,-327.93 2620,-337.93 2627,-337.93"/>
</g>
<!-- 72 -->
<g id="node73" class="node">
<title>72</title>
<path fill="none" stroke="#56a9d8" stroke-width="2" d="M2755.5,-252C2755.5,-252 2695.5,-252 2695.5,-252 2689.5,-252 2683.5,-246 2683.5,-240 2683.5,-240 2683.5,-228 2683.5,-228 2683.5,-222 2689.5,-216 2695.5,-216 2695.5,-216 2755.5,-216 2755.5,-216 2761.5,-216 2767.5,-222 2767.5,-228 2767.5,-228 2767.5,-240 2767.5,-240 2767.5,-246 2761.5,-252 2755.5,-252"/>
<text text-anchor="middle" x="2725.5" y="-231.5" font-family="sans" font-size="10.00">filter_mapped</text>
</g>
<!-- 72&#45;&gt;2 -->
<g id="edge26" class="edge">
<title>72&#45;&gt;2</title>
<path fill="none" stroke="grey" stroke-width="2" d="M2682.78,-220.8C2675.08,-218.95 2667.09,-217.24 2659.5,-216 2405.34,-174.49 2096.64,-165.49 1974.71,-163.54"/>
<polygon fill="grey" stroke="grey" stroke-width="2" points="1974.87,-160.04 1964.82,-163.39 1974.77,-167.04 1974.87,-160.04"/>
</g>
<!-- 73 -->
<g id="node74" class="node">
<title>73</title>
<path fill="none" stroke="#59d856" stroke-width="2" d="M2778,-324C2778,-324 2703,-324 2703,-324 2697,-324 2691,-318 2691,-312 2691,-312 2691,-300 2691,-300 2691,-294 2697,-288 2703,-288 2703,-288 2778,-288 2778,-288 2784,-288 2790,-294 2790,-300 2790,-300 2790,-312 2790,-312 2790,-318 2784,-324 2778,-324"/>
<text text-anchor="middle" x="2740.5" y="-309" font-family="sans" font-size="10.00">Crossmap_CADD</text>
<text text-anchor="middle" x="2740.5" y="-298" font-family="sans" font-size="10.00">sample: chr24</text>
</g>
<!-- 73&#45;&gt;72 -->
<g id="edge82" class="edge">
<title>73&#45;&gt;72</title>
<path fill="none" stroke="grey" stroke-width="2" d="M2736.71,-287.34C2735.29,-280.67 2733.62,-272.89 2732.01,-265.39"/>
<polygon fill="grey" stroke="grey" stroke-width="2" points="2735.49,-264.91 2729.97,-255.86 2728.64,-266.37 2735.49,-264.91"/>
</g>
<!-- 74 -->
<g id="node75" class="node">
<title>74</title>
<path fill="none" stroke="#56d8a9" stroke-width="2" stroke-dasharray="5,2" d="M2770,-396C2770,-396 2711,-396 2711,-396 2705,-396 2699,-390 2699,-384 2699,-384 2699,-372 2699,-372 2699,-366 2705,-360 2711,-360 2711,-360 2770,-360 2770,-360 2776,-360 2782,-366 2782,-372 2782,-372 2782,-384 2782,-384 2782,-390 2776,-396 2770,-396"/>
<text text-anchor="middle" x="2740.5" y="-381" font-family="sans" font-size="10.00">split_chCADD</text>
<text text-anchor="middle" x="2740.5" y="-370" font-family="sans" font-size="10.00">sample: 24</text>
</g>
<!-- 74&#45;&gt;73 -->
<g id="edge83" class="edge">
<title>74&#45;&gt;73</title>
<path fill="none" stroke="grey" stroke-width="2" d="M2740.5,-359.34C2740.5,-352.75 2740.5,-345.08 2740.5,-337.67"/>
<polygon fill="grey" stroke="grey" stroke-width="2" points="2744,-337.93 2740.5,-327.93 2737,-337.93 2744,-337.93"/>
</g>
<!-- 75 -->
<g id="node76" class="node">
<title>75</title>
<path fill="none" stroke="#56a9d8" stroke-width="2" d="M2872.5,-252C2872.5,-252 2812.5,-252 2812.5,-252 2806.5,-252 2800.5,-246 2800.5,-240 2800.5,-240 2800.5,-228 2800.5,-228 2800.5,-222 2806.5,-216 2812.5,-216 2812.5,-216 2872.5,-216 2872.5,-216 2878.5,-216 2884.5,-222 2884.5,-228 2884.5,-228 2884.5,-240 2884.5,-240 2884.5,-246 2878.5,-252 2872.5,-252"/>
<text text-anchor="middle" x="2842.5" y="-231.5" font-family="sans" font-size="10.00">filter_mapped</text>
</g>
<!-- 75&#45;&gt;2 -->
<g id="edge27" class="edge">
<title>75&#45;&gt;2</title>
<path fill="none" stroke="grey" stroke-width="2" d="M2799.79,-220.74C2792.09,-218.89 2784.1,-217.2 2776.5,-216 2475.83,-168.4 2109.38,-163.04 1974.55,-162.8"/>
<polygon fill="grey" stroke="grey" stroke-width="2" points="1974.89,-159.3 1964.89,-162.79 1974.89,-166.3 1974.89,-159.3"/>
</g>
<!-- 76 -->
<g id="node77" class="node">
<title>76</title>
<path fill="none" stroke="#59d856" stroke-width="2" d="M2895,-324C2895,-324 2820,-324 2820,-324 2814,-324 2808,-318 2808,-312 2808,-312 2808,-300 2808,-300 2808,-294 2814,-288 2820,-288 2820,-288 2895,-288 2895,-288 2901,-288 2907,-294 2907,-300 2907,-300 2907,-312 2907,-312 2907,-318 2901,-324 2895,-324"/>
<text text-anchor="middle" x="2857.5" y="-309" font-family="sans" font-size="10.00">Crossmap_CADD</text>
<text text-anchor="middle" x="2857.5" y="-298" font-family="sans" font-size="10.00">sample: chr25</text>
</g>
<!-- 76&#45;&gt;75 -->
<g id="edge84" class="edge">
<title>76&#45;&gt;75</title>
<path fill="none" stroke="grey" stroke-width="2" d="M2853.71,-287.34C2852.29,-280.67 2850.62,-272.89 2849.01,-265.39"/>
<polygon fill="grey" stroke="grey" stroke-width="2" points="2852.49,-264.91 2846.97,-255.86 2845.64,-266.37 2852.49,-264.91"/>
</g>
<!-- 77 -->
<g id="node78" class="node">
<title>77</title>
<path fill="none" stroke="#56d8a9" stroke-width="2" stroke-dasharray="5,2" d="M2887,-396C2887,-396 2828,-396 2828,-396 2822,-396 2816,-390 2816,-384 2816,-384 2816,-372 2816,-372 2816,-366 2822,-360 2828,-360 2828,-360 2887,-360 2887,-360 2893,-360 2899,-366 2899,-372 2899,-372 2899,-384 2899,-384 2899,-390 2893,-396 2887,-396"/>
<text text-anchor="middle" x="2857.5" y="-381" font-family="sans" font-size="10.00">split_chCADD</text>
<text text-anchor="middle" x="2857.5" y="-370" font-family="sans" font-size="10.00">sample: 25</text>
</g>
<!-- 77&#45;&gt;76 -->
<g id="edge85" class="edge">
<title>77&#45;&gt;76</title>
<path fill="none" stroke="grey" stroke-width="2" d="M2857.5,-359.34C2857.5,-352.75 2857.5,-345.08 2857.5,-337.67"/>
<polygon fill="grey" stroke="grey" stroke-width="2" points="2861,-337.93 2857.5,-327.93 2854,-337.93 2861,-337.93"/>
</g>
<!-- 78 -->
<g id="node79" class="node">
<title>78</title>
<path fill="none" stroke="#56a9d8" stroke-width="2" d="M2989.5,-252C2989.5,-252 2929.5,-252 2929.5,-252 2923.5,-252 2917.5,-246 2917.5,-240 2917.5,-240 2917.5,-228 2917.5,-228 2917.5,-222 2923.5,-216 2929.5,-216 2929.5,-216 2989.5,-216 2989.5,-216 2995.5,-216 3001.5,-222 3001.5,-228 3001.5,-228 3001.5,-240 3001.5,-240 3001.5,-246 2995.5,-252 2989.5,-252"/>
<text text-anchor="middle" x="2959.5" y="-231.5" font-family="sans" font-size="10.00">filter_mapped</text>
</g>
<!-- 78&#45;&gt;2 -->
<g id="edge28" class="edge">
<title>78&#45;&gt;2</title>
<path fill="none" stroke="grey" stroke-width="2" d="M2916.8,-220.69C2909.1,-218.85 2901.1,-217.17 2893.5,-216 2714.04,-188.27 2150.92,-169.75 1974.74,-164.52"/>
<polygon fill="grey" stroke="grey" stroke-width="2" points="1974.89,-161.02 1964.79,-164.22 1974.69,-168.02 1974.89,-161.02"/>
</g>
<!-- 79 -->
<g id="node80" class="node">
<title>79</title>
<path fill="none" stroke="#59d856" stroke-width="2" d="M3012,-324C3012,-324 2937,-324 2937,-324 2931,-324 2925,-318 2925,-312 2925,-312 2925,-300 2925,-300 2925,-294 2931,-288 2937,-288 2937,-288 3012,-288 3012,-288 3018,-288 3024,-294 3024,-300 3024,-300 3024,-312 3024,-312 3024,-318 3018,-324 3012,-324"/>
<text text-anchor="middle" x="2974.5" y="-309" font-family="sans" font-size="10.00">Crossmap_CADD</text>
<text text-anchor="middle" x="2974.5" y="-298" font-family="sans" font-size="10.00">sample: chr26</text>
</g>
<!-- 79&#45;&gt;78 -->
<g id="edge86" class="edge">
<title>79&#45;&gt;78</title>
<path fill="none" stroke="grey" stroke-width="2" d="M2970.71,-287.34C2969.29,-280.67 2967.62,-272.89 2966.01,-265.39"/>
<polygon fill="grey" stroke="grey" stroke-width="2" points="2969.49,-264.91 2963.97,-255.86 2962.64,-266.37 2969.49,-264.91"/>
</g>
<!-- 80 -->
<g id="node81" class="node">
<title>80</title>
<path fill="none" stroke="#56d8a9" stroke-width="2" stroke-dasharray="5,2" d="M3004,-396C3004,-396 2945,-396 2945,-396 2939,-396 2933,-390 2933,-384 2933,-384 2933,-372 2933,-372 2933,-366 2939,-360 2945,-360 2945,-360 3004,-360 3004,-360 3010,-360 3016,-366 3016,-372 3016,-372 3016,-384 3016,-384 3016,-390 3010,-396 3004,-396"/>
<text text-anchor="middle" x="2974.5" y="-381" font-family="sans" font-size="10.00">split_chCADD</text>
<text text-anchor="middle" x="2974.5" y="-370" font-family="sans" font-size="10.00">sample: 26</text>
</g>
<!-- 80&#45;&gt;79 -->
<g id="edge87" class="edge">
<title>80&#45;&gt;79</title>
<path fill="none" stroke="grey" stroke-width="2" d="M2974.5,-359.34C2974.5,-352.75 2974.5,-345.08 2974.5,-337.67"/>
<polygon fill="grey" stroke="grey" stroke-width="2" points="2978,-337.93 2974.5,-327.93 2971,-337.93 2978,-337.93"/>
</g>
<!-- 81 -->
<g id="node82" class="node">
<title>81</title>
<path fill="none" stroke="#56a9d8" stroke-width="2" d="M3106.5,-252C3106.5,-252 3046.5,-252 3046.5,-252 3040.5,-252 3034.5,-246 3034.5,-240 3034.5,-240 3034.5,-228 3034.5,-228 3034.5,-222 3040.5,-216 3046.5,-216 3046.5,-216 3106.5,-216 3106.5,-216 3112.5,-216 3118.5,-222 3118.5,-228 3118.5,-228 3118.5,-240 3118.5,-240 3118.5,-246 3112.5,-252 3106.5,-252"/>
<text text-anchor="middle" x="3076.5" y="-231.5" font-family="sans" font-size="10.00">filter_mapped</text>
</g>
<!-- 81&#45;&gt;2 -->
<g id="edge29" class="edge">
<title>81&#45;&gt;2</title>
<path fill="none" stroke="grey" stroke-width="2" d="M3033.8,-220.66C3026.1,-218.82 3018.1,-217.15 3010.5,-216 2807.17,-185.19 2164.48,-168.5 1974.73,-164.16"/>
<polygon fill="grey" stroke="grey" stroke-width="2" points="1974.97,-160.66 1964.89,-163.93 1974.81,-167.66 1974.97,-160.66"/>
</g>
<!-- 82 -->
<g id="node83" class="node">
<title>82</title>
<path fill="none" stroke="#59d856" stroke-width="2" d="M3129,-324C3129,-324 3054,-324 3054,-324 3048,-324 3042,-318 3042,-312 3042,-312 3042,-300 3042,-300 3042,-294 3048,-288 3054,-288 3054,-288 3129,-288 3129,-288 3135,-288 3141,-294 3141,-300 3141,-300 3141,-312 3141,-312 3141,-318 3135,-324 3129,-324"/>
<text text-anchor="middle" x="3091.5" y="-309" font-family="sans" font-size="10.00">Crossmap_CADD</text>
<text text-anchor="middle" x="3091.5" y="-298" font-family="sans" font-size="10.00">sample: chr27</text>
</g>
<!-- 82&#45;&gt;81 -->
<g id="edge88" class="edge">
<title>82&#45;&gt;81</title>
<path fill="none" stroke="grey" stroke-width="2" d="M3087.71,-287.34C3086.29,-280.67 3084.62,-272.89 3083.01,-265.39"/>
<polygon fill="grey" stroke="grey" stroke-width="2" points="3086.49,-264.91 3080.97,-255.86 3079.64,-266.37 3086.49,-264.91"/>
</g>
<!-- 83 -->
<g id="node84" class="node">
<title>83</title>
<path fill="none" stroke="#56d8a9" stroke-width="2" stroke-dasharray="5,2" d="M3121,-396C3121,-396 3062,-396 3062,-396 3056,-396 3050,-390 3050,-384 3050,-384 3050,-372 3050,-372 3050,-366 3056,-360 3062,-360 3062,-360 3121,-360 3121,-360 3127,-360 3133,-366 3133,-372 3133,-372 3133,-384 3133,-384 3133,-390 3127,-396 3121,-396"/>
<text text-anchor="middle" x="3091.5" y="-381" font-family="sans" font-size="10.00">split_chCADD</text>
<text text-anchor="middle" x="3091.5" y="-370" font-family="sans" font-size="10.00">sample: 27</text>
</g>
<!-- 83&#45;&gt;82 -->
<g id="edge89" class="edge">
<title>83&#45;&gt;82</title>
<path fill="none" stroke="grey" stroke-width="2" d="M3091.5,-359.34C3091.5,-352.75 3091.5,-345.08 3091.5,-337.67"/>
<polygon fill="grey" stroke="grey" stroke-width="2" points="3095,-337.93 3091.5,-327.93 3088,-337.93 3095,-337.93"/>
</g>
<!-- 84 -->
<g id="node85" class="node">
<title>84</title>
<path fill="none" stroke="#56a9d8" stroke-width="2" d="M3223.5,-252C3223.5,-252 3163.5,-252 3163.5,-252 3157.5,-252 3151.5,-246 3151.5,-240 3151.5,-240 3151.5,-228 3151.5,-228 3151.5,-222 3157.5,-216 3163.5,-216 3163.5,-216 3223.5,-216 3223.5,-216 3229.5,-216 3235.5,-222 3235.5,-228 3235.5,-228 3235.5,-240 3235.5,-240 3235.5,-246 3229.5,-252 3223.5,-252"/>
<text text-anchor="middle" x="3193.5" y="-231.5" font-family="sans" font-size="10.00">filter_mapped</text>
</g>
<!-- 84&#45;&gt;2 -->
<g id="edge30" class="edge">
<title>84&#45;&gt;2</title>
<path fill="none" stroke="grey" stroke-width="2" d="M3150.81,-220.63C3143.11,-218.79 3135.11,-217.13 3127.5,-216 2900.19,-182.11 2177.18,-167.39 1974.67,-163.86"/>
<polygon fill="grey" stroke="grey" stroke-width="2" points="1974.91,-160.37 1964.85,-163.7 1974.79,-167.37 1974.91,-160.37"/>
</g>
<!-- 85 -->
<g id="node86" class="node">
<title>85</title>
<path fill="none" stroke="#59d856" stroke-width="2" d="M3246,-324C3246,-324 3171,-324 3171,-324 3165,-324 3159,-318 3159,-312 3159,-312 3159,-300 3159,-300 3159,-294 3165,-288 3171,-288 3171,-288 3246,-288 3246,-288 3252,-288 3258,-294 3258,-300 3258,-300 3258,-312 3258,-312 3258,-318 3252,-324 3246,-324"/>
<text text-anchor="middle" x="3208.5" y="-309" font-family="sans" font-size="10.00">Crossmap_CADD</text>
<text text-anchor="middle" x="3208.5" y="-298" font-family="sans" font-size="10.00">sample: chr28</text>
</g>
<!-- 85&#45;&gt;84 -->
<g id="edge90" class="edge">
<title>85&#45;&gt;84</title>
<path fill="none" stroke="grey" stroke-width="2" d="M3204.71,-287.34C3203.29,-280.67 3201.62,-272.89 3200.01,-265.39"/>
<polygon fill="grey" stroke="grey" stroke-width="2" points="3203.49,-264.91 3197.97,-255.86 3196.64,-266.37 3203.49,-264.91"/>
</g>
<!-- 86 -->
<g id="node87" class="node">
<title>86</title>
<path fill="none" stroke="#56d8a9" stroke-width="2" stroke-dasharray="5,2" d="M3238,-396C3238,-396 3179,-396 3179,-396 3173,-396 3167,-390 3167,-384 3167,-384 3167,-372 3167,-372 3167,-366 3173,-360 3179,-360 3179,-360 3238,-360 3238,-360 3244,-360 3250,-366 3250,-372 3250,-372 3250,-384 3250,-384 3250,-390 3244,-396 3238,-396"/>
<text text-anchor="middle" x="3208.5" y="-381" font-family="sans" font-size="10.00">split_chCADD</text>
<text text-anchor="middle" x="3208.5" y="-370" font-family="sans" font-size="10.00">sample: 28</text>
</g>
<!-- 86&#45;&gt;85 -->
<g id="edge91" class="edge">
<title>86&#45;&gt;85</title>
<path fill="none" stroke="grey" stroke-width="2" d="M3208.5,-359.34C3208.5,-352.75 3208.5,-345.08 3208.5,-337.67"/>
<polygon fill="grey" stroke="grey" stroke-width="2" points="3212,-337.93 3208.5,-327.93 3205,-337.93 3212,-337.93"/>
</g>
<!-- 87 -->
<g id="node88" class="node">
<title>87</title>
<path fill="none" stroke="#56a9d8" stroke-width="2" d="M3340.5,-252C3340.5,-252 3280.5,-252 3280.5,-252 3274.5,-252 3268.5,-246 3268.5,-240 3268.5,-240 3268.5,-228 3268.5,-228 3268.5,-222 3274.5,-216 3280.5,-216 3280.5,-216 3340.5,-216 3340.5,-216 3346.5,-216 3352.5,-222 3352.5,-228 3352.5,-228 3352.5,-240 3352.5,-240 3352.5,-246 3346.5,-252 3340.5,-252"/>
<text text-anchor="middle" x="3310.5" y="-231.5" font-family="sans" font-size="10.00">filter_mapped</text>
</g>
<!-- 87&#45;&gt;2 -->
<g id="edge31" class="edge">
<title>87&#45;&gt;2</title>
<path fill="none" stroke="grey" stroke-width="2" d="M3267.81,-220.6C3260.11,-218.77 3252.11,-217.12 3244.5,-216 2993.19,-179.03 2189.74,-166.39 1974.8,-163.63"/>
<polygon fill="grey" stroke="grey" stroke-width="2" points="1974.87,-160.13 1964.83,-163.5 1974.78,-167.13 1974.87,-160.13"/>
</g>
<!-- 88 -->
<g id="node89" class="node">
<title>88</title>
<path fill="none" stroke="#59d856" stroke-width="2" d="M3363,-324C3363,-324 3288,-324 3288,-324 3282,-324 3276,-318 3276,-312 3276,-312 3276,-300 3276,-300 3276,-294 3282,-288 3288,-288 3288,-288 3363,-288 3363,-288 3369,-288 3375,-294 3375,-300 3375,-300 3375,-312 3375,-312 3375,-318 3369,-324 3363,-324"/>
<text text-anchor="middle" x="3325.5" y="-309" font-family="sans" font-size="10.00">Crossmap_CADD</text>
<text text-anchor="middle" x="3325.5" y="-298" font-family="sans" font-size="10.00">sample: chr30</text>
</g>
<!-- 88&#45;&gt;87 -->
<g id="edge92" class="edge">
<title>88&#45;&gt;87</title>
<path fill="none" stroke="grey" stroke-width="2" d="M3321.71,-287.34C3320.29,-280.67 3318.62,-272.89 3317.01,-265.39"/>
<polygon fill="grey" stroke="grey" stroke-width="2" points="3320.49,-264.91 3314.97,-255.86 3313.64,-266.37 3320.49,-264.91"/>
</g>
<!-- 89 -->
<g id="node90" class="node">
<title>89</title>
<path fill="none" stroke="#56d8a9" stroke-width="2" stroke-dasharray="5,2" d="M3355,-396C3355,-396 3296,-396 3296,-396 3290,-396 3284,-390 3284,-384 3284,-384 3284,-372 3284,-372 3284,-366 3290,-360 3296,-360 3296,-360 3355,-360 3355,-360 3361,-360 3367,-366 3367,-372 3367,-372 3367,-384 3367,-384 3367,-390 3361,-396 3355,-396"/>
<text text-anchor="middle" x="3325.5" y="-381" font-family="sans" font-size="10.00">split_chCADD</text>
<text text-anchor="middle" x="3325.5" y="-370" font-family="sans" font-size="10.00">sample: 30</text>
</g>
<!-- 89&#45;&gt;88 -->
<g id="edge93" class="edge">
<title>89&#45;&gt;88</title>
<path fill="none" stroke="grey" stroke-width="2" d="M3325.5,-359.34C3325.5,-352.75 3325.5,-345.08 3325.5,-337.67"/>
<polygon fill="grey" stroke="grey" stroke-width="2" points="3329,-337.93 3325.5,-327.93 3322,-337.93 3329,-337.93"/>
</g>
<!-- 90 -->
<g id="node91" class="node">
<title>90</title>
<path fill="none" stroke="#56a9d8" stroke-width="2" d="M3457.5,-252C3457.5,-252 3397.5,-252 3397.5,-252 3391.5,-252 3385.5,-246 3385.5,-240 3385.5,-240 3385.5,-228 3385.5,-228 3385.5,-222 3391.5,-216 3397.5,-216 3397.5,-216 3457.5,-216 3457.5,-216 3463.5,-216 3469.5,-222 3469.5,-228 3469.5,-228 3469.5,-240 3469.5,-240 3469.5,-246 3463.5,-252 3457.5,-252"/>
<text text-anchor="middle" x="3427.5" y="-231.5" font-family="sans" font-size="10.00">filter_mapped</text>
</g>
<!-- 90&#45;&gt;2 -->
<g id="edge32" class="edge">
<title>90&#45;&gt;2</title>
<path fill="none" stroke="grey" stroke-width="2" d="M3384.81,-220.58C3377.11,-218.75 3369.11,-217.11 3361.5,-216 3086,-175.93 2201.11,-165.47 1974.67,-163.43"/>
<polygon fill="grey" stroke="grey" stroke-width="2" points="1974.99,-159.93 1964.96,-163.34 1974.93,-166.93 1974.99,-159.93"/>
</g>
<!-- 91 -->
<g id="node92" class="node">
<title>91</title>
<path fill="none" stroke="#59d856" stroke-width="2" d="M3480,-324C3480,-324 3405,-324 3405,-324 3399,-324 3393,-318 3393,-312 3393,-312 3393,-300 3393,-300 3393,-294 3399,-288 3405,-288 3405,-288 3480,-288 3480,-288 3486,-288 3492,-294 3492,-300 3492,-300 3492,-312 3492,-312 3492,-318 3486,-324 3480,-324"/>
<text text-anchor="middle" x="3442.5" y="-309" font-family="sans" font-size="10.00">Crossmap_CADD</text>
<text text-anchor="middle" x="3442.5" y="-298" font-family="sans" font-size="10.00">sample: chr31</text>
</g>
<!-- 91&#45;&gt;90 -->
<g id="edge94" class="edge">
<title>91&#45;&gt;90</title>
<path fill="none" stroke="grey" stroke-width="2" d="M3438.71,-287.34C3437.29,-280.67 3435.62,-272.89 3434.01,-265.39"/>
<polygon fill="grey" stroke="grey" stroke-width="2" points="3437.49,-264.91 3431.97,-255.86 3430.64,-266.37 3437.49,-264.91"/>
</g>
<!-- 92 -->
<g id="node93" class="node">
<title>92</title>
<path fill="none" stroke="#56d8a9" stroke-width="2" stroke-dasharray="5,2" d="M3472,-396C3472,-396 3413,-396 3413,-396 3407,-396 3401,-390 3401,-384 3401,-384 3401,-372 3401,-372 3401,-366 3407,-360 3413,-360 3413,-360 3472,-360 3472,-360 3478,-360 3484,-366 3484,-372 3484,-372 3484,-384 3484,-384 3484,-390 3478,-396 3472,-396"/>
<text text-anchor="middle" x="3442.5" y="-381" font-family="sans" font-size="10.00">split_chCADD</text>
<text text-anchor="middle" x="3442.5" y="-370" font-family="sans" font-size="10.00">sample: 31</text>
</g>
<!-- 92&#45;&gt;91 -->
<g id="edge95" class="edge">
<title>92&#45;&gt;91</title>
<path fill="none" stroke="grey" stroke-width="2" d="M3442.5,-359.34C3442.5,-352.75 3442.5,-345.08 3442.5,-337.67"/>
<polygon fill="grey" stroke="grey" stroke-width="2" points="3446,-337.93 3442.5,-327.93 3439,-337.93 3446,-337.93"/>
</g>
<!-- 93 -->
<g id="node94" class="node">
<title>93</title>
<path fill="none" stroke="#56a9d8" stroke-width="2" d="M3574.5,-252C3574.5,-252 3514.5,-252 3514.5,-252 3508.5,-252 3502.5,-246 3502.5,-240 3502.5,-240 3502.5,-228 3502.5,-228 3502.5,-222 3508.5,-216 3514.5,-216 3514.5,-216 3574.5,-216 3574.5,-216 3580.5,-216 3586.5,-222 3586.5,-228 3586.5,-228 3586.5,-240 3586.5,-240 3586.5,-246 3580.5,-252 3574.5,-252"/>
<text text-anchor="middle" x="3544.5" y="-231.5" font-family="sans" font-size="10.00">filter_mapped</text>
</g>
<!-- 93&#45;&gt;2 -->
<g id="edge33" class="edge">
<title>93&#45;&gt;2</title>
<path fill="none" stroke="grey" stroke-width="2" d="M3501.82,-220.56C3494.11,-218.73 3486.11,-217.1 3478.5,-216 3178.81,-172.83 2212.39,-164.63 1974.69,-163.25"/>
<polygon fill="grey" stroke="grey" stroke-width="2" points="1975.05,-159.76 1965.03,-163.2 1975.01,-166.76 1975.05,-159.76"/>
</g>
<!-- 94 -->
<g id="node95" class="node">
<title>94</title>
<path fill="none" stroke="#59d856" stroke-width="2" d="M3597,-324C3597,-324 3522,-324 3522,-324 3516,-324 3510,-318 3510,-312 3510,-312 3510,-300 3510,-300 3510,-294 3516,-288 3522,-288 3522,-288 3597,-288 3597,-288 3603,-288 3609,-294 3609,-300 3609,-300 3609,-312 3609,-312 3609,-318 3603,-324 3597,-324"/>
<text text-anchor="middle" x="3559.5" y="-309" font-family="sans" font-size="10.00">Crossmap_CADD</text>
<text text-anchor="middle" x="3559.5" y="-298" font-family="sans" font-size="10.00">sample: chr32</text>
</g>
<!-- 94&#45;&gt;93 -->
<g id="edge96" class="edge">
<title>94&#45;&gt;93</title>
<path fill="none" stroke="grey" stroke-width="2" d="M3555.71,-287.34C3554.29,-280.67 3552.62,-272.89 3551.01,-265.39"/>
<polygon fill="grey" stroke="grey" stroke-width="2" points="3554.49,-264.91 3548.97,-255.86 3547.64,-266.37 3554.49,-264.91"/>
</g>
<!-- 95 -->
<g id="node96" class="node">
<title>95</title>
<path fill="none" stroke="#56d8a9" stroke-width="2" stroke-dasharray="5,2" d="M3589,-396C3589,-396 3530,-396 3530,-396 3524,-396 3518,-390 3518,-384 3518,-384 3518,-372 3518,-372 3518,-366 3524,-360 3530,-360 3530,-360 3589,-360 3589,-360 3595,-360 3601,-366 3601,-372 3601,-372 3601,-384 3601,-384 3601,-390 3595,-396 3589,-396"/>
<text text-anchor="middle" x="3559.5" y="-381" font-family="sans" font-size="10.00">split_chCADD</text>
<text text-anchor="middle" x="3559.5" y="-370" font-family="sans" font-size="10.00">sample: 32</text>
</g>
<!-- 95&#45;&gt;94 -->
<g id="edge97" class="edge">
<title>95&#45;&gt;94</title>
<path fill="none" stroke="grey" stroke-width="2" d="M3559.5,-359.34C3559.5,-352.75 3559.5,-345.08 3559.5,-337.67"/>
<polygon fill="grey" stroke="grey" stroke-width="2" points="3563,-337.93 3559.5,-327.93 3556,-337.93 3563,-337.93"/>
</g>
<!-- 96 -->
<g id="node97" class="node">
<title>96</title>
<path fill="none" stroke="#56a9d8" stroke-width="2" d="M3691.5,-252C3691.5,-252 3631.5,-252 3631.5,-252 3625.5,-252 3619.5,-246 3619.5,-240 3619.5,-240 3619.5,-228 3619.5,-228 3619.5,-222 3625.5,-216 3631.5,-216 3631.5,-216 3691.5,-216 3691.5,-216 3697.5,-216 3703.5,-222 3703.5,-228 3703.5,-228 3703.5,-240 3703.5,-240 3703.5,-246 3697.5,-252 3691.5,-252"/>
<text text-anchor="middle" x="3661.5" y="-231.5" font-family="sans" font-size="10.00">filter_mapped</text>
</g>
<!-- 96&#45;&gt;2 -->
<g id="edge34" class="edge">
<title>96&#45;&gt;2</title>
<path fill="none" stroke="grey" stroke-width="2" d="M3618.82,-220.55C3611.12,-218.72 3603.11,-217.09 3595.5,-216 3271.51,-169.72 2222.94,-163.85 1974.59,-163.11"/>
<polygon fill="grey" stroke="grey" stroke-width="2" points="1974.74,-159.61 1964.73,-163.08 1974.72,-166.61 1974.74,-159.61"/>
</g>
<!-- 97 -->
<g id="node98" class="node">
<title>97</title>
<path fill="none" stroke="#59d856" stroke-width="2" d="M3714,-324C3714,-324 3639,-324 3639,-324 3633,-324 3627,-318 3627,-312 3627,-312 3627,-300 3627,-300 3627,-294 3633,-288 3639,-288 3639,-288 3714,-288 3714,-288 3720,-288 3726,-294 3726,-300 3726,-300 3726,-312 3726,-312 3726,-318 3720,-324 3714,-324"/>
<text text-anchor="middle" x="3676.5" y="-309" font-family="sans" font-size="10.00">Crossmap_CADD</text>
<text text-anchor="middle" x="3676.5" y="-298" font-family="sans" font-size="10.00">sample: chr33</text>
</g>
<!-- 97&#45;&gt;96 -->
<g id="edge98" class="edge">
<title>97&#45;&gt;96</title>
<path fill="none" stroke="grey" stroke-width="2" d="M3672.71,-287.34C3671.29,-280.67 3669.62,-272.89 3668.01,-265.39"/>
<polygon fill="grey" stroke="grey" stroke-width="2" points="3671.49,-264.91 3665.97,-255.86 3664.64,-266.37 3671.49,-264.91"/>
</g>
<!-- 98 -->
<g id="node99" class="node">
<title>98</title>
<path fill="none" stroke="#56d8a9" stroke-width="2" stroke-dasharray="5,2" d="M3706,-396C3706,-396 3647,-396 3647,-396 3641,-396 3635,-390 3635,-384 3635,-384 3635,-372 3635,-372 3635,-366 3641,-360 3647,-360 3647,-360 3706,-360 3706,-360 3712,-360 3718,-366 3718,-372 3718,-372 3718,-384 3718,-384 3718,-390 3712,-396 3706,-396"/>
<text text-anchor="middle" x="3676.5" y="-381" font-family="sans" font-size="10.00">split_chCADD</text>
<text text-anchor="middle" x="3676.5" y="-370" font-family="sans" font-size="10.00">sample: 33</text>
</g>
<!-- 98&#45;&gt;97 -->
<g id="edge99" class="edge">
<title>98&#45;&gt;97</title>
<path fill="none" stroke="grey" stroke-width="2" d="M3676.5,-359.34C3676.5,-352.75 3676.5,-345.08 3676.5,-337.67"/>
<polygon fill="grey" stroke="grey" stroke-width="2" points="3680,-337.93 3676.5,-327.93 3673,-337.93 3680,-337.93"/>
</g>
<!-- 99 -->
<g id="node100" class="node">
<title>99</title>
<path fill="none" stroke="#56a9d8" stroke-width="2" d="M3808.5,-252C3808.5,-252 3748.5,-252 3748.5,-252 3742.5,-252 3736.5,-246 3736.5,-240 3736.5,-240 3736.5,-228 3736.5,-228 3736.5,-222 3742.5,-216 3748.5,-216 3748.5,-216 3808.5,-216 3808.5,-216 3814.5,-216 3820.5,-222 3820.5,-228 3820.5,-228 3820.5,-240 3820.5,-240 3820.5,-246 3814.5,-252 3808.5,-252"/>
<text text-anchor="middle" x="3778.5" y="-231.5" font-family="sans" font-size="10.00">filter_mapped</text>
</g>
<!-- 99&#45;&gt;2 -->
<g id="edge35" class="edge">
<title>99&#45;&gt;2</title>
<path fill="none" stroke="grey" stroke-width="2" d="M3735.82,-220.53C3728.12,-218.71 3720.11,-217.08 3712.5,-216 3364.17,-166.61 2233.18,-163.12 1974.52,-162.98"/>
<polygon fill="grey" stroke="grey" stroke-width="2" points="1974.86,-159.48 1964.86,-162.98 1974.86,-166.48 1974.86,-159.48"/>
</g>
<!-- 100 -->
<g id="node101" class="node">
<title>100</title>
<path fill="none" stroke="#59d856" stroke-width="2" d="M3831,-324C3831,-324 3756,-324 3756,-324 3750,-324 3744,-318 3744,-312 3744,-312 3744,-300 3744,-300 3744,-294 3750,-288 3756,-288 3756,-288 3831,-288 3831,-288 3837,-288 3843,-294 3843,-300 3843,-300 3843,-312 3843,-312 3843,-318 3837,-324 3831,-324"/>
<text text-anchor="middle" x="3793.5" y="-309" font-family="sans" font-size="10.00">Crossmap_CADD</text>
<text text-anchor="middle" x="3793.5" y="-298" font-family="sans" font-size="10.00">sample: chrZ</text>
</g>
<!-- 100&#45;&gt;99 -->
<g id="edge100" class="edge">
<title>100&#45;&gt;99</title>
<path fill="none" stroke="grey" stroke-width="2" d="M3789.71,-287.34C3788.29,-280.67 3786.62,-272.89 3785.01,-265.39"/>
<polygon fill="grey" stroke="grey" stroke-width="2" points="3788.49,-264.91 3782.97,-255.86 3781.64,-266.37 3788.49,-264.91"/>
</g>
<!-- 101 -->
<g id="node102" class="node">
<title>101</title>
<path fill="none" stroke="#56d8a9" stroke-width="2" stroke-dasharray="5,2" d="M3823,-396C3823,-396 3764,-396 3764,-396 3758,-396 3752,-390 3752,-384 3752,-384 3752,-372 3752,-372 3752,-366 3758,-360 3764,-360 3764,-360 3823,-360 3823,-360 3829,-360 3835,-366 3835,-372 3835,-372 3835,-384 3835,-384 3835,-390 3829,-396 3823,-396"/>
<text text-anchor="middle" x="3793.5" y="-381" font-family="sans" font-size="10.00">split_chCADD</text>
<text text-anchor="middle" x="3793.5" y="-370" font-family="sans" font-size="10.00">sample: Z</text>
</g>
<!-- 101&#45;&gt;100 -->
<g id="edge101" class="edge">
<title>101&#45;&gt;100</title>
<path fill="none" stroke="grey" stroke-width="2" d="M3793.5,-359.34C3793.5,-352.75 3793.5,-345.08 3793.5,-337.67"/>
<polygon fill="grey" stroke="grey" stroke-width="2" points="3797,-337.93 3793.5,-327.93 3790,-337.93 3797,-337.93"/>
</g>
</g>
</svg>
